<svg xmlns="http://www.w3.org/2000/svg" xmlns:xlink="http://www.w3.org/1999/xlink" width="818" height="1187" viewBox="0 0 818 1187" fill="none">
<path d="M752.934 815.328C762.35 813.645 770.222 800.888 768.136 792.899C764.461 790.09 754.828 784.56 750.844 781.978C726.572 782.714 735.797 748.945 733.049 731.78C730.283 714.986 728.229 697.426 724.182 680.537C716.991 667.023 713.618 651.873 706.745 638.427C703.677 633.971 698.717 629.886 697.231 624.709C682.198 608.289 661.501 598.447 644.469 584.54C651.079 582.424 650.639 573.509 650.212 567.784C651.75 560.315 650.106 550.947 643.295 546.739C640.993 539.239 630.931 536.621 625.047 541.399C621.182 524.076 606.061 513.566 590.22 507.138L590.262 506.986C574.287 500.646 555.14 497.486 539.201 501.049C547.614 407.301 475.811 403.859 439.371 411.738C420.731 415.768 392.764 428.313 386.411 445.754C382.824 455.601 372.53 487.357 371.065 497.486C343.238 481.607 310.978 460.668 286.842 492.636C282.009 498.207 276.661 502.345 269.43 504.259C246.85 510.118 216.88 510.314 204.046 533.332C196.374 547.592 203.273 556.988 201.212 571.253C99.5695 642.632 14.6285 905.585 33.7005 1027.92C38.2885 1071.7 60.6885 1149.19 115.977 1139.53C144.177 1170.37 617.502 1170.37 666.309 1139.53C706.484 1150.03 747.306 1133.77 764.153 1095.29C785.548 1042.53 762.875 985.546 758.858 931.421C756.417 917.756 752.786 906.909 750.844 892.919C750.036 887.09 752.826 877.392 750.844 872.018C751.779 868.52 764.153 853.203 764.153 845.112C764.153 837.02 752.954 822.657 752.934 815.328Z"   fill="#D08B5B" >
</path>
<path d="M314.117 479.075C305.881 479.61 298.069 482.825 293.034 488.299C291.367 490.112 290.188 491.77 288.527 494.587L288.038 495.425L287.561 496.257L286.569 498.017C285.12 500.591 284.222 502.091 283.283 503.403L283.013 503.774L282.725 504.156L282.44 504.521C278.592 509.378 273.602 511.725 266.947 511.938L263.415 512.045L262.592 512.073L261.964 512.097C257.422 512.278 254.198 512.609 250.772 513.352C237.416 516.248 226.152 520.588 217.312 526.919L217.147 527.036C213.116 529.849 212.503 527.555 208.29 536.473L207.76 537.614C203.692 546.489 206.696 557.562 207.692 561.235C207.836 561.766 207.938 562.142 207.971 562.335L207.982 562.42L208.245 567.057Q189.886 583.671 173.302 599.815C160.861 611.927 150.097 625.965 137.991 644.99L136.665 647.085L135.35 649.184L134.045 651.287L132.614 653.615L131.191 655.95L129.804 658.242L128.53 660.363C116.679 680.197 105.87 701.003 96.0631 722.757C76.4453 766.276 61.5771 812.298 51.7655 859.646C41.6496 908.459 37.0686 955.31 38.7432 999.699C39.6685 1024.24 42.7678 1045.94 48.684 1065.97C51.8632 1076.73 55.7299 1086.74 60.3867 1096.04C61.5409 1098.34 62.6312 1100.34 64.1617 1102.96L64.7985 1104.04L65.9475 1105.97L69.7017 1112.16C79.9997 1129 98.9997 1139 115.32 1136.94C130.534 1135.02 108.283 1140.2 108.283 1140.2L119.387 1145.53L121.183 1146.33C183.977 1172.56 590.967 1172.09 661.171 1145.28L662.78 1139.67L662.743 1139.28L662.647 1138.2C662.511 1136.55 662.01 1123.46 662.01 1123.46C661.749 1114.39 664.526 1116.66 664.629 1122.48L664.677 1125.21L667.4 1125.42L667.62 1125.44C667.768 1125.46 667.921 1125.49 668.079 1125.53C669.361 1125.83 670.423 1126.53 672.83 1128.57L673.436 1129.08C675.258 1130.61 676.257 1131.32 677.663 1132.02C685.366 1135.85 694.923 1136.35 704.558 1134.08C722.837 1129.74 739.058 1117.19 750.172 1099.89C761.83 1081.76 767.205 1059.76 767.058 1035.12C766.895 1012.19 763.614 989.307 757.141 961.592L756.78 960.051L756.64 959.45L756.432 958.523C755.304 953.367 754.215 946.571 753.114 938.122L752.686 934.769L752.295 931.563C752.256 931.245 752.218 930.926 752.18 930.605L751.719 926.647L751.221 922.208L749.407 905.496C749.243 904.03 749.098 902.786 748.966 901.714L748.797 900.384L748.641 899.233L748.502 898.298L748.37 897.5L748.285 897.04L748.202 896.636C748.112 896.229 748.021 895.893 747.906 895.589C747.459 894.398 746.989 893.694 745.404 893.446L744.859 893.361L743.779 893.59L742.833 894.169L742.418 894.437C737.603 897.609 733.793 902.402 729.84 909.343C729.84 909.343 723.711 920.885 722.273 922.862L721.522 923.894L721.624 924.47L718.173 927.31L717.82 927.592C715.571 929.35 713.035 930.455 710.013 930.91C705.256 931.628 700.737 930.091 693.88 925.998L692.951 925.437L692.2 924.975L689.973 923.592L687.671 922.177L686.485 921.461L685.924 921.127C681.106 918.28 677.485 916.61 673.374 915.585C670.312 914.82 667.76 914.478 662.79 914.054L659.293 913.759L658.011 913.64L657.177 913.554L655.941 913.409L654.33 913.188L652.109 912.839L650.587 912.514L650.05 912.396C643.119 910.833 638.038 908.107 634.898 903.824C631.135 898.689 630.723 892.372 633.871 887.414L634.967 885.688L633.76 884.036L633.626 883.847C631.68 880.997 632.768 878.127 636.668 875.234L638.89 873.628L641.206 872.669L641.598 872.51C642.11 872.306 642.583 872.135 643.02 871.998C648.65 870.213 654.225 868.782 659.743 867.724L682.528 863.352L658.464 861.722L657.908 861.677L657.061 861.599L656.258 861.512C646.649 860.398 642.573 857.098 643.824 849.932C644.627 845.339 648.045 841.616 653.823 838.351L654.761 837.834L654.98 837.719L655.198 837.611L663.7 833.522L654.398 831.949L653.519 831.796C652.61 831.633 651.694 831.454 650.643 831.236L644.868 830.012C643.534 829.74 642.285 829.502 640.971 829.272L640.076 829.119C636.292 828.482 632.509 828.115 628.745 828.022L628.795 827.891L626.258 827.979L625.525 828.005L624.284 828.048L623.172 828.095C620.206 828.243 617.242 828.572 614.281 829.081C610.535 829.739 606.777 830.702 602.938 831.968L601.123 832.569L600.638 832.733L600.153 832.901C599.36 833.179 598.644 833.449 597.952 833.735L594.723 835.07L596.531 838.06L596.681 838.313C601.161 846.076 595.962 854.144 585.844 856.774C584.324 857.17 582.698 857.493 580.846 857.778L575.31 858.595L579.137 864.331L579.412 864.581L579.613 864.769C584.145 869.168 582.052 877.583 575.803 881.788C573.773 883.159 571.357 884.23 568.51 885.07L564.947 886.121L566.725 889.383L566.77 889.478C566.831 889.63 566.818 889.754 566.73 889.911C562.051 898.252 554.275 906.291 543.523 914.828C533.003 923.178 523.286 928.825 513.622 931.561C507.68 933.234 501.136 933.613 492.75 933.042L491.65 932.963C490.649 932.888 489.652 932.803 488.54 932.698L487.385 932.586L485.311 932.373L479.488 931.743L477.057 931.486L475.934 931.374L470.461 930.874L467.333 930.575C463.659 930.216 459.892 929.819 455.991 929.381L452.243 928.954L451.074 928.831L450.223 928.747L439.816 927.776L443.95 933.213L444.229 933.586C444.97 934.599 445.703 935.747 446.496 937.105L447.048 938.067L448.125 939.979L448.24 940.189C450.319 944.12 448.204 949.183 443.952 950.354C443.533 950.471 443.104 950.535 442.683 950.547L440.887 950.599L440.085 952.207L439.97 952.427C438.739 954.663 436.236 955.933 434.363 955.289C433.005 954.826 431.65 954.181 430.291 953.36L428.41 952.223L425.432 949.81L422.843 947.137C420.651 944.845 418.629 942.377 416.008 938.889L414.901 937.403C413.418 935.399 412.234 935.046 411.166 934.727C408.789 934.019 406.982 933.48 403.723 915.322C399 889 404.202 856.903 404.202 856.903C404.263 856.51 404.319 856.161 404.37 855.857L404.464 855.314L405.786 854.048C411.116 848.982 416.346 844.495 424.933 837.541L427.792 835.234L436.88 827.954C444.212 822.068 448.931 818.172 453.302 814.323L454.639 813.138L456.263 811.676L457.84 810.234C465.354 803.316 472.732 795.852 480.106 787.758L481.052 786.704C481.157 786.586 481.263 786.466 481.37 786.345L482.365 785.206L483.568 783.805L486.954 779.81C491.603 774.348 494.326 771.435 497.511 768.747L498.062 768.287L498.57 767.874C501.842 765.238 505.324 763.272 509.173 761.904C509.647 761.734 510.095 761.584 510.635 761.417L511.529 761.147L514.045 760.42C517.579 759.392 519.581 758.641 521.693 757.384C525.003 755.42 526.684 753.157 528.9 748.44L529.286 747.607L530.161 745.667C532.003 741.644 533.196 739.921 535.304 738.575C538.598 736.47 542.5 736.074 548.662 736.807L549.483 736.909L550.291 737.015L553.557 737.47L554.837 737.641L555.375 737.709C561.405 738.462 565.081 738.348 569.016 736.719C570.504 736.105 571.68 735.472 573.459 734.35L574.205 733.874L576.257 732.539C577.865 731.502 578.872 730.912 579.887 730.442L580.269 730.271L580.641 730.115C586.038 727.895 591.915 729.09 593.82 733.176C595.449 736.662 594.12 740.269 590.164 744.208L589.753 744.608L589.355 744.982L584.437 749.446L590.425 750.529L590.794 750.599C596.526 751.715 599.762 754.228 600.048 758.013L600.264 760.881L604.797 760.73L620.008 760.196L637.348 759.463L644.146 759.21C651.033 758.983 656.882 758.895 662.452 758.962L664.116 758.987L667.931 759.055L667.096 755.331L666.992 754.828C666.763 753.641 666.644 752.369 666.628 750.992L666.627 750.592L666.633 750.182C666.645 749.628 666.674 749.041 666.721 748.385L670.421 747.988L671.594 747.872L672.376 747.801L673.364 747.722C680.654 747.185 685.348 747.979 688.613 750.812C690.709 752.642 692.164 756.906 691.371 759.078L690.322 761.952L693.216 762.945L693.906 763.188C696.649 764.179 699.146 765.382 701.374 766.805L702.583 767.578L703.943 767.122L704.406 766.972C708.886 765.583 713.669 765.739 718.412 767.39L719.03 767.61L719.326 767.721L719.734 767.877C724.056 769.564 727.521 771.828 728.773 774.113L736.815 788.792L734.372 772.233L733.89 769.004C728.858 735.639 722.172 702.594 713.848 669.973L713.797 669.772L713.168 668.243C707.61 654.887 700.729 642.348 692.607 630.883C685.119 620.308 676.172 610.402 665.156 600.128L664.825 599.819L663.135 598.256C657.022 592.637 651.176 587.655 641.366 579.625L634.357 573.912L636.891 575.521L635.614 568.732L635.558 568.402C635.336 566.952 635.388 565.226 635.697 563.264L635.811 562.569L636.287 559.828L636.41 559.082L636.479 558.626C637.262 553.349 636.833 549.702 634.299 545.807C632.005 542.279 629.327 540.489 623.497 537.695L621.65 536.803C621.13 536.547 620.698 536.329 620.309 536.123L619.859 535.88L619.431 535.64L619.087 535.439C614.688 532.836 612.076 529.616 608.663 523.211C605.695 517.644 600.941 513.373 594.5 509.933C589.767 507.406 585.146 505.7 576.985 503.163L574.979 502.543L574.282 502.335C562.236 498.772 551.618 498.023 542.025 500.88L539.365 501.672L539.948 504.385L540.228 505.647C540.85 508.218 544.538 517.095 551.293 532.279L554.973 540.501L496.71 623.148C491.505 629.151 487.884 633.13 484.241 636.728L483.535 637.421L482.501 638.417L481.872 639.012C476.292 644.268 470.194 643.49 463.991 637.259Q461.76 635.018 421.848 592.17L358.769 524.392C358.227 523.775 357.697 523.178 357.117 522.535L358.322 520.542L359.107 519.23C363.273 512.205 367.074 504.744 370.456 496.988L371.658 494.232L365.926 491.748L364.257 491.034C343.1 482.038 328.722 478.122 314.117 479.075ZM550.522 775.241L545.186 777.691L543.017 778.699L542.324 779.03L542.225 779.08L541.858 779.259L523.821 788.321L543.55 784.975L545.642 784.626C547.741 784.281 549.86 783.951 551.998 783.634L554.641 783.242L554.557 780.572L554.554 780.178C554.564 779.649 554.626 779.107 554.738 778.554L555.928 772.699L550.522 775.241Z" fill-rule="evenodd"  fill="#78E185" >
</path>
<path d="M378.528 464.733C380.225 458.012 379.977 449.136 385.103 444.082C389.56 439.689 398.143 441.414 399.588 447.907C399.661 448.232 399.712 448.553 399.758 448.874C400.092 450.244 400.217 451.561 400.176 452.884C400.196 453.361 400.161 453.839 400.072 454.312C399.893 455.869 399.518 457.467 399.011 459.214C397.932 462.931 396.696 466.603 395.315 470.22C392.585 477.373 389.362 484.198 385.378 490.74C378.181 502.557 369.032 512.366 358.246 520.845C360.293 522.534 362.294 524.291 364.299 526.016C373.99 534.356 383.419 543.074 392.552 552.022C408.771 567.915 424.664 584.103 440.184 600.679C447.839 608.854 455.352 617.136 462.824 625.474L463.069 625.754L463.334 626.07C463.685 626.494 464.082 626.996 464.516 627.544C467.366 631.146 471.814 636.768 475.248 635.702C477.246 635.08 479.35 632.099 480.712 630.677L483.221 628.061C484.055 627.186 484.883 626.307 485.698 625.415C500.294 609.423 514.105 592.817 527.073 575.46C533.401 566.991 539.518 558.363 545.413 549.585C548.443 545.072 551.417 540.519 554.331 535.928C557.149 531.488 559.428 526.716 563.581 523.402C566.629 520.97 570.852 523.2 570.084 527.187C568.874 533.466 564.528 538.776 561.106 544.083C557.669 549.416 554.151 554.697 550.554 559.922C543.631 569.982 536.408 579.83 528.927 589.48C522.485 597.79 515.763 605.887 508.86 613.82L506.973 615.98C499.548 624.445 492.26 633.431 484.055 641.157C476.708 648.076 468.684 646.06 461.991 639.336C453.526 630.835 445.667 621.641 437.522 612.83C421.246 595.222 404.8 577.748 388.184 560.46L382.722 554.77C376.353 548.122 370.01 541.432 363.833 534.621L363.036 533.733C355.991 525.808 348.828 515.881 338.813 511.852C338.089 511.561 338.355 510.533 339.137 510.677C345.548 511.862 350.9 515.092 355.88 518.951C360.356 511.544 364.35 503.736 367.832 495.75L365.598 494.78C349.614 487.873 331.599 480.909 314.438 482.029C307.522 482.479 300.143 485.099 295.368 490.291C291.044 494.994 288.885 501.336 284.917 506.345C280.372 512.082 274.444 514.664 267.169 514.897L263.631 515.004C259.563 515.136 255.661 515.349 251.534 516.245C240.352 518.669 228.563 522.602 219.185 529.319C215.783 531.755 212.271 535.105 210.626 538.796C208.995 542.453 208.526 546.732 208.367 550.679C208.338 551.403 208.402 552.214 208.467 553.042C208.574 554.415 208.686 555.835 208.386 556.983C208.44 556.774 208.465 556.886 208.472 557.106C209.971 558.288 210.992 560.253 211.103 562.211C220.451 557.339 230.128 553.069 239.993 549.22C250.977 544.935 262.302 541.501 273.629 538.249C284.715 535.068 296.319 533.752 307.62 531.484C309.059 531.195 309.559 533.138 308.218 533.654C296.34 538.216 284.847 543.624 272.87 547.916C260.899 552.207 249.017 556.851 237.393 562.013C214.925 571.994 193.222 584.694 175.521 601.925C158.233 618.755 144.898 639.2 132.496 659.756C120.006 680.457 108.859 701.912 98.924 723.951C79.27 767.55 64.532 813.391 54.829 860.215C45.386 905.781 40.11 952.974 41.867 999.547C42.701 1021.67 45.403 1043.8 51.687 1065.08C54.689 1075.24 58.447 1085.17 63.195 1094.65C68.202 1104.65 74.948 1113.55 79.52 1123.72C79.896 1124.56 80.04 1125.36 80.019 1126.1C99.519 1143 130.041 1131.61 151.145 1121.53C199.705 1098.31 247.365 1072.9 292.665 1043.74C337.375 1014.96 379.745 982.837 421.115 949.498C417.915 946.198 415.094 942.498 412.615 939.148C407.495 932.228 403.645 924.388 400.995 916.207C397.895 906.627 396.934 896.377 397.815 886.368L398.065 883.537C398.908 874.085 399.881 864.493 401.955 855.257C401.974 855.138 402.065 855.087 402.165 855.087C402.264 855.087 402.365 855.148 402.405 855.257C407.995 873.148 408.445 892.377 414.724 910.038C417.254 917.138 421.174 923.998 425.875 929.888C427.905 932.437 430.285 934.648 432.714 936.808C432.875 935.707 433.094 934.618 433.424 933.548L433.686 932.701C434.011 931.672 434.414 930.529 434.974 929.517C434.184 929.288 433.415 929.038 432.655 928.757C432.054 928.538 431.924 927.568 432.655 927.408C434.645 926.948 436.695 926.718 438.785 926.618C439.115 926.568 439.434 926.558 439.754 926.578C442.302 926.499 444.88 926.591 447.411 926.681L447.411 926.681C448.763 926.729 450.102 926.777 451.415 926.798C457.945 926.898 464.455 927.017 470.974 927.308C474.107 927.443 477.342 927.695 480.624 927.951C490.415 928.714 500.627 929.509 509.825 927.337C520.985 924.698 531.985 917.257 540.934 910.257C548.754 904.138 554.785 896.868 561.274 889.618C560.808 889.691 560.346 889.76 559.885 889.824L555.7 890.397C550.418 891.103 544.147 891.656 539.955 889.118C538.354 888.148 538.815 885.948 540.445 885.347C543.251 884.318 546.5 884.523 549.69 884.724C551.365 884.829 553.024 884.933 554.594 884.858C558.174 884.687 561.795 884.308 565.325 883.568C566.485 883.328 567.634 883.048 568.774 882.718C577.134 880.308 586.955 871.828 580.315 862.568C580.065 862.218 580.344 861.898 580.684 861.837C580.835 861.808 580.995 861.837 581.125 861.948C588.684 868.207 584.754 879.427 577.604 884.238C575.145 885.898 572.365 887.058 569.485 887.908C570.035 888.917 570.134 890.158 569.474 891.337C563.875 901.318 554.395 910.087 545.514 917.138C536.395 924.377 525.875 931.207 514.565 934.408C503.985 937.388 492.559 936.137 481.557 934.932C478.978 934.65 476.421 934.37 473.905 934.148C466.724 933.517 459.565 932.767 452.395 931.937C450.474 931.718 448.485 931.548 446.464 931.358C448.365 933.858 449.875 936.738 450.865 938.468C454.085 944.087 451.115 951.488 444.875 953.207C444.224 953.388 443.554 953.488 442.895 953.507C441.214 956.877 437.214 959.358 433.514 958.087C431.905 957.538 430.354 956.788 428.865 955.888C405.594 976.328 381.094 995.507 355.895 1013.49C309.165 1046.83 260.184 1077.28 209.395 1104.05C197.955 1110.08 186.428 1115.95 174.803 1121.59L164.797 1126.41C153.722 1131.74 142.387 1137.04 130.625 1140.35C128.332 1140.99 125.931 1141.51 123.471 1141.91C123.439 1142.13 123.431 1142.34 123.446 1142.54C121.234 1142.84 119.304 1142.88 117.656 1142.68L117.281 1142.63C102.864 1143.64 87.443 1140.12 78.168 1129.59C76.622 1130.67 74.368 1130.79 72.379 1129.23C62.376 1121.38 56.413 1109.43 51.18 1098.02C45.874 1086.45 41.715 1074.39 38.659 1062.03C32.555 1037.35 30.134 1011.9 30.0064 986.513C29.545 888.694 54.043 790.016 96.595 702.197C107.387 679.924 119.283 658.067 132.489 637.13C145.659 616.25 160.952 596.845 180.537 581.617C186.169 577.239 192.028 573.236 198.071 569.548C194.015 567.538 192.404 562.425 192.12 557.883C191.49 547.796 192.692 536.175 198.598 527.664C206.883 515.724 221.714 508.362 235.466 504.782C242.645 502.914 250.071 501.825 257.476 501.457C259.158 501.373 260.87 501.447 262.58 501.522C264.752 501.617 266.923 501.712 269.033 501.482C272.361 501.12 274.419 499.134 276.333 496.523C281.236 489.83 284.428 482.81 291.461 477.904C298.677 472.871 308.028 470.945 316.721 471.467C326.848 472.076 336.087 476.066 345.006 480.651C353.056 484.789 360.87 489.373 368.485 494.263C369.881 490.992 371.196 487.696 372.419 484.389C374.791 477.977 376.854 471.361 378.528 464.733ZM535.863 482.149C536.431 478.086 537.274 473.822 539.559 470.638C539.779 470.332 540.317 470.325 540.417 470.75C541.133 473.815 540.972 477.131 540.813 480.41C540.723 482.251 540.634 484.08 540.701 485.847C540.879 490.542 541.433 495.21 542.249 499.836C550.831 495.322 560.973 494.742 570.753 496.195C583.404 498.075 598.043 502.235 607.958 510.687C610.406 512.775 612.434 515.247 614.132 517.972C616.17 521.242 617.471 524.936 620.702 527.279C625.7 530.904 631.896 532.307 636.701 536.324C641.6 540.419 644.641 546.541 645.284 552.859C645.627 556.222 645.072 559.366 644.434 562.646C643.862 565.597 644.143 566.808 644.92 569.649C645.53 571.879 644.366 574.41 642.468 575.64C646.537 578.433 650.551 581.312 654.495 584.308C677.474 601.748 696.905 623.488 710.375 649.068L710.701 649.703L711.078 650.467C714.36 657.211 722.949 676.927 724.016 681.36C724.779 683.675 725.518 685.999 726.205 688.337C728.019 694.533 729.558 700.807 730.833 707.131L731.174 708.858C731.398 710.008 731.658 711.204 731.923 712.43C732.884 716.865 733.928 721.688 733.703 726.124C736.686 741.582 739.329 757.105 741.585 772.693C741.88 774.735 741.067 776.394 739.805 777.495C742.822 777.98 745.82 778.576 748.785 779.177L750.508 779.539L751.37 779.729C757.545 781.122 763.64 783.15 767.684 788.337C772.045 793.948 772.134 801.158 767.754 806.808C764.035 811.608 758.604 813.888 752.934 815.328C751.815 815.608 750.684 815.868 749.554 816.097C748.795 816.257 748.295 815.218 749.014 814.818L750.218 814.153L751.859 813.253C756.133 810.897 760.569 808.238 762.934 803.988C766.145 798.218 763.604 792.877 758.094 789.948C753.482 787.492 747.776 786.863 742.654 786.025L740.538 785.675C735.183 784.82 729.721 784.265 724.315 784.877C719.585 785.417 714.795 787.028 710.974 789.917L710.621 790.195L710.255 790.502C706.904 793.406 702.086 799.928 708.405 801.808C711.959 802.858 716.083 802.944 720.036 803.026C721.457 803.056 722.855 803.085 724.197 803.158L724.854 803.198C729.104 803.488 733.545 803.488 737.844 803.998C739.384 804.177 740.905 804.427 742.395 804.778C746.665 805.788 745.195 811.468 741.434 811.868C740.514 811.968 739.575 812.017 738.634 812.038C736.174 813.888 732.774 814.728 729.865 815.877C727.085 816.978 724.295 818.068 721.485 819.138C723.905 819.248 726.325 819.448 728.735 819.748C729.514 819.837 729.524 820.888 728.735 820.968C722.934 821.558 717.134 822.198 711.354 823.007C702.405 824.248 693.514 825.908 684.825 828.437C678.474 830.294 672.2 832.505 666.115 835.085L664.274 835.877L663.515 836.208C657.992 838.602 650.848 841.403 647.674 846.677C646.014 849.427 645.285 853.677 647.625 856.308C649.793 858.762 654.015 858.848 657.384 858.916C657.905 858.927 658.406 858.937 658.875 858.956L659.155 858.968C666.575 859.328 674.004 859.377 681.434 859.118C697.004 858.568 712.585 856.868 727.875 853.877C730.695 853.328 731.915 857.558 729.075 858.218C711.04 862.408 692.806 864.707 674.301 864.814L672.274 864.818C665.066 866.196 657.996 868.251 650.987 870.57L649.585 871.038C645.445 872.437 638.375 873.828 635.934 877.937C634.315 880.667 634.884 882.538 636.485 883.808C639.304 886.038 645.304 886.457 648.224 886.568C659.924 887.007 671.634 887.087 683.344 886.837C689.195 886.707 695.045 886.498 700.895 886.198C702.471 886.115 704.076 885.991 705.694 885.865C709.95 885.536 714.295 885.199 718.424 885.597C720.875 885.837 721.695 889.437 719.035 890.108C712.006 891.888 704.122 891.733 696.859 891.96L696.024 891.988C688.224 892.267 680.415 892.388 672.615 892.368C665.92 892.341 659.227 892.206 652.539 891.96L646.626 891.726L645.579 891.675C642.428 891.507 639.209 891.143 636.415 889.847C633.835 894.167 635.764 899.957 639.094 903.377C642.264 906.638 646.835 908.238 651.214 909.238C651.625 909.328 652.035 909.417 652.445 909.498C662.065 911.457 671.865 911.288 680.865 915.707C688.434 919.427 695.365 925.627 703.844 927.097C711.424 928.417 716.934 925.078 720.974 918.898C721.195 918.558 721.415 918.218 721.625 917.877C724.804 912.757 727.094 907.118 730.445 902.097C732.155 899.538 734.085 897.078 736.445 895.078C737.504 894.167 744.924 890.228 746.085 889.048C749.21 885.841 748.645 880.42 748.105 875.239C747.783 872.146 747.469 869.138 747.955 866.738C749.474 859.267 756.045 856.638 759.985 850.847C763.776 845.269 760.385 839.869 756.908 834.334C753.516 828.935 750.043 823.407 753.075 817.457C753.155 817.308 753.254 817.198 753.384 817.127C753.924 816.837 754.785 817.198 754.735 817.908C754.307 823.562 757.542 828.106 760.768 832.638C762.666 835.304 764.561 837.966 765.705 840.847C769.111 849.413 763.956 854.71 758.418 860.4C758.234 860.588 758.05 860.778 757.865 860.968C753.122 865.859 753.586 871.128 754.078 876.703L754.078 876.704C754.349 879.78 754.628 882.949 754.045 886.198C753.831 887.396 753.487 888.452 753.04 889.397C754.298 890.177 755.268 891.469 755.481 893.273C758.005 914.673 760.718 936.007 765.148 957.111L766.096 961.595L767.365 967.576C770.523 982.537 773.47 997.557 774.03 1012.85C775.789 1025.76 776.487 1038.77 775.445 1051.77C772.285 1091.32 750.174 1132.7 710.004 1144.84C700.705 1147.65 690.844 1148.38 681.304 1146.41C678.035 1145.74 673.455 1144.26 669.344 1142.02C669.589 1144.65 669.783 1147.29 669.864 1149.92C671.219 1151.43 671.832 1153.71 671.06 1155.65C667.784 1154.58 664.807 1152.87 662.125 1150.53L661.681 1150.14C660.092 1144.23 659.627 1137.77 659.396 1131.55L659.335 1129.78C659.274 1128.06 659.235 1126.37 659.174 1124.72C658.835 1114.45 659.075 1104.16 659.604 1093.9L659.994 1086.34C660.888 1068.73 661.615 1051.15 661.125 1033.49C660.565 1013.16 658.825 992.917 656.645 972.698C655.514 962.267 654.235 951.858 652.924 941.448C651.875 933.068 650.115 924.048 650.085 915.408C643.354 913.968 636.745 911.207 632.604 905.558C628.214 899.568 627.565 891.908 631.464 885.767C627.695 880.608 630.785 875.748 635.445 872.468C628.285 868.457 624.295 857.517 623.235 849.908C622.514 844.687 622.285 836.877 624.514 831.007C621.315 831.118 618.115 831.448 614.915 831.998C611.214 832.648 607.585 833.597 604.004 834.778L602.192 835.377C601.277 835.684 600.247 836.045 599.224 836.468C605.695 847.167 597.384 856.868 586.724 859.638C584.695 860.167 582.625 860.538 580.535 860.837C575.825 861.488 571.014 861.687 566.344 862.118C557.405 862.937 548.415 864.108 539.445 864.488C537.474 864.578 536.205 863.658 535.604 862.377C535.365 861.988 535.224 861.627 535.174 861.248L535.274 861.318C534.844 858.917 536.285 855.998 539.445 855.648C552.395 854.187 565.524 854.118 578.514 853.048L579.347 852.979C583.424 852.627 588.227 851.98 591.455 849.398C594.455 846.998 594.724 843.877 593.524 841.058C593.504 841.127 593.485 841.207 593.474 841.278C593.384 841.837 592.615 841.818 592.365 841.427C591.615 840.288 591.424 839.167 591.615 838.087C590.714 837.048 589.625 836.127 588.445 835.417C583.214 832.238 576.335 831.368 570.384 830.427C563.875 829.398 557.315 828.927 550.745 828.618C537.815 828.007 524.844 829.058 512.125 831.377C511.594 831.468 511.375 830.728 511.895 830.558C516.854 828.917 521.924 827.538 527.054 826.448C526.934 826.427 526.815 826.408 526.695 826.377C526.245 826.267 525.924 825.718 526.075 825.278C526.094 825.207 526.155 825.078 526.155 825.078C523.974 824.078 523.065 820.718 525.705 819.358C533.934 815.108 543.594 813.187 552.625 811.437C561.295 809.767 570.054 808.597 578.825 807.558C593.655 805.818 609.825 805.858 624.094 801.177L624.681 800.98C630.492 798.976 637.429 794.915 637.835 788.058C638.356 779.037 626.766 779.906 619.514 780.45C618.428 780.531 617.44 780.605 616.604 780.638C599.035 781.308 581.485 782.528 563.995 784.408C560.424 784.788 556.854 785.177 553.285 785.578C547.815 786.187 542.335 786.828 536.875 787.507C533.825 787.888 530.705 788.388 527.565 788.868C526.585 789.108 525.625 789.278 524.665 789.368C524.594 789.377 524.535 789.358 524.485 789.328C519.915 789.968 515.325 790.457 510.865 790.318C510.354 790.308 510.035 789.507 510.575 789.267C516.335 786.828 522.745 785.388 529.174 784.257C533.155 781.288 537.964 778.908 541.915 776.608C547.335 773.448 553.545 768.798 559.695 766.908C562.464 764.728 565.604 762.978 568.495 761.788C567.665 760.498 567.365 758.707 567.514 757.198C568.065 751.788 572.395 748.767 577.395 747.707C578.945 747.388 580.735 747.148 582.645 747.058C582.684 746.048 583.134 745.058 584.134 744.318L584.43 744.094L584.639 743.927C587.996 741.201 594.659 733.528 586.634 732.968C583.158 732.722 580.12 734.756 577.278 736.659C576.638 737.088 576.007 737.51 575.384 737.898C568.344 742.288 561.535 742.507 553.495 741.417L549.881 740.898L549.28 740.817C543.467 740.054 537.571 739.949 534.325 745.877C530.844 752.218 529.625 757.998 522.604 761.488C515.895 764.818 508.445 765.478 502.285 770.058C495.684 774.957 490.724 781.837 485.325 787.937C473.415 801.377 459.785 813.248 445.745 824.408L443.248 826.387C430.318 836.605 416.971 846.666 402.495 854.538C402.395 854.587 402.294 854.608 402.205 854.608C401.815 854.568 401.524 854.068 401.875 853.728C418.785 837.298 438.565 823.978 455.934 807.988C463.634 800.898 470.964 793.437 478.014 785.698C484.174 778.908 489.634 771.278 496.815 765.498C500.304 762.687 504.075 760.538 508.294 759.038C512.235 757.627 516.655 756.927 520.285 754.767C527.395 750.548 526.705 740.548 533.815 736.007C539.466 732.397 546.259 733.356 552.605 734.251C553.106 734.322 553.603 734.392 554.098 734.46L554.905 734.568C559.285 735.148 563.815 735.638 567.995 733.908C572.134 732.198 575.464 728.998 579.634 727.298C585.445 724.908 593.684 725.478 596.665 731.868C599.514 737.968 595.625 743.488 591.085 747.538C597.274 748.658 602.705 751.648 603.165 757.748C607.705 757.597 612.235 757.437 616.774 757.278C621.12 757.127 625.472 756.937 629.827 756.747C641.316 756.246 652.823 755.744 664.295 755.948C663.934 754.337 663.774 752.677 663.754 750.988C663.745 750.048 663.785 749.108 663.854 748.148C663.974 746.507 665.054 745.517 666.655 745.347L670.229 744.966L671.424 744.847C678.119 744.214 685.605 744.081 690.705 748.507C693.445 750.898 695.655 756.398 694.315 760.068C697.434 761.138 700.405 762.507 703.115 764.238C708.485 762.437 714.125 762.638 719.524 764.517L720.166 764.746C724.004 766.155 729.445 768.824 731.53 772.632C726.467 738.314 719.644 704.289 711.067 670.675C705.592 657.251 698.674 644.42 690.285 632.578C669.155 602.738 638.714 582.218 611.375 558.628C608.963 561.283 606.365 563.809 603.935 566.24L602.904 567.276C597.954 572.289 592.791 577.086 587.514 581.751C576.485 591.501 564.876 600.5 553.35 609.643C530.115 628.076 509.108 647.649 491.63 671.714C491.316 672.148 490.445 671.895 490.688 671.318C502.676 642.821 527.528 621.156 550.104 601.053C561.976 590.482 574.126 580.166 585.541 569.096C590.863 563.935 596.018 558.596 600.882 552.999L602.091 551.595C602.479 551.141 602.931 550.573 603.433 549.941C607.05 545.392 613.318 537.509 617.638 544.708C618.669 546.423 618.624 548.617 617.638 550.334C616.24 552.774 614.465 555.101 612.524 557.336C619.424 561.089 626.182 565.052 632.792 569.247C632.412 567.226 632.507 564.992 632.86 562.757L632.976 562.047L633.458 559.275C634.148 555.189 634.503 551.39 631.91 547.404C628.668 542.418 622.555 540.863 617.685 537.982C612.075 534.662 609.145 530.22 606.141 524.582C600.388 513.789 587.392 509.461 576.221 505.989L574.815 505.553C564.493 502.354 553.327 500.642 543.007 503.716C543.975 508.222 545.242 512.664 546.825 516.991C547.354 518.437 548.097 519.934 548.854 521.461C550.509 524.798 552.236 528.28 551.965 531.693C551.693 535.136 547.563 538.816 544.136 536.185C539.282 532.461 538.312 526.396 537.011 520.618C535.753 515.03 534.95 509.306 534.608 503.589C534.279 498.079 534.536 492.573 535.216 487.101L535.737 483.082L535.863 482.149ZM338.718 589.295C333.681 582.649 327.518 576.025 323.832 568.521C323.625 568.099 324.079 567.498 324.537 567.815C330.996 572.298 336.286 578.855 341.752 584.463C347.297 590.153 352.768 595.896 358.188 601.706C367.245 611.416 376.138 621.285 385.323 630.877C403.627 649.992 424.334 667.582 449.596 676.566C455.709 678.74 453.031 688.55 446.904 686.33C421.065 676.962 399.66 659.641 380.779 640.046C371 629.898 362.027 619.054 353.278 608.017C349.184 602.852 345.12 597.671 341.114 592.44L338.718 589.295ZM213.319 625.444C213.871 634.279 217.228 643.718 219.639 652.207C222.118 660.933 224.553 669.674 227.07 678.389C229.588 687.109 232.105 695.828 234.521 704.577C237.054 713.751 239.356 722.671 243.637 731.228C245.127 734.204 250.266 732.858 250.013 729.5C248.643 711.304 241.229 693.279 235.54 676.054C232.69 667.425 229.634 658.842 226.466 650.326L226.168 649.52C223.188 641.417 220.167 631.991 215.328 624.9C214.772 624.084 213.247 624.296 213.319 625.444ZM185.16 695.291L184.456 693.126C183.92 691.683 186.254 690.732 186.924 692.085C196.42 711.271 203.564 731.671 208.954 752.368C211.556 762.363 213.765 772.457 215.54 782.631L216.124 786.028L216.455 787.872C216.564 788.47 216.676 789.072 216.788 789.676C218.372 798.233 220.06 807.349 217.784 815.613C216.989 818.504 212.189 819.648 210.845 816.521C206.791 807.081 207.361 796.23 206.186 786.128C204.951 775.528 203.266 764.978 201.166 754.515C197.133 734.411 191.471 714.777 185.16 695.291ZM633.846 771.874C634.44 774.037 636.496 774.998 638.56 774.703L638.766 774.669C641.184 774.224 643.553 774.396 645.856 775.245C647.882 775.993 650.239 774.408 650.776 772.451C651.39 770.217 650.017 768.281 647.982 767.531C644.332 766.183 640.417 766.259 636.639 766.955C634.514 767.345 633.309 769.921 633.846 771.874ZM661.371 769.135L661.53 768.975C661.857 768.669 662.233 768.446 662.658 768.308C663.134 768.058 663.648 767.943 664.199 767.964L664.775 767.964L665.043 767.973C665.664 768.014 666.248 768.193 666.794 768.509L667.603 769.135L667.782 769.326C668.182 769.782 668.465 770.307 668.632 770.9L668.775 771.964L668.775 772.197C668.759 772.66 668.645 773.096 668.43 773.505C668.269 774 667.994 774.429 667.603 774.792L667.443 774.952C667.117 775.258 666.741 775.481 666.316 775.619C665.907 775.834 665.472 775.948 665.009 775.964L664.199 775.964L663.93 775.954C663.309 775.912 662.726 775.734 662.18 775.417L661.371 774.792C660.875 774.292 660.532 773.705 660.342 773.027L660.199 771.964C660.178 771.414 660.294 770.9 660.544 770.422C660.705 769.927 660.981 769.498 661.371 769.135ZM543.174 781.978C543.375 781.877 543.575 781.788 543.764 781.687C546.264 780.468 549.094 779.248 551.924 777.917C551.745 778.798 551.655 779.707 551.684 780.627C548.844 781.048 546.004 781.498 543.174 781.978ZM627.205 836.868C627.275 835.328 627.557 833.793 627.857 832.27L628.115 830.968C631.974 831.028 635.844 831.388 639.705 832.038C645.655 833.038 649.174 834.048 654.024 834.868C653.735 835.007 653.434 835.167 653.145 835.328L652.473 835.7C647.112 838.729 642.109 843.003 640.995 849.377C639.026 860.652 648.138 863.811 657.796 864.629L658.388 864.676L659.304 864.738C653.524 865.847 647.825 867.328 642.245 869.097C641.575 869.308 640.884 869.568 640.184 869.858C640.134 869.517 640.014 869.167 639.825 868.818C637.995 865.528 635.125 863.007 633.145 859.798C631.054 856.388 629.585 852.667 628.535 848.818C627.464 844.927 627.004 840.898 627.205 836.868ZM221.692 864.326C223.68 858.261 225.016 851.032 228.417 845.611C228.827 844.958 229.957 845.325 229.827 846.05C229.902 850.884 228.507 855.961 227.16 860.86C226.638 862.758 226.123 864.63 225.705 866.451C224.091 873.474 222.481 880.497 220.849 887.517L219.381 893.807C218.159 899.048 216.954 904.293 215.874 909.566C214.986 913.901 214.614 919.614 213.159 924.393C230.466 917.393 247.8 910.464 265.105 903.487C286.425 894.888 307.845 886.527 329.215 878.067C350.505 869.647 371.675 860.067 393.396 852.867C398.566 851.147 402.066 859.397 397.115 861.686C375.055 871.917 351.715 879.927 329.115 888.888L296.423 901.866C266.454 913.758 236.465 925.591 206.325 937.017C185.795 944.798 165.345 952.808 144.685 960.197C134.835 963.718 124.896 967.048 115.095 970.697C106.885 973.757 98.0047 978.298 94.9647 987.117C94.8047 987.577 94.1747 987.388 94.2447 986.917C95.4747 978.377 101.816 973.037 108.965 968.997C118.453 963.622 128.875 959.71 138.892 955.399L140.255 954.808C160.708 945.888 181.326 937.329 202.005 928.913C201.8 928.413 201.679 927.877 201.67 927.317L201.611 927.333C201.307 924.25 202.389 921.435 203.481 918.596C203.743 917.915 204.005 917.233 204.249 916.545L207.866 906.341C210.276 899.546 212.438 892.667 214.665 885.811C216.994 878.645 219.345 871.486 221.692 864.326ZM724.825 924.587C729.705 917.877 734.663 902.523 745.031 896.379L745.067 896.371C746.289 896.562 749.253 940.639 753.985 960.698L754.346 962.235C759.968 986.312 764.007 1010.16 764.174 1035.1C764.315 1057.26 759.875 1079.41 747.774 1098.23C737.695 1113.92 722.395 1126.76 703.995 1131.12C695.905 1133.03 686.724 1133.08 679.125 1129.3C675.524 1127.51 672.835 1123.49 668.895 1122.57C668.514 1122.48 668.134 1122.42 667.754 1122.39C667.616 1114.59 667.85 1106.78 668.134 1098.98L668.489 1089.41C669.199 1069.77 669.682 1050.19 668.724 1030.55C667.735 1010.26 665.785 989.978 662.985 969.858C661.545 959.478 660.045 949.068 658.205 938.748C656.884 931.388 655.854 923.408 653.634 916.058C654.325 916.167 655.014 916.257 655.695 916.347C661.384 917.058 667.174 917.058 672.774 918.457C677.706 919.686 681.948 922.091 686.227 924.694L687.767 925.637C688.275 925.95 688.788 926.269 689.304 926.591C695.735 930.596 702.821 935.01 710.585 933.837C714.504 933.248 717.615 931.718 720.205 929.587C720.264 934.377 720.674 939.198 721.674 943.888C723.245 951.246 725.945 958.174 728.902 965.039L729.754 966.999L730.615 968.957C734.155 976.978 738.094 984.828 740.828 993.197C741.219 993.284 741.592 993.37 741.948 993.452C745.938 994.372 747.841 994.811 750.217 990.361C750.42 989.98 750.659 989.673 750.918 989.414C748.532 982.659 745.465 976.124 742.335 969.707C738.445 961.728 734.235 953.888 730.875 945.658C728.964 940.998 727.315 936.148 726.054 931.257C725.504 929.127 725.224 926.837 724.825 924.587Z" fill-rule="evenodd"  fill="#000000" >
</path>
<path d="M601.439 163.38C573.865 104.994 510.738 96.9553 454.147 84.9173C398.303 76.7873 339.168 69.4463 284.166 85.6673C253.245 93.2423 241.168 130.068 246.048 159.129C248.833 177.238 257.076 194.377 264.105 211.16C278.076 245.626 286.94 282.525 286.955 319.841C285.996 344.227 282.554 372.061 310.578 382.39C337.245 395.651 339.498 431.599 372.889 451.995C386.391 479.344 423.17 481.751 449.641 488.095C466.372 491.297 483.292 493.654 500.258 495.176C549.384 501.471 588.684 487.236 614.4 443.474C631.609 416.841 644.424 386.089 641.258 353.811C638.105 319.821 632.852 286.009 629.074 252.065C625.362 222.444 613.702 190.995 601.439 163.38Z"   fill="#D08B5B" >
</path>
<path d="M443.08 20.4469C441.905 18.9189 440.641 17.4429 439.283 16.0289C437.273 13.9489 433.613 13.4179 431.133 14.9779C427.893 17.0179 425.053 19.4779 422.643 22.2679C420.573 22.2989 418.503 22.3379 416.443 22.3879C413.913 19.1989 410.593 16.9179 405.933 17.1089C400.853 17.3079 397.143 19.7879 394.423 23.4579L392.113 23.6179C391.603 22.7679 391.093 21.9179 390.543 21.0779C388.023 17.2189 383.573 16.9979 380.153 19.7389C378.063 21.4089 376.173 23.2679 374.473 25.2589C372.863 25.4379 371.263 25.6179 369.663 25.8189C366.783 22.8989 363.053 20.8479 358.923 20.6879C352.293 20.4379 348.343 24.0379 346.033 29.2079L345.963 29.2189C341.543 25.6879 335.773 23.7479 330.153 25.1379C325.203 26.3679 321.983 29.0779 319.963 32.5779L318.673 32.8479C314.623 31.3779 310.053 31.1989 305.563 32.9489C301.673 34.4579 298.343 36.9689 295.813 40.1089C295.063 40.3479 294.313 40.5879 293.573 40.8479C292.453 41.2389 291.383 41.6679 290.353 42.1489C288.533 41.8779 286.553 41.8589 284.423 42.1589C278.953 42.9089 274.503 46.3879 272.223 51.1879C269.543 50.8989 266.763 51.2479 264.123 52.4379C257.693 55.3479 253.353 61.7589 252.003 68.5779C251.563 70.7879 251.453 72.9689 251.613 75.1179C248.973 75.2079 246.813 76.0579 244.883 78.3879C242.543 81.1989 240.523 84.9889 239.443 88.4779C239.273 89.0489 239.123 89.6179 239.003 90.1989C235.803 92.9289 233.613 96.7789 232.863 101.188C232.413 103.799 232.373 106.208 232.653 108.469C228.473 111.138 225.203 115.159 223.823 120.208C222.133 126.338 222.963 132.168 225.413 137.418L225.243 137.958C221.823 139.848 218.913 142.719 216.873 146.838C212.326 155.999 216.584 163.448 223.991 169.293L224.553 169.728C224.573 169.819 224.593 169.909 224.603 169.998C222.183 172.888 220.393 176.319 219.503 180.088C217.313 189.359 220.923 195.489 226.923 199.878C222.823 204.958 220.773 211.558 222.513 218.179C224.253 224.759 229.133 229.688 235.033 232.688C235.113 232.978 235.203 233.279 235.293 233.569C234.213 235.868 233.513 238.418 233.333 241.248C232.773 249.788 237.693 257.489 244.743 261.958C244.993 262.469 245.253 262.969 245.523 263.458C243.603 267.348 243.283 271.668 245.803 276.359C247.623 279.759 250.673 282.138 254.113 283.728C255.213 286.078 256.923 287.989 258.993 289.378C258.563 292.188 258.683 295.098 259.503 297.978C261.103 303.549 264.473 307.808 268.743 310.618C268.523 311.109 268.293 311.588 268.093 312.098C265.463 318.859 272.743 325.558 279.223 324.478C278.013 327.338 277.033 330.308 276.333 333.359C272.203 351.449 277.123 374.859 294.533 384.529C298.813 386.899 303.363 387.899 308.173 388.518C313.343 389.179 319.193 389.208 323.333 392.819C330.113 398.739 332.553 409.489 336.843 417.128C342.473 427.159 349.793 436.399 358.253 444.179C362.703 448.279 367.513 452.038 372.543 455.378C372.928 455.634 373.32 455.9 373.718 456.17C378.125 459.158 383.236 462.624 388.373 459.368C389.673 458.538 390.683 457.078 390.603 455.478C390.353 450.888 387.703 448.819 384.003 446.649L383.003 446.056C379.348 443.863 375.811 441.456 372.493 438.779C365.653 433.248 359.383 426.808 354.263 419.638C349.837 413.447 346.507 406.824 343.268 400.021L341.813 396.949C338.323 389.569 333.663 382.438 326.003 378.909C317.823 375.138 307.683 377.319 300.113 372.239C293.723 367.949 290.333 359.958 289.163 352.609C287.023 339.299 291.923 325.688 302.193 317.319C305.153 316.268 308.093 315.159 311.003 313.938C313.293 312.969 315.583 311.978 317.823 310.909C320.853 310.638 323.913 310.808 326.823 311.388C332.603 312.558 339.543 314.529 344.423 318.549C342.213 317.569 340.053 316.449 337.933 315.498C336.323 314.779 335.143 316.799 336.563 317.838C339.953 320.348 343.903 322.719 346.763 325.828C347.963 327.128 350.073 326.978 351.293 325.828C356.273 321.114 354.488 314.804 352.785 308.783C352.118 306.426 351.463 304.113 351.233 301.958C350.853 298.458 352.103 296.509 355.053 294.618C359.613 291.688 364.473 289.578 368.423 285.719C375.973 278.348 378.583 267.918 379.413 257.728C379.966 250.857 379.847 243.942 379.728 237.025L379.728 237.024C379.637 231.679 379.545 226.334 379.763 221.009C380.273 208.509 380.733 195.168 383.753 182.978C384.953 178.159 386.883 174.239 391.643 172.199C397.193 169.828 403.733 169.228 409.623 168.179L412.472 167.678C439.077 163.06 465.885 159.891 492.823 158.018C524.409 155.836 556.093 155.45 587.72 156.771C592.039 158.767 596.075 161.395 599.683 164.571C608.894 191.664 615.989 219.37 620.603 247.649C625.823 279.628 629.053 312.128 631.503 344.429L631.588 345.571C632.828 362.336 633.336 379.445 629.963 395.998C627.253 409.279 622.163 421.848 615.133 433.429C600.863 456.929 578.663 475.799 552.573 484.808C536.803 490.248 520.133 492.328 503.503 491.159C486.443 489.969 470.803 484.649 455.413 477.489C447.283 473.708 440.283 485.009 448.273 489.708C475.373 505.688 510.823 508.438 541.043 501.458C570.313 494.688 596.223 477.498 614.533 453.779C633.893 428.688 642.913 398.359 642.893 366.828C642.885 352.889 641.682 338.951 640.331 325.058L638.794 309.429C637.228 293.734 635.296 278.099 632.793 262.518C627.773 231.286 620.461 199.417 606.514 170.776C609.026 171.556 611.974 169.773 612.887 167.246L613.099 166.685C615.223 161.345 619.227 158.362 622.458 153.788C624.036 151.556 624.831 149.187 624.978 146.773C625.061 146.5 625.145 146.229 625.213 145.949C625.305 145.733 625.395 145.515 625.484 145.296L626.011 143.977C632.171 140.342 635.257 133.323 633.522 126.52C635.094 125.021 636.491 123.365 637.629 121.53C642.3 116.208 643.69 108.356 640.793 101.776C643.355 99.6459 645.636 97.2099 647.433 94.3189C651.613 87.5979 652.373 78.3189 648.513 71.2789C645.693 66.1489 640.733 62.9979 635.273 62.1679C635.063 61.0489 634.833 59.9289 634.563 58.8279C636.493 51.9489 635.193 44.9289 629.363 40.0779C627.523 38.5489 625.433 37.3879 623.213 36.5689C622.993 36.3279 622.783 36.0879 622.563 35.8589C618.443 31.5089 613.513 28.4579 608.173 26.3189C605.133 19.1789 598.593 13.3779 590.703 12.8079C584.607 12.3739 579.32 15.3499 575.001 19.4859C572.271 16.6189 568.843 14.4099 564.939 13.2309C562.25 12.4189 559.274 12.2169 556.454 12.7289C552.168 12.7469 548.322 14.6069 545.501 17.8429C540.659 14.0699 534.817 11.6329 528.74 12.0649C524.392 12.3739 520.902 14.5949 518.743 17.7079C516.578 15.5109 514.052 13.8429 510.507 13.6449C506.535 13.4239 503.428 14.8859 500.965 17.2159C495.852 13.7899 489.653 12.4899 482.653 15.0489C481.673 15.4089 480.773 15.8279 479.933 16.2989C476.471 16.1719 472.77 16.1719 469.24 16.6249C467.678 15.6349 466.024 14.8869 464.317 14.3839C461.695 11.8709 457.375 10.7809 454.571 13.9589C450.2 14.8139 446.109 17.0509 443.08 20.4469ZM277.414 104.176C280.53 101.952 277.537 96.7458 274.385 98.9948C271.495 101.058 269.177 103.738 268.933 107.434C268.696 111.026 270.524 114.14 272.914 116.667C275.573 119.478 279.811 115.23 277.157 112.425C274.571 109.691 274.065 106.708 277.208 104.327L277.414 104.176ZM256.5 145.257C253.806 147.635 251.808 150.865 252.327 154.58C252.856 158.366 255.711 161.039 258.836 162.928C262.148 164.931 265.167 159.745 261.864 157.747L261.492 157.52C260.106 156.659 258.483 155.475 258.249 153.781C258 151.981 259.523 150.576 260.743 149.499C263.644 146.939 259.387 142.708 256.5 145.257ZM310.76 159.408C312.088 155.775 306.292 154.209 304.975 157.812C302.979 163.273 305.28 169.21 310.674 171.568C312.169 172.222 313.877 171.995 314.778 170.492C315.535 169.227 315.184 167.035 313.702 166.388C310.667 165.061 309.65 162.718 310.673 159.658L310.76 159.408ZM307.293 331.888C309.183 336.028 313.953 338.128 317.243 341.268C320.843 344.688 323.213 348.628 326.183 352.538C331.013 358.888 341.803 353.168 337.213 346.088C333.843 340.888 328.373 336.738 322.863 333.988C318.343 331.728 312.063 328.848 307.393 331.508C307.243 331.588 307.223 331.748 307.293 331.888Z" fill-rule="evenodd"  fill="#000000" >
</path>
<path d="M575.944 257.815C579.899 262.018 583.563 268.231 585.039 274.623C586.267 279.94 585.978 285.369 583.203 289.918C582.992 290.264 582.699 290.503 582.373 290.646C582.032 290.797 581.651 290.84 581.285 290.778C580.921 290.717 580.575 290.552 580.3 290.3C580.037 290.058 579.837 289.737 579.747 289.345C577.54 279.649 573.253 272.435 564.104 267.784C559.604 265.495 554.429 264.041 549.53 262.882C548.106 262.545 546.602 262.327 545.087 262.106C540.339 261.412 535.557 260.619 532.462 256.781C530.597 254.469 529.814 251.513 530.256 248.809C530.673 246.263 532.161 243.929 534.865 242.53C541.598 239.049 549.964 242.465 556.763 245.374C557.267 245.59 557.762 245.802 558.246 246.007C564.895 248.813 570.959 252.517 575.944 257.815ZM465.407 247.807C467.107 249.408 467.924 251.685 467.924 253.96C467.924 256.28 467.076 258.615 465.394 260.253C462.069 263.492 458.134 263.994 454.153 264.44C451.941 264.691 450.175 264.892 448.437 265.284C443.661 266.363 438.939 267.986 434.632 270.325C430.129 272.77 425.222 275.718 421.692 279.495C420.853 280.394 420.062 281.337 419.269 282.283C418.547 283.144 417.851 283.974 417.117 284.774C416.275 285.693 415.475 286.656 414.679 287.617C414.187 288.427 414.09 288.627 413.99 288.834C413.841 289.146 413.668 289.495 413.47 289.87C413.198 290.382 412.881 290.944 412.548 291.452C411.994 292.383 411.697 292.639 411.44 292.753C411.014 292.943 410.61 293.037 410.218 292.986C409.851 292.939 409.504 292.762 409.162 292.473C407.455 291.031 406.952 288.664 407.004 286.151C407.082 282.339 408.488 278.117 409.785 275.522C412.799 269.492 416.979 263.224 422.006 258.724C427.742 253.587 434.018 249.698 441.226 247.018C445.705 245.352 450.891 243.823 455.771 244.016C459.284 244.155 462.637 245.2 465.407 247.807ZM579.089 315.871C579.6 314.615 579.707 313.167 579.455 311.825C578.406 306.254 575.042 301.31 570.503 298.126C566.092 295.032 560.589 293.603 555.049 294.793C551.003 295.663 545.008 299.502 541.85 304.184C540.504 306.179 539.671 308.319 539.581 310.431C539.495 312.446 540.008 314.478 542.676 317.155C542.936 317.236 543.208 317.28 543.477 317.28C544.138 317.28 544.821 317.003 545.274 316.603C546.469 315.553 547.312 314.223 548.178 312.792C548.642 312.027 549.102 311.257 549.69 310.579C551.449 308.552 554.003 306.833 556.683 306.385C559.167 305.97 561.407 306.706 563.181 308.095C565.257 309.719 566.713 312.211 567.253 314.874C567.472 315.952 568.036 316.925 568.818 317.707C569.607 318.496 570.615 319.083 571.635 319.389C573.479 319.942 574.779 319.68 576.441 318.814C577.719 318.149 578.589 317.098 579.089 315.871ZM461.051 320.622C462.011 322.929 463.529 324.288 465.183 324.986C467.14 325.812 469.353 325.699 471.259 324.895C473.321 324.026 474.97 322.364 475.617 320.396C476.201 318.619 476.051 316.546 474.543 314.457C473.791 313.414 473.063 312.353 472.33 311.283C468.88 306.253 465.411 301.319 459.863 298.262C453.347 294.671 445.669 294.833 439.162 298.359C435.359 300.418 429.554 306.805 426.358 314.43C423.99 320.08 423.079 326.343 425.193 331.955C425.411 332.536 425.993 333.249 427.091 333.592C427.668 333.772 428.378 333.844 429.013 333.764C429.76 333.669 430.396 333.367 430.836 332.955C431.394 332.433 431.747 331.728 431.676 330.771C431.372 326.651 432.836 322.697 434.901 319.325C437.919 314.398 442.256 310.649 444.728 309.525C447.892 308.085 450.747 308.618 453.174 310.17C456.739 312.45 459.434 316.736 461.051 320.622ZM534.748 357.04C525.635 366.601 512.704 356.603 505.636 351.139C505.287 350.869 504.953 350.611 504.634 350.366C498.343 346.334 491.275 356.704 497.112 361.413C546.135 397.708 566.03 331.567 527.633 324.97C523.406 324.243 521.836 328.947 523.814 330.367C531.365 334.957 542.871 345.66 534.748 357.04ZM544.032 413.907C545.673 412.145 546.29 410.169 546.209 408.279C546.117 406.124 545.099 404.065 543.58 402.549C542.034 401.007 539.982 400.043 537.906 400.057C536.074 400.07 534.2 400.824 532.613 402.671C529.102 406.76 524.621 409.954 519.664 411.771C515.033 413.469 509.986 413.962 504.932 412.849C495.618 410.799 489.62 405.084 483.426 397.435C482.656 396.466 481.888 395.469 481.118 394.457C480.813 393.816 480.326 393.377 479.757 393.118C479.129 392.833 478.391 392.775 477.693 392.939C477.014 393.098 476.381 393.465 475.927 393.999C475.506 394.495 475.232 395.135 475.219 395.901C475.106 402.608 477.99 408.891 482.443 414.062C487.455 419.882 494.448 424.281 501.259 426.28C508.768 428.483 516.675 428.292 524.042 426.159C531.622 423.964 538.627 419.711 544.032 413.907Z" fill-rule="evenodd"  fill="#000000" >
</path>
</svg>
