<svg xmlns="http://www.w3.org/2000/svg" xmlns:xlink="http://www.w3.org/1999/xlink" width="822.2384033203125" height="1213.6237182617188" viewBox="0 0 822.2384033203125 1213.6237182617188" fill="none">
<path d="M450.293 1200.63C502.427 1196.73 554.721 1196.03 606.813 1201.02C637.594 1203.31 772.555 1213.62 783.582 1186.05C776.641 1039.25 762.586 891.195 719.466 750.005C701.733 699.872 686.502 658.262 651.892 616.776C640.984 605.449 617.46 581.693 603.981 573.945C592.303 567.234 587.422 569.628 580.717 558.292C574.054 545.769 569.139 524.855 559.678 516.019C550.045 507.022 535.768 510.241 518.073 513.139C521.324 469.208 501.046 458.02 473.11 449.666C424.005 430.925 375.509 440.34 363.15 500.117C340.234 500.117 327.362 509.978 313.446 519.454C307.757 523.327 311.714 533.196 304.919 536.24C292.348 540.716 270.132 539.62 258.028 545.129C202.984 570.178 153.959 606.504 121.762 659.556C49.5822 772.822 -9.53674e-07 1011.42 8.57996 1145.66C4.8208 1151.56 10.0191 1160.01 11.3404 1166.35C13.0083 1171.86 18.4093 1175.53 24.0461 1174.91C31.9119 1183.36 44.0783 1185.25 54.9033 1187C185.548 1206.84 318.563 1207.84 450.293 1200.63Z"   fill="#D08B5B" >
</path>
<path d="M326.096 509.727L325.926 510.587L325.895 510.721C325.767 511.217 325.461 511.757 324.864 512.522L324.602 512.845L322.898 514.894L322.472 515.435C320.648 517.795 319.097 520.362 317.925 522.998C317.113 524.822 316.696 526.417 316.217 529.303L316.085 530.124L315.753 532.292L315.562 533.45C314.843 537.61 314.102 539.424 312.51 540.777C312.408 540.863 312.3 540.937 312.184 541.001L311.065 541.006L310.616 540.886C308.977 539.331 308.239 537.166 308.3 534.301L308.393 529.993L303.656 531.632L302.546 532.005L301.322 532.427C299.252 533.15 297.022 533.969 294.559 534.909L293.053 535.487L291.003 536.284L289.161 537.009L278.063 541.436L277.025 541.846C275.348 542.505 273.93 543.051 272.628 543.539L266.43 545.855L264.507 546.565L262 547.481L260.447 548.059C249.609 552.128 239.502 556.651 229.993 561.748C209.317 572.831 189.86 587.281 172.292 604.402C140.337 635.538 114.958 674.486 94.1437 721.81C77.7785 759.018 64.9029 799.254 51.5485 851.446L50.3079 856.323C37.9571 905.158 28.8779 955.694 22.9506 1007.8C20.0798 1033.04 18.0506 1058.37 16.8676 1083.75C16.2624 1096.74 15.8801 1109.76 15.7206 1122.78L15.6939 1125.14L15.6671 1128.06C15.6514 1130.03 15.6398 1132.03 15.6322 1134.08L15.6216 1138.78L15.6237 1143.06L15.6278 1143.37C15.6316 1143.57 15.6374 1143.79 15.6459 1144.03L15.7765 1147.07L15.7987 1147.91C15.8275 1149.62 15.7282 1150.86 15.463 1151.82C15.1633 1152.91 14.5586 1153.99 13.3294 1155.71L12.1753 1157.29L11.6976 1157.96L11.4216 1158.35C11.1337 1158.77 10.8369 1158.97 10.5515 1159.02L7.2384 1159.62L8.22186 1162.85L8.33911 1163.24C8.48876 1163.75 8.61183 1164.21 8.71041 1164.65L8.8068 1165.09L8.94636 1165.54L9.05627 1165.86C11.1722 1171.87 16.8748 1175.95 23.1041 1175.98L23.2211 1175.97L23.4912 1176.24L23.8152 1176.55C30.0018 1182.34 37.9304 1185.11 50.5573 1187.26L52.1417 1187.53L54.7981 1187.96L58.4032 1188.5C177.445 1206.27 304.098 1209.66 450.834 1201.63C507.116 1197.42 558.196 1197.34 606.903 1202L617.731 1202.8L620.324 1202.98C622.014 1203.1 623.643 1203.21 625.318 1203.32L629.205 1203.56L633.862 1203.85C654.455 1205.08 674.192 1205.79 692.813 1205.8L695.209 1205.8L696.374 1205.8C734.697 1205.63 762.632 1202.34 776.821 1194.87L779.542 1193.43L778.041 1190.75L777.815 1190.33C776.94 1188.7 776.412 1187.23 776.145 1185.59L776.053 1184.99L775.971 1184.37C775.867 1183.53 775.785 1182.62 775.712 1181.55L775.659 1180.71L775.465 1177.13L775.408 1176.2L774.931 1169.33L774.119 1157.29L773.724 1151.74C772.921 1140.66 772.033 1129.55 771.061 1118.42L770.148 1108.09L769.871 1105C767.798 1082 765.888 1062.84 763.773 1044.32L762.932 1037.06C757.865 993.938 751.531 950.39 743.966 906.444L742.962 900.676L742.571 898.462C736.548 864.51 729.269 829.908 718.677 783.505L715.859 771.214L715.332 768.937L714.663 766.074C703.851 720.02 692.777 685.524 677.32 654.613L676.719 653.419L676.133 652.266C656.739 614.317 631.829 585.732 599.527 567.151L599.2 566.964L599.49 566.12L596.786 565.048L596.452 564.895L595.985 564.668C594.667 564.017 592 562.641 588.352 560.733L580.506 556.605L572.839 535.433L571.309 531.268C570.868 530.076 570.542 529.209 570.331 528.666L568.528 524.21L567.985 522.851C566.471 519.086 565.514 517.099 564.039 515.024C561.889 512 559.172 509.949 555.647 509L555.331 508.917L554.638 508.742L554.256 508.65C550.38 507.736 544.921 506.912 537.845 506.163L536.408 506.015L534.473 505.824L534.44 505.638L533.496 505.749L532.972 505.815C531.564 505.993 530.067 506.207 528.386 506.466L527.089 506.67L524.113 507.155L518.69 508.061L518.947 509.431L519.127 510.387L519.256 511.07L519.459 512.111C519.599 512.801 519.747 513.486 519.905 514.166C520.881 518.368 522.042 521.839 523.645 524.966L524.327 526.301L524.957 527.566L525.094 527.85C527.517 532.956 529.978 542.275 528.976 544.839L528.767 545.391L527.613 548.62L526.836 550.762L526.312 552.192C522.625 562.213 518.504 572.53 512.926 585.896L511.708 588.808L509.407 594.266L508.63 596.096C502.39 610.765 495.566 626.171 486.794 645.537L482.521 654.95L475.522 670.319L475.393 670.728L474.753 672.001L471.595 670.251L464.944 666.594L446.115 646.791L445.757 646.579L445.638 646.505C445.316 646.299 444.959 646.009 444.498 645.58L444.131 645.231L442.999 644.117L441.437 642.628L440.354 641.567L439.485 640.7L438.193 639.393L434.131 635.233C429.413 630.377 424.98 625.607 420.783 620.856C411.45 610.289 402.473 599.161 393.855 587.503C384.786 575.234 376.919 563.025 370.326 550.812C368.065 546.624 365.863 542.178 363.503 537.088L362.477 534.862L361.22 534.459L361.043 534.398C358.84 533.579 357.839 531.027 358.019 526.385L358.081 525.1L357.865 524.598L359.021 518.946L359.142 518.364C359.184 518.168 359.226 517.971 359.27 517.771L359.546 516.54L359.808 515.429L360.544 512.405L361.097 510.095L361.234 509.465L363.945 496.162L359.888 495.981L359.328 495.963C347.375 495.681 334.753 500.695 326.703 509.093L326.096 509.727Z"   fill="#FFCF77" >
</path>
<path d="M361.44 493.958L361.845 492.195C362.871 487.818 363.252 480.588 367.028 477.66C367.179 477.543 367.415 477.492 367.559 477.66C369.54 479.971 369.527 483.305 369.515 486.381L369.515 486.385C369.513 486.983 369.51 487.572 369.523 488.141L369.532 488.466C369.702 493.581 369.734 498.68 369.717 503.798L369.664 520.089C369.661 520.915 369.635 521.753 369.608 522.595L369.608 522.596L369.608 522.596C369.563 524.039 369.517 525.492 369.59 526.914L369.65 527.786C370.894 529.06 371.472 530.901 371.049 532.75C370.974 535.122 369.734 537.101 367.924 538.345L371.802 543.846L375.683 549.343C383.682 560.688 391.769 571.932 400.197 582.965C408.791 594.214 417.959 605.039 427.553 615.447C432.24 620.533 437.007 625.548 441.885 630.451C443.867 632.444 445.898 634.387 447.908 636.352L449.906 638.327C451.088 639.508 452.574 640.676 453.358 642.173C453.819 643.056 453.924 645.232 454.089 645.592C455.569 648.845 453.044 654.032 448.848 652.409L449.038 652.283C449.802 651.751 449.312 651.744 447.569 652.26C446.469 652.257 445.437 652.004 444.474 651.502L444.187 651.344C442.83 650.655 441.618 649.32 440.516 648.253L440.243 647.992C437.721 645.63 435.319 643.125 432.903 640.656C427.859 635.505 422.931 630.244 418.159 624.842C408.639 614.064 399.614 602.849 391.067 591.286C382.361 579.509 374.269 567.127 367.31 554.237C364.669 549.345 362.248 544.359 359.927 539.315C355.409 537.865 354.36 533.06 354.675 527.647C353.008 523.765 351.506 519.803 350.618 515.755C350.497 515.2 351.21 514.677 351.637 515.162C353.082 516.804 354.42 518.552 355.706 520.345C356.482 516.55 357.464 513.057 357.926 510.83L359.929 501.002C348.642 500.414 336.274 505.051 328.493 513.169C328.075 515.283 326.448 516.796 324.862 518.772C323.05 521.031 321.469 523.566 320.29 526.217C317.675 532.093 319.151 540.752 314.076 545.063C313.547 545.512 312.956 545.824 312.346 546.017C314.209 555.152 313.976 565.008 313.751 574.548C313.685 577.339 313.62 580.104 313.608 582.815L313.607 583.869C313.619 597.276 313.171 610.694 312.653 624.09L312.126 637.348C311.443 655.03 310.999 672.721 312.718 690.305C320.563 683.357 328.675 676.726 337.066 670.409C342.583 666.255 348.211 662.248 353.941 658.391L358.597 655.28C364.176 651.539 369.891 647.69 376 645.01C383.99 641.507 391.588 642.711 399.302 646.304C406.984 649.883 414.437 654.04 421.972 657.919C429.635 661.863 437.316 665.774 444.991 669.695C450.075 672.293 457.525 674.638 461.254 679.42C461.492 678.362 461.769 677.307 462.093 676.256C461.723 674.653 461.866 672.921 462.765 671.27C475.294 648.247 486.888 624.674 498.4 601.13C504.227 589.215 509.767 577.159 515.604 565.251L521.28 553.654C522.228 551.722 523.179 549.791 524.135 547.863C525.568 544.977 527.059 542.119 528.507 539.24C529.119 538.024 529.886 536.816 530.481 535.588L530.764 534.972C530.764 534.972 532.152 530.616 531.09 531.028L530.999 531.072C530.457 531.379 530.023 530.697 530.374 530.262C531.875 528.405 533.968 530.05 534.825 531.769C536.705 535.536 534.345 541.012 532.465 545.374C531.984 546.49 531.534 547.533 531.195 548.456L531.104 548.709C525.939 563.328 520.091 577.673 514.099 591.968C502.609 619.375 490.268 646.361 477.953 673.394L477.807 673.859C480.432 671.846 483.237 670.019 485.638 668.241C491.695 663.754 497.929 659.488 504.153 655.236C515.567 647.438 527.29 640.154 539.207 633.158L541.594 631.762C547.547 628.294 553.443 625.482 560.51 626.523C567.074 627.491 573.177 631.017 579.108 633.882L579.721 634.175L598.046 642.887C596.087 635.075 593.966 627.301 591.753 619.556C587.437 604.449 582.688 589.469 577.537 574.623C572.728 560.752 567.528 547.033 562.028 533.422L560.372 529.338C558.13 523.734 555.9 517.623 549.491 515.897C546.876 515.193 544.104 515.203 541.341 515.212C537.336 515.226 533.349 515.24 529.885 513.079C529.353 512.747 529.419 511.87 530.064 511.708L533.676 510.798C540.458 509.111 548.409 507.414 554.823 509.054C561.802 510.842 567.576 516.699 570.962 522.788C574.726 529.562 577.38 537.142 580.237 544.365L580.691 545.502C583.969 553.676 587.124 561.899 590.141 570.174C596.176 586.714 601.669 603.453 606.641 620.343C609.036 628.483 611.31 636.662 613.495 644.861C614.123 647.219 615.159 650.078 616.009 653.06C616.983 654.01 617.905 655.07 618.77 656.279C620.205 658.285 619.175 660.637 617.391 661.838C617.322 663.89 616.865 665.82 615.776 667.474C611.521 673.933 600.271 672.269 600.729 663.586C600.797 662.257 601.316 660.988 602.099 659.916L602.078 659.742L601.989 659.424C600.036 658.488 598.075 657.445 596.008 656.424L576.776 646.921C571.206 644.168 565.031 639.915 558.838 638.866C554.066 638.059 549.078 640.855 544.689 643.316C543.767 643.833 542.871 644.336 542.009 644.787L541.687 644.953C529.692 651.101 517.786 657.453 505.927 663.857C500.138 666.984 494.424 670.241 488.656 673.405C483.835 676.051 478.631 679.849 473.211 681.342C470.896 683.142 468.146 682.901 465.936 681.54C466.945 687.795 466.884 694.214 467.194 700.609C467.61 709.159 467.674 717.732 467.812 726.293L467.868 729.502C468.232 748.428 468.427 767.359 468.499 786.289C468.662 829.212 468.419 872.144 468.176 915.073L468.176 915.078C468.037 939.565 467.899 964.05 467.836 988.533C467.747 1022.4 467.077 1056.3 466.197 1090.15C465.823 1104.5 465.044 1118.83 464.201 1133.15L463.738 1140.96C462.757 1157.45 462.178 1174.12 459.126 1190.38C458.728 1192.5 455.138 1192.55 454.786 1190.38C451.977 1172.95 451.821 1155.14 451.281 1137.51L451.167 1133.99C450.518 1115.06 450.21 1096.14 450.276 1077.2C450.516 1009.77 452.269 942.374 453.703 874.958C454.424 841.086 454.909 807.199 456.029 773.338C456.589 756.395 457.223 739.463 457.975 722.527C458.311 714.966 458.633 707.412 459.136 699.861L459.363 696.625C459.519 694.514 459.645 692.429 459.798 690.363C454.057 692.46 448.73 689.527 443.528 686.663C442.547 686.123 441.571 685.585 440.596 685.084C433.523 681.445 426.452 677.8 419.375 674.168L412.292 670.543L398.118 663.31C397.576 663.034 397.045 662.758 396.522 662.486C390.887 659.554 386.241 657.137 380.012 660.632C355.489 674.39 332.954 692.696 312.532 711.905C308.616 715.589 300.341 714.599 299.349 708.425C295.341 683.48 297.429 658.193 299.497 633.142C299.616 631.707 299.734 630.271 299.852 628.837L300.649 619.015C301.616 607.284 302.668 595.553 304.071 583.869C304.698 578.643 305.322 573.42 306.014 568.203L306.546 564.292C307.41 558.109 307.974 551.963 309.816 546.033C309.235 545.845 308.676 545.537 308.176 545.063C302.638 539.809 305.308 530.692 307.835 524.442C310.33 518.273 314.135 512.889 318.9 508.255C319.939 507.243 321.404 506.592 322.876 506.558C334.429 498.904 347.103 495.084 360.294 499.262C360.664 497.491 361.042 495.722 361.44 493.958ZM507.237 517.547C507.943 526.572 509.539 542.739 521.154 543.24C523.773 543.353 526.189 541.737 527.526 539.585C530.363 535.02 528.728 531.096 526.622 526.936L525.938 525.599C524.311 522.424 523.256 518.954 522.451 515.488C520.692 507.917 520.297 500.416 520.135 492.687C520.748 489.935 516.465 486.891 514.102 490.314C508.773 498.037 506.509 508.252 507.237 517.547ZM236.77 551.835C246.805 547.613 257.343 544.166 268.06 542.201C278.658 540.258 289.21 540.529 299.906 539.695C300.76 539.631 300.726 540.914 299.906 541.009C287.97 542.394 276.44 547.251 265.169 551.379L264.204 551.731C252.818 555.862 241.717 560.666 231.034 566.392C210.147 577.588 190.967 592.024 174.009 608.55C106.304 674.522 75.4491 769.656 52.8401 859.058C40.2781 908.729 31.3451 959.24 25.5551 1010.14C22.6921 1035.31 20.6681 1060.58 19.4881 1085.89C18.8841 1098.86 18.5031 1111.84 18.3441 1124.82C18.2621 1131.47 18.2381 1138.12 18.2461 1144.77C18.2472 1145.61 18.2895 1146.52 18.333 1147.44C18.4469 1149.87 18.5689 1152.47 17.9791 1154.62C17.2231 1157.36 15.0911 1159.77 13.5141 1162.06C11.6451 1164.77 8.28609 1164.62 6.39109 1162.06L5.69229 1161.12C3.67126 1158.44 1.69378 1155.88 1.40509 1152.37C1.19034 1149.76 1.23013 1147.1 1.26969 1144.45L1.26969 1144.45C1.28705 1143.28 1.30436 1142.12 1.30009 1140.97C1.26809 1133.37 1.36209 1125.77 1.51409 1118.17C1.80709 1103.6 2.38109 1089.04 3.23409 1074.5C4.96609 1044.99 7.81709 1015.53 11.8991 986.247C19.1551 934.197 30.0311 882.644 44.2771 832.06C57.7171 784.341 73.6391 736.763 96.3211 692.561C117.381 651.521 145.009 613.342 181.465 584.66C198.418 571.322 216.873 560.206 236.77 551.835ZM713.59 778.371L712.559 773.887C695.13 698.213 668.268 611.065 595.663 570.624C594.861 570.177 595.567 569.031 596.373 569.41C635.118 587.586 664.841 619.475 685.755 656.32C707.411 694.471 719.754 737.787 730.395 780.124L730.779 781.654C742.126 826.944 751.774 872.702 760.46 918.572C769.257 965.023 776.318 1011.76 781.998 1058.69C784.808 1081.9 787.313 1105.15 789.267 1128.44C790.243 1140.08 791.13 1151.73 791.927 1163.38C792.245 1168.04 792.545 1172.7 792.802 1177.37L792.987 1180.87C793.012 1181.37 793.042 1181.87 793.073 1182.37C793.236 1185.05 793.399 1187.72 792.739 1190.35C792.062 1193.05 790.633 1195.5 789.376 1197.97C786.89 1202.87 780.075 1202.07 777.396 1197.97L776.618 1196.78C774.841 1194.04 773.365 1191.49 772.808 1188.07C772.269 1184.76 772.249 1181.29 772.007 1177.95C771.562 1171.8 771.183 1165.65 770.751 1159.5C769.844 1146.55 768.825 1133.61 767.697 1120.68C765.466 1095.15 763.073 1069.65 760.134 1044.19C754.912 998.953 748.359 953.833 740.634 908.953C733.086 865.111 723.544 821.713 713.59 778.371ZM477.705 748.935C476.344 749.377 475.168 750.133 474.174 751.202C473.105 752.196 472.349 753.373 471.907 754.733C471.219 756.039 470.905 757.449 470.961 758.959L471.354 761.875C471.874 763.733 472.815 765.346 474.174 766.715L476.395 768.43C478.105 769.422 479.951 769.921 481.93 769.928L482.277 769.934C483.657 769.934 484.95 769.616 486.157 768.983C487.516 768.54 488.693 767.784 489.687 766.715C490.756 765.721 491.512 764.545 491.955 763.185C492.641 761.877 492.957 760.469 492.899 758.959L492.507 756.043C491.987 754.185 491.046 752.572 489.687 751.202L487.467 749.488L487.123 749.296C485.509 748.431 483.779 747.996 481.93 747.991L481.583 747.984C480.204 747.984 478.912 748.301 477.705 748.935ZM576.133 781.986C565.596 782.593 555.125 783.529 544.654 784.852C534.502 786.133 523.605 787.219 513.918 790.57C512.524 791.053 512.842 792.91 514.254 793.057C521.667 793.829 529.332 793.543 536.908 793.261C539.837 793.151 542.753 793.043 545.636 792.996C555.796 792.832 565.972 792.736 576.133 792.779C586.316 792.824 596.493 793.114 606.666 793.569C611.92 793.805 617.172 794.097 622.42 794.449C623.437 794.517 624.474 794.635 625.516 794.754C629.57 795.216 633.711 795.687 637.155 793.277C640.012 791.276 641.338 786.82 638.328 784.164C634.719 780.979 630.829 780.978 626.403 780.976C625.744 780.976 625.072 780.976 624.388 780.965L621.237 780.923C617.037 780.877 612.836 780.868 608.636 780.898C597.795 780.974 586.956 781.365 576.133 781.986ZM674.623 818.508C676.983 823.476 678.478 828.876 679.63 834.388C685.712 826.696 691.906 818.987 698.303 811.641C698.892 810.965 699.847 811.831 699.481 812.55C693.897 823.497 687.673 834.366 681.556 845.035C682.046 847.992 682.532 850.925 683.091 853.784C685.474 865.97 688.393 877.936 690.296 890.238C697.136 934.457 700.687 979.156 703.734 1023.77C706.79 1068.55 707.181 1113.34 707.64 1158.21C707.68 1162.1 704.689 1166.61 700.681 1167.35C698.846 1167.68 697.473 1167.62 695.642 1167.35C691.471 1166.73 688.862 1161.96 688.683 1158.21C687.487 1133.13 685.878 1108.09 684.014 1083.06C680.71 1038.67 678.691 994.173 676.022 949.743L675.082 934.214C674.073 917.388 673.15 900.551 672.85 883.7C672.759 878.646 672.832 873.594 672.905 868.542L672.905 868.536C672.993 862.429 673.081 856.325 672.88 850.224C672.822 848.481 672.745 846.713 672.666 844.928C672.282 836.17 671.881 827.022 673.767 818.62C673.851 818.241 674.45 818.145 674.623 818.508ZM474.827 866.664C474.479 867.277 473.814 868.732 473.585 869.764C473.062 872.111 473.103 873.133 473.359 874.979L473.558 876.355C474.04 878.078 474.913 879.575 476.174 880.845C477.443 882.106 478.94 882.979 480.664 883.461C483.567 884.261 486.831 883.688 489.281 881.932C489.972 881.654 490.59 881.253 491.129 880.717C491.958 880.227 492.618 879.566 493.108 878.737C493.418 878.341 493.725 877.943 494.03 877.545L495.14 874.916L495.532 871.99L495.14 869.065C494.799 867.633 494.143 866.386 493.17 865.323C492.681 864.496 492.022 863.838 491.196 863.35C490.51 862.667 489.7 862.195 488.768 861.934C487.91 861.437 486.984 861.186 485.991 861.184C484.528 860.856 483.066 860.921 481.603 861.38C478.746 862.255 476.315 864.048 474.827 866.664ZM145.489 883.341C153.927 892.078 163.602 899.043 174.313 904.521C176.068 891.659 178.481 878.867 182.975 866.946C183.26 866.189 184.486 866.016 184.693 866.946C187.303 878.698 187.561 890.8 187.96 902.831C188.353 914.699 188.337 926.621 188.164 938.496C187.526 982.139 186.328 1025.75 185.292 1069.38C184.774 1091.21 184.288 1113.04 183.915 1134.87C183.774 1143.06 183.656 1151.24 183.557 1159.43L183.437 1170.23C183.377 1175 183.251 1179.72 182.669 1184.49C182.285 1187.63 181.467 1190.62 179.735 1193.31C178.506 1195.22 176.754 1196.19 175.047 1197.48L174.727 1197.73C172.549 1199.45 170.255 1199.46 168.098 1197.73L167.472 1197.23C165.411 1195.62 163.631 1194.36 162.315 1191.82C160.485 1188.27 160.192 1184.42 159.881 1180.52C159.523 1176.04 159.616 1171.5 159.709 1166.98C159.739 1165.54 159.768 1164.1 159.783 1162.66C159.905 1150.75 160.07 1138.84 160.279 1126.93C161.046 1083.26 162.562 1039.58 165.325 995.986C166.627 975.453 168.392 954.853 170.759 934.402L171.21 930.569C171.928 924.552 172.583 918.428 173.321 912.284C162.304 904.535 152.62 895.133 144.362 884.467C143.754 883.682 144.755 882.581 145.489 883.341ZM478.37 986.293L478.266 986.088C476.012 981.754 476.618 976.848 479.923 973.25C483.167 969.715 488.738 969.455 492.761 971.593C493.741 972.115 494.641 972.952 495.505 973.65C497.682 975.41 498.537 978.585 498.657 981.26C498.776 983.905 497.381 987.046 495.505 988.872L495.05 989.313C493.929 990.403 492.323 991.351 490.755 991.639C488.226 992.104 486.102 992.09 483.747 991.096C481.723 990.242 479.98 988.87 478.793 987.008L478.601 986.693C478.519 986.562 478.443 986.429 478.37 986.293ZM476.596 1091.77C477.222 1090.29 478.097 1088.98 479.288 1087.87C481.568 1085.75 484.359 1084.55 487.488 1084.53C489.381 1084.52 491.492 1084.93 493.116 1085.98L495.286 1087.66C495.874 1088.41 496.459 1089.17 497.042 1089.93C498.399 1091.7 498.579 1094.56 498.296 1096.67C498.232 1098.07 497.814 1099.38 497.042 1100.6L495.39 1102.73C493.802 1104.03 492.478 1104.95 490.555 1105.58C489.55 1105.9 488.582 1105.97 487.617 1105.92L487.295 1105.9L487.488 1105.93L487.15 1105.89C486.836 1105.86 486.521 1105.83 486.205 1105.78C485.99 1105.76 485.774 1105.74 485.559 1105.71C485.352 1105.69 485.152 1105.69 484.943 1105.7C482.499 1105.93 480.042 1104.55 478.307 1102.96C476.744 1101.52 475.341 1098.48 475.559 1096.32L475.652 1095.42C475.817 1093.9 475.952 1093.3 476.596 1091.77ZM478.157 1176.16C478.651 1174.39 479.544 1172.86 480.835 1171.56C482.135 1170.27 483.668 1169.37 485.433 1168.88C489.018 1167.89 492.943 1168.93 495.57 1171.56C498.196 1174.19 499.236 1178.11 498.248 1181.7C497.754 1183.46 496.861 1184.99 495.57 1186.29C494.363 1187.49 492.955 1188.35 491.347 1188.86L490.972 1188.97L490.386 1189.22C488.589 1189.7 486.791 1189.7 484.995 1189.22C483.277 1188.73 481.786 1187.87 480.52 1186.61C479.263 1185.34 478.394 1183.85 477.912 1182.13Q477.188 1179.44 477.912 1176.74L478.157 1176.16Z" fill-rule="evenodd"  fill="#000000" >
</path>
<path d="M271.419 343.06C278.001 384.476 345.744 428.062 351.1 435.731C408.183 517.463 475.415 503.176 527.076 503.176C578.736 503.176 619.276 448.841 638.422 399.882C647.025 377.886 628.547 345.485 628.547 330.393C628.547 300.827 648.096 262.69 645.025 229.602C640.601 181.936 572.204 75.2183 420.634 82.6721C312.482 87.9906 255.026 239.895 271.419 343.06Z"   fill="#D08B5B" >
</path>
<path d="M365.188 23.2072C352.308 18.4282 337.138 22.7172 328.988 33.8572C313.048 29.9872 295.318 39.8072 290.179 55.3872C279.679 56.5472 270.548 67.5072 273.718 77.6572C260.938 70.6172 245.698 82.2672 244.218 95.9072C238.488 99.2072 232.998 103.107 230.088 109.257C227.908 113.867 227.548 118.678 228.918 123.137C222.368 127.497 216.298 133.007 215.019 141.097C214.288 145.727 215.118 150.297 217.358 153.987C206.288 162.647 201.248 177.487 205.759 191.167C200.588 196.707 196.458 203.397 196.259 211.167C196.118 216.527 198.038 222.077 201.638 226.057C196.788 233.207 192.738 240.928 192.278 249.767C191.908 256.847 194.118 263.477 198.418 268.678C192.148 279.597 194.408 294.147 202.958 303.347C198.208 314.647 201.378 328.317 210.128 336.827C209.499 339.147 209.357 341.545 209.579 343.944C208.964 346.09 208.72 348.358 208.864 350.625C209.374 358.587 214.339 364.161 220.845 367.566L221.212 368.094C219.796 373.376 220.214 379.183 223.109 384.536C226.22 390.286 231.916 394.41 238.232 396.212C238.886 400.876 240.821 405.368 244.005 408.895C247.818 413.118 252.68 415.625 257.866 416.652C258.554 421.913 260.871 426.976 264.835 430.9C269.152 435.174 275.112 437.31 281.137 437.425C282.949 442.176 286.137 446.443 290.8 449.64C298.001 454.577 307.315 455.121 315.268 452.075C315.683 452.194 316.101 452.3 316.517 452.41C321.745 455.745 327.826 457.594 334.482 457.711C339.453 457.798 344.6 456.771 349.246 454.712C353.594 457.49 358.951 458.568 363.823 457.21C364.274 458.225 364.704 459.246 365.099 460.277C367.208 465.847 368.708 471.627 370.668 477.247C373.269 484.687 376.099 490.397 384.548 491.477C387.548 491.867 390.808 489.507 392.248 487.067C395.47 481.552 393.351 476.414 391.187 471.167C390.917 470.514 390.647 469.859 390.386 469.201L390.009 468.227C387.898 462.637 385.938 457.007 383.498 451.547C379.228 442.047 373.078 433.747 366.269 425.917C359.828 418.517 352.448 412.017 345.308 405.307C338.708 399.117 332.748 392.457 326.938 385.567C330.958 384.947 333.528 383.237 335.088 378.777C335.588 377.347 334.958 375.867 334.038 374.807C330.923 371.184 326.863 371.267 322.632 371.353C320.615 371.394 318.559 371.435 316.548 371.077C310.908 370.077 305.358 367.697 301.019 363.897C292.088 356.087 288.769 344.327 290.228 332.787C291.568 322.207 296.048 313.407 305.728 308.428C309.458 306.507 313.978 305.027 318.099 304.257C319.228 304.047 320.349 303.928 321.478 303.867C322.599 305.457 324.488 306.537 327.259 306.467C327.411 306.464 327.56 306.451 327.71 306.444C335.469 309.675 345.265 310.13 351.455 304.411C352.042 303.975 352.556 303.458 352.986 302.87C353.475 302.659 353.965 302.425 354.458 302.138C364.192 296.457 370.173 286.231 370.627 275.325C375.775 270.695 379.751 264.75 381.242 257.916C382.288 253.124 381.726 248.35 379.857 244.462C381.63 240.98 382.714 237.103 383.118 232.779C383.364 230.152 383.136 227.42 382.421 224.858C386.415 222.083 389.826 218.483 392.291 214.308C404.327 218.576 418.043 217.598 429.194 211.246C435.296 215.408 443.214 217.031 450.551 216.106C455.575 215.472 460.271 213.704 464.562 211.114C468.579 212.686 472.918 213.517 477.13 213.659C482.819 213.852 488.347 212.121 493.337 209.491L493.784 209.241C495.949 209.354 498.126 209.207 500.275 208.828C503.285 211.147 506.8 212.822 510.335 213.596C518.194 215.318 526.2 213.361 532.554 208.825C543.067 215.226 557.653 214.632 568.093 208.085C577.409 213.84 589.624 213.357 599.062 207.907C603.411 211.94 608.873 214.726 614.748 215.873L614.278 219.178C612.978 228.377 611.988 237.577 611.778 246.867C611.358 265.678 612.509 284.477 614.578 303.167C616.349 319.167 619.179 335.117 620.808 351.057C620.759 351.817 620.718 352.567 620.718 353.327C620.708 354.787 620.958 356.117 621.378 357.317C622.688 373.797 622.398 390.267 617.958 406.777C605.708 452.397 565.118 490.447 516.788 487.727C513.988 487.567 511.188 487.347 508.388 487.067C506.868 486.907 505.349 486.747 503.828 486.567L501.898 486.327L501.838 486.317L501.738 486.307L501.538 486.277L500.888 486.197C494.338 485.277 487.808 484.107 481.358 482.637C475.118 481.207 469.128 479.277 463.088 477.197L462.639 477.045C459.051 475.852 455.709 475.214 451.888 475.857C451.558 475.907 451.228 476.007 450.888 476.057L450.759 476.067L450.185 476.106C449.422 476.154 448.668 476.183 447.908 476.167L447.685 476.167C444.212 476.232 442.202 479.645 442.849 482.817C444.009 488.517 446.628 493.357 451.668 496.497C456.172 499.301 461.653 500.908 466.851 502.301L468.868 502.837C481.408 506.157 494.368 508.087 507.269 509.377C517.548 510.397 527.398 510.767 537.638 509.267C551.868 507.187 565.808 502.207 578.218 494.937C603.308 480.227 622.548 456.647 633.128 429.678C637.29 419.087 639.978 407.935 641.209 396.626C642.16 396.606 643.153 396.479 644.194 396.202C656.585 392.903 663.625 379.856 661.786 368.098C664.868 364.94 667.21 361.019 668.593 356.763C669.589 353.696 669.994 350.635 669.887 347.642C673.136 345.76 675.952 343.06 678.044 339.435C680.979 334.349 681.786 328.726 680.851 323.361C687.44 317.051 691.084 307.368 689.874 298.406C694.417 294.062 697.413 288.187 697.967 281.626C698.461 275.766 696.78 270.118 693.583 265.513C695.29 261.18 695.437 256.418 694.282 251.91C696.919 244.831 697.434 236.87 693.976 229.89C693.028 227.98 691.765 226.338 690.272 225.028C690.419 224.191 690.583 223.342 690.778 222.457L690.891 221.928C691.993 216.499 691.274 212.18 689.269 206.997C687.683 202.895 688.01 199.03 688.351 194.993C688.494 193.305 688.64 191.586 688.648 189.807C688.679 183.347 685.828 176.107 680.308 172.997C681.778 163.867 678.648 154.197 671.438 148.817C670.388 139.657 666.378 130.997 658.488 126.967C659.238 118.987 658.548 110.867 654.398 103.787C650.828 97.6782 645.009 93.0572 638.308 91.2872C636.438 74.4072 620.608 60.9372 603.838 60.3972C599.798 47.6782 585.438 38.9372 572.238 40.9872C561.538 27.0772 543.298 20.7072 526.498 25.5172C521.648 19.5972 514.148 16.0872 506.578 14.8672C499.624 13.7522 492.816 14.6191 485.994 15.4876C480.702 16.1614 475.401 16.8362 470.019 16.5872C458.269 16.0472 447.998 8.75719 436.188 8.05719C428.058 7.57719 418.908 10.0572 413.488 16.2572C396.918 10.7472 379.349 12.3572 365.188 23.2072ZM299.35 333.948C299.369 334.458 300.01 334.788 300.389 334.378C303.149 331.438 306.909 330.138 310.729 330.758C306.839 332.518 303.1 336.388 304.709 340.828C305.719 343.608 308.699 345.978 311.85 344.878C314.289 344.018 316.079 342.418 316.899 339.928C316.901 339.92 316.915 339.877 316.935 339.813L316.935 339.812C317.016 339.554 317.205 338.954 317.189 338.898C317.379 338.508 317.609 338.128 317.829 337.758L318.127 337.252C318.424 336.75 318.722 336.26 319.059 335.788C321.069 338.188 322.569 341.088 323.889 343.828C327.569 351.508 340.189 344.148 335.27 337.178C330.029 329.748 322.569 321.628 312.619 322.168C306.319 322.508 299.029 326.978 299.35 333.948Z" fill-rule="evenodd"  fill="#000000" >
</path>
<ellipse cx="513.2384033203125" cy="305" rx="51" ry="52"   fill="#FFFFFF" >
</ellipse>
<path d="M486.477 356.658C461.132 346.004 450.82 319.135 456.925 293.158C461.515 273.622 477.172 250.181 498.7 249.861C504.894 247.74 511.59 246.738 518.104 247.059C532.066 247.749 545.367 254.117 554.521 264.728C563.164 274.745 567.861 287.308 567.799 300.562C567.734 314.177 564.158 329.509 557.424 341.427C543.275 366.468 510.227 366.642 486.477 356.658ZM499.76 264.78C504.051 262.763 508.854 261.522 513.581 261.183C523.096 260.501 532.513 263.198 539.991 269.201C557.95 283.618 557.311 307.267 549.571 327.182C546.003 336.363 539.734 343.728 530.029 346.412C520.679 348.999 510.508 348.209 501.18 345.932C491.44 343.554 481.729 339.076 475.876 330.587C470.61 322.949 468.425 313.419 468.383 304.245C468.326 291.787 471.827 277.744 479.208 267.388C479.378 270.549 482.795 272.718 486.188 271.202L486.958 270.875C489.024 270.038 491.192 269.458 493.194 268.465C495.44 267.349 497.479 265.852 499.76 264.78ZM504.682 307.797L504.467 304.834C504.205 300.939 504.191 297.273 506.665 293.896C510.9 288.115 518.497 287.808 522.679 293.896C525.137 297.474 524.962 300.931 524.758 304.964C524.743 305.249 524.729 305.538 524.715 305.83L524.674 306.821C524.551 310.311 524.567 313.986 523.26 317.212C521.581 321.353 518.318 324.006 513.696 323.457C510.975 323.132 508.696 321.508 507.374 319.268L507.328 319.294C505.474 315.592 504.996 311.837 504.682 307.797ZM505.469 402.217C519.427 401.426 531.701 396.323 544.947 392.826C543.847 386.535 543.509 379.672 545.377 373.83C545.619 373.072 546.672 373.074 546.914 373.83C549.112 380.681 550.403 387.39 553.685 393.832C554.496 394.667 555.077 395.718 555.388 396.853C556.921 399.4 558.629 401.818 560.54 404.107C562.944 406.987 564.693 409.692 563.419 413.623C562.791 415.56 561.169 416.799 559.125 416.892C553.513 417.146 550.316 411.794 548.331 406.214C534.443 410.826 519.151 413.437 504.595 412.29C492.763 411.356 479.874 408.392 469.28 402.35C469.343 404.632 469.43 406.916 469.51 409.201C469.566 410.817 469.768 412.491 469.97 414.175C470.297 416.894 470.627 419.639 470.355 422.202C469.919 426.32 467.581 429.506 463.344 430.144C459.697 430.692 455.183 428.257 454.472 424.351C453.799 420.65 454.692 417.859 455.726 414.631C455.959 413.905 456.198 413.156 456.429 412.37C457.538 408.588 458.408 404.724 459.364 400.901C460.328 397.041 461.117 393.148 461.832 389.237C462.356 386.374 461.978 383.148 462.992 380.451C463.072 380.24 463.278 380.089 463.511 380.156C468.906 381.706 469.212 390.392 469.19 395.053L469.189 395.283C469.181 396.233 469.19 397.183 469.2 398.132L471.261 398.583C482.578 401.031 493.57 402.892 505.469 402.217Z" fill-rule="evenodd"  fill="#000000" >
</path>
</svg>
