<?xml version="1.0" encoding="UTF-8"?>
<svg width="3871px" height="2367px" viewBox="0 0 3871 2367" version="1.1" xmlns="http://www.w3.org/2000/svg" xmlns:xlink="http://www.w3.org/1999/xlink">
    <!-- Generator: Sketch 58 (84663) - https://sketch.com -->
    <title>composition-24</title>
    <desc>Created with Sketch.</desc>
    <g id="composition-24" stroke="none" stroke-width="1" fill="none" fill-rule="evenodd">
        <rect fill="#FFFFFF" x="0" y="0" width="3871" height="2367"></rect>
        <circle id="Oval" fill="#D9F9FF" cx="3525" cy="1628" r="1332"></circle>
        <g id="Illustrations/sitting-reading" transform="translate(1353.000000, 296.000000)">
            <path d="M1627.84766,717.833333 C1609.07223,754.532194 1589.23668,790.255086 1569.20894,826.285855 C1558.60456,845.358795 1524.40931,924.248377 1515.57801,927.262487 C1506.06786,930.507503 1447.81104,896.258393 1431.09078,889.549767 C1401.3793,877.625716 1373.14727,866.337489 1342.11217,858.985402 C1307.36044,850.752789 1272.33282,844.682947 1236.28537,847.743238 C1220.49814,849.085579 1194.36606,852.901765 1210.0572,830.728511 C1221.49542,814.558845 1232.57492,799.669945 1248.11106,787.989116 C1259.41909,779.485572 1275.99367,763.888556 1289.23287,758.208237 C1303.12302,752.247751 1323.60953,753.568541 1338.53812,753.91952 C1354.67562,754.301287 1431.59689,778.295689 1435.82811,753.286893 C1443.67367,760.423467 1448.24276,757.663296 1457.23215,761.148457 C1467.36536,765.076959 1473.68273,772.703056 1483.74465,777.308886 C1490.27281,780.298365 1502.30619,792.11466 1509.56279,792.185471 C1519.20934,792.280913 1521.80696,784.2946 1528.73499,778.398768 C1544.25564,765.187794 1564.92193,756.493366 1581.76309,745.015736 C1596.59248,734.905077 1610.71202,724.366469 1627.84766,717.833333 Z M1458.85731,427.75 C1457.53831,444.503287 1462.06013,460.070283 1461.95151,477.30859 C1461.90496,484.831042 1461.56357,492.350404 1463.84776,499.597908 C1465.89918,506.094711 1464.46535,517.766096 1465.55469,524.56874 C1446.35946,518.726869 1410.698,510.062962 1391.09932,517.940683 C1372.36342,525.472402 1370.00685,560.299612 1369.3458,577.238258 C1368.89579,588.782981 1374.02279,606.568095 1370.1372,617.62162 C1368.29303,622.867039 1368.30979,624.498137 1368.4295,624.928342 L1368.43744,624.954667 C1368.1077,624.765191 1366.63479,624.715894 1361.25805,628.594822 C1355.99759,632.385396 1349.71919,634.476854 1344.5208,638.662859 C1335.0675,646.287257 1333.44737,654.927285 1328.7828,665.97772 C1324.25167,676.709957 1312.1802,686.248971 1298.70475,685.859719 C1309.53601,666.23338 1324.57663,647.902962 1315.94576,624.850587 C1309.43459,607.451636 1320.84721,587.03361 1329.82567,570.505842 C1332.79884,565.031598 1365.75193,523.094488 1351.1499,520.138025 C1341.66867,518.216479 1319.90529,562.733157 1315.74037,570.505842 C1304.12703,562.655924 1298.91158,552.981055 1307.8497,541.158294 C1314.71467,532.078834 1323.14381,524.315417 1329.82567,514.914669 C1340.67555,499.656604 1351.24922,481.445166 1364.135,467.892396 C1386.76582,444.095499 1426.27043,427.895197 1458.85731,427.75 Z M1368.43744,624.954667 L1368.4573,624.967884 C1368.57315,625.048997 1368.49971,625.139207 1368.4394,624.96064 L1368.43744,624.954667 Z M1762.99369,401.748726 C1777.45494,415.599208 1795.74691,427.087305 1809.72157,441.622447 C1821.95444,454.347249 1838.42713,475.750577 1844.23828,492.749876 C1814.42008,498.495467 1764.87566,516.093888 1753.00231,547.378521 C1706.62774,504.818591 1688.6881,582.626528 1679.48633,615.163286 C1652.34591,603.422297 1657.75756,564.333829 1658.11707,541.511837 C1658.39601,523.408447 1669.42635,501.980447 1643.13204,500.497017 C1623.48259,499.392926 1604.40031,507.39296 1586.67861,514.884124 C1564.56523,524.231889 1541.36888,538.21602 1523.50772,554.277768 L1504.89844,539.794363 C1535.42637,522.659365 1551.33848,489.89756 1569.20894,459.898977 C1574.90852,450.335329 1582.52247,439.700384 1586.67861,429.362639 C1589.55475,422.213804 1591.57858,407.784218 1594.73055,401.427985 C1599.6894,391.435653 1648.12499,388.684678 1660.95601,386.109494 C1694.82807,379.312241 1735.314,375.238207 1762.99369,401.748726 Z" id="Accent" fill="#FF5678"></path>
            <g id="Ink" stroke-width="1" transform="translate(167.199168, 81.229936)" fill="#000000">
                <path d="M1588.0754,542.582374 C1600.5876,541.942646 1613.04413,544.736436 1625.55633,543.518789 C1614.69243,534.058841 1603.83162,524.601984 1592.96772,515.145127 C1588.16818,523.569765 1587.81873,533.153331 1588.0754,542.582374 L1588.0754,542.582374 Z M1291.23391,348.132703 C1258.84941,348.274865 1219.346,364.53695 1196.84816,388.28726 C1184.92973,400.87477 1175.08016,417.776584 1164.99866,431.918603 C1158.23848,441.406365 1151.63603,450.563446 1143.42857,458.90155 C1131.46065,471.053303 1134.88713,473.831641 1148.37036,482.982541 C1152.63799,474.987479 1175.26571,432.243103 1184.75036,434.165379 C1199.16134,437.08897 1171.32898,482.240827 1168.28906,487.865493 C1159.28684,504.507708 1144.74906,527.75427 1151.28039,545.305084 C1159.89915,568.474384 1147.40242,581.679989 1136.55088,601.42195 C1147.94669,601.752631 1149.06926,597.308527 1152.99672,587.59207 C1158.04057,575.103455 1163.54519,564.670008 1174.21117,556.035217 C1182.4712,549.350517 1195.98227,546.535093 1199.86334,538.46277 C1204.66288,528.483622 1201.65079,508.778746 1202.04045,497.677755 C1202.63111,480.809936 1202.67441,440.933522 1221.26643,433.439117 C1240.746,425.586217 1275.77149,432.987908 1294.81501,438.804184 C1292.43689,423.938993 1284.93761,414.228717 1285.03966,397.710122 C1285.15099,380.418908 1289.91342,364.99125 1291.23391,348.132703 L1291.23391,348.132703 Z M1042.44346,623.997879 C1059.38409,618.635903 1075.44337,612.986512 1092.87262,609.33357 C1111.1121,605.50756 1112.33054,601.131446 1122.61305,585.493636 C1130.40612,573.64166 1139.86294,564.401136 1137.6549,549.88517 C1136.23854,540.573565 1131.13903,536.036746 1132.67291,525.566212 C1133.6223,519.076212 1136.65294,511.98975 1138.84242,505.81807 C1141.52669,498.246403 1147.09007,489.65797 1134.15421,489.284022 C1127.01057,489.07696 1126.66112,492.84425 1121.82756,499.170455 C1112.90574,510.855546 1102.63869,521.46515 1093.14476,532.671217 C1076.65563,552.128855 1059.17071,572.835046 1040.76424,590.84325 C1020.50228,610.659384 1003.01427,634.561127 989.917594,659.930846 C987.499271,664.616008 972.79141,692.21087 979.066063,697.622293 C984.827363,702.591779 1016.87479,691.002493 1022.71959,689.645774 C1047.9419,683.792412 1076.57213,681.70325 1100.40282,671.072012 C1112.54392,665.654408 1139.33721,659.189131 1148.92701,650.80776 C1157.84265,643.01667 1157.44062,624.143131 1152.26689,613.159579 C1137.78788,622.165227 1033.11034,656.141922 1042.44346,623.997879 L1042.44346,623.997879 Z M1357.58937,469.131027 C1374.4929,453.867165 1394.47345,441.622698 1415.34463,432.54906 C1434.01397,424.43347 1457.20451,415.387646 1477.97365,416.796903 C1503.85156,418.549203 1493.03714,439.388284 1492.94437,457.133798 C1492.82376,480.680136 1482.50104,514.601203 1510.62411,526.817855 C1519.8057,494.213331 1539.15538,417.115222 1585.51173,459.837965 C1597.35905,428.488174 1639.61167,417.87857 1669.36448,412.121012 C1663.97118,396.282322 1647.59029,381.945603 1636.23777,370.056541 C1622.03399,355.18517 1610.82064,337.754884 1596.59211,323.164746 C1568.48142,294.352236 1517.55746,303.605122 1481.96914,310.787389 C1470.0909,313.182508 1435.65298,316.192631 1429.89787,324.913955 C1426.28894,330.384098 1428.30524,343.747317 1425.63024,350.435108 C1421.94399,359.650908 1415.64769,368.192984 1410.59457,376.704155 C1392.16027,407.76035 1373.40744,439.017427 1341.86099,456.800027 L1357.58937,469.131027 Z M1460.7485,636.440136 C1444.05836,642.843603 1431.78119,653.549012 1416.97746,662.563931 C1399.02868,673.494946 1377.98122,683.733693 1361.87247,697.235984 C1355.97819,702.174565 1352.66614,710.704279 1344.52981,711.257474 C1337.4542,711.739589 1326.6707,703.522012 1320.39605,700.64787 C1309.87232,695.817455 1299.81865,688.499208 1289.24235,684.194174 C1280.54938,680.655579 1276.70232,681.37875 1269.1814,674.49935 C1264.96325,699.600198 1188.22013,676.137303 1172.12065,675.754084 C1157.22724,675.40177 1136.7921,677.166431 1122.93158,683.149593 C1109.72357,688.851522 1099.39776,701.401946 1088.09164,709.953293 C1072.59519,721.67856 1057.80693,733.536717 1046.39566,749.767898 C1030.74149,772.022417 1054.35881,765.724027 1070.10883,764.37967 C1106.05898,761.307736 1141.0288,769.868355 1175.68629,778.129198 C1206.66371,785.512346 1237.25767,794.36965 1266.91151,806.342155 C1283.58929,813.076303 1301.14224,819.266527 1316.82732,828.018755 C1325.09663,832.635927 1338.50874,843.934708 1347.99648,840.677346 C1356.69874,837.691946 1365.37007,812.754893 1370.64585,802.794289 C1380.89125,783.46027 1391.66856,764.45075 1402.24795,745.30525 C1422.2285,709.140498 1442.02041,673.278612 1460.7485,636.440136 L1460.7485,636.440136 Z M1255.36727,1115.08382 C1265.65287,1109.17792 1282.42033,1110.76951 1293.79449,1108.29404 C1306.64686,1105.49716 1319.57036,1100.9418 1331.82588,1096.19174 C1344.23602,1091.38296 1355.96273,1086.46292 1367.30287,1080.44576 C1372.48897,1077.69524 1379.40067,1074.98489 1384.19402,1071.16815 C1388.05654,1068.09004 1389.46362,1062.37266 1393.02616,1059.58196 C1402.31599,1052.2977 1405.04665,1056.86852 1406.29293,1042.81612 C1407.64434,1027.55226 1399.07816,1018.9082 1388.41527,1007.4858 C1378.86877,997.262503 1366.4679,988.426831 1354.47215,981.235293 C1349.16544,978.055193 1343.49692,974.476422 1338.08197,971.441574 C1329.88998,966.842946 1318.91166,959.200198 1314.6131,969.068089 C1323.56585,971.35195 1325.53885,982.783622 1317.45819,986.890865 C1313.02047,989.146912 1306.30359,985.833922 1301.29995,988.232131 C1293.57492,991.934522 1286.14368,1002.26598 1279.53195,1007.82884 C1257.82889,1026.09665 1237.07212,1032.94514 1208.66455,1034.41312 C1149.30739,1037.47269 1087.14843,1030.70455 1028.93239,1021.90905 C1013.9493,1019.64373 998.990947,1022.09757 983.868693,1021.55674 C969.154647,1021.03136 953.812827,1017.81417 939.349273,1015.32943 C911.489071,1010.54537 882.12283,1006.6081 854.695576,999.567998 C821.525578,991.053736 788.241157,980.039279 757.099829,965.776731 C727.226419,952.092103 693.462663,929.482179 659.909196,927.73915 C674.227404,941.75446 695.683068,947.153522 712.905119,956.384774 C726.982113,963.925536 748.994424,968.768312 757.888412,981.195117 C763.677545,989.282893 766.581389,1004.13881 770.954163,1013.62348 C775.790811,1024.11874 780.253267,1034.78088 784.731186,1045.43376 C789.22766,1056.15153 793.912775,1066.87548 797.565,1077.91466 C799.825607,1084.76316 800.79974,1098.9608 806.140463,1103.64596 C814.66026,1111.11874 843.176068,1114.43482 854.658467,1116.91956 C876.095576,1121.56455 900.547858,1120.94645 922.414822,1121.26786 C931.451065,1121.40075 940.558434,1122.63385 949.192654,1122.80074 C961.318289,1123.03252 960.1617,1120.93409 959.98852,1110.41102 C959.889561,1104.09099 960.016353,1092.59751 968.471208,1097.80187 C974.232508,1101.34974 970.267942,1117.05863 969.201035,1122.64003 C1017.46545,1127.44572 1067.82349,1129.86247 1115.85906,1128.25543 C1163.09987,1126.6731 1208.70475,1120.58177 1255.36727,1115.08382 L1255.36727,1115.08382 Z M1473.33492,1004.32115 C1481.85162,943.18226 1492.23,881.023512 1503.84538,820.675784 C1515.58445,759.694508 1529.69856,699.266427 1545.57538,638.513846 C1535.08876,636.004379 1524.60214,633.501093 1514.11552,630.994717 C1513.72587,643.79547 1509.39639,654.915003 1507.55018,667.657036 C1505.00197,685.244936 1500.1313,702.322908 1497.21509,719.852089 C1491.67645,753.173603 1481.41249,785.778127 1472.37006,818.271393 C1463.15446,851.398208 1460.07434,885.526336 1451.60711,918.820036 C1444.62738,946.248012 1441.06174,976.460508 1437.16521,1004.65801 C1427.71148,1073.0657 1414.24061,1141.60628 1403.98902,1210.04797 C1394.37449,1274.21553 1393.40963,1339.68726 1393.96319,1404.45437 C1394.30336,1443.99702 1400.3368,1483.42531 1400.02137,1523.02049 C1399.94405,1532.80803 1400.76665,1542.56466 1401.27691,1552.33675 C1401.63564,1559.2316 1397.93085,1578.34311 1401.07281,1584.11921 C1403.06128,1587.77524 1411.60582,1591.14695 1414.63027,1596.2246 C1419.41434,1604.25675 1420.42249,1613.85886 1428.10732,1619.93783 C1434.33558,1594.82153 1431.39154,1561.67308 1430.03084,1536.04067 C1428.71345,1511.34467 1431.27093,1485.82043 1431.77501,1460.74431 C1432.75842,1411.5532 1435.36538,1363.08217 1437.88885,1313.86634 C1440.65353,1259.89426 1448.51772,1204.60873 1456.19946,1151.04151 C1463.18538,1102.3356 1467.84576,1052.76436 1473.33492,1004.32115 L1473.33492,1004.32115 Z M1245.38782,237.59255 C1242.01082,237.277322 1238.63383,236.965184 1235.25683,236.649955 C1235.76091,243.764231 1234.25796,255.285527 1239.27397,258.997189 C1243.07464,261.809522 1250.77183,260.88547 1255.37964,261.784798 C1270.48334,264.736203 1287.9868,267.205493 1302.97917,261.828065 C1308.80542,259.738903 1305.06351,256.466089 1313.08541,257.825898 C1322.74943,259.466941 1319.22091,260.996727 1322.01033,267.023155 C1324.15961,271.674322 1325.26671,279.589031 1327.70669,285.173522 C1330.97235,292.646293 1337.59027,306.018784 1334.76065,314.647393 C1332.01143,323.034946 1321.75056,325.569136 1317.39015,335.06926 C1314.14614,342.130998 1314.91307,352.39756 1313.22767,360.176289 C1310.97943,370.551017 1308.13744,380.88557 1306.88189,391.451908 C1305.30163,404.762589 1305.84281,420.381855 1322.34122,422.446293 C1337.65212,424.365479 1348.59952,419.445441 1358.86657,408.298093 C1378.47602,387.017074 1400.86561,356.974555 1412.38512,330.20485 C1413.73035,327.077289 1417.04241,321.857474 1416.58162,318.510489 C1415.66934,311.887598 1415.27041,318.590841 1413.17061,313.992212 C1411.16668,309.594465 1408.02163,305.60466 1406.17232,300.724798 C1399.52038,283.192527 1394.80434,264.816555 1392.13862,246.258246 C1390.92946,237.85215 1390.52434,229.548041 1390.73154,221.058503 C1390.79957,218.159636 1392.54064,209.456855 1391.50157,207.47277 C1390.44394,205.46087 1384.92694,204.533727 1383.20752,202.537279 C1380.01917,198.837979 1374.54238,188.39217 1371.01076,185.623103 C1366.66582,182.220489 1356.94614,184.915384 1355.18033,178.147241 C1352.35689,167.315122 1419.17313,149.671593 1387.95758,135.217436 C1364.65261,124.425493 1328.90657,178.978579 1320.75787,136.051865 C1319.34461,128.616179 1322.03507,118.522684 1318.7725,111.708184 C1315.16666,104.176693 1305.35111,101.36127 1298.49507,97.6959648 C1289.74643,93.0231648 1280.9081,88.2205648 1272.40686,83.1027362 C1266.57443,79.5950457 1258.17215,70.2803505 1251.96553,69.4273791 C1254.4086,82.0705172 1249.72348,94.6023981 1249.64617,107.220812 C1263.0923,103.583322 1272.34501,103.50606 1285.61487,109.974427 C1291.93591,113.052541 1315.74804,130.523003 1303.68426,138.926008 C1293.90891,133.149908 1283.45322,128.140246 1272.55839,124.743812 C1268.25984,123.402546 1262.89438,121.579165 1258.32368,121.48645 C1247.71337,121.273208 1249.20704,122.382689 1245.22391,130.380841 C1241.38305,138.085398 1242.20874,158.179674 1233.77863,163.099712 C1225.06091,168.186636 1231.78397,161.066179 1224.34036,162.710312 C1220.09438,163.649817 1215.46802,166.805193 1211.58077,168.588398 C1216.90603,174.367589 1227.6555,179.643031 1231.18712,186.06195 C1236.3392,195.419912 1234.55175,214.775565 1235.35889,225.014312 C1242.1036,222.60065 1249.20394,222.501755 1256.04143,220.709279 C1262.46761,219.021879 1271.38016,211.719084 1272.05123,222.455398 C1272.79961,234.418631 1253.88287,237.59255 1245.38782,237.59255 L1245.38782,237.59255 Z M1333.1742,552.567703 C1333.69992,542.23006 1334.27513,531.895508 1335.42553,521.601131 C1336.20174,514.687736 1342.76709,494.636727 1339.05611,488.563941 C1335.02041,481.959593 1321.49388,481.539289 1314.9842,479.953874 C1302.50602,476.912846 1290.5381,474.421922 1277.85582,472.413112 C1266.19097,470.568098 1255.20027,470.178698 1243.44574,469.644046 C1230.64594,469.066127 1227.47305,465.669693 1224.64342,479.771536 C1222.41993,490.860165 1219.43568,502.409274 1219.02129,513.763684 C1218.63163,524.419646 1221.85091,533.669441 1211.28698,540.851708 C1234.48371,540.851708 1264.6942,520.204236 1285.86227,538.666741 C1316.14079,565.068679 1263.44793,572.674341 1249.55339,578.502979 C1261.10383,584.115284 1278.25166,588.522303 1283.68825,601.341598 C1289.78972,615.709222 1280.93594,621.819093 1267.38776,622.96875 C1268.66186,628.506884 1273.53871,632.104198 1274.99218,638.764174 C1277.11981,648.526989 1270.21738,645.29435 1279.02478,652.847474 C1290.6216,662.789536 1314.49559,669.43715 1328.71793,675.769536 C1332.04854,677.259146 1335.41934,678.656041 1338.82726,679.963312 C1344.15562,684.704103 1348.08926,683.801684 1350.63128,677.252965 C1357.92645,672.635793 1364.42067,662.335236 1370.89325,656.342803 C1385.29186,643.010489 1401.18414,631.309946 1418.29486,621.683112 C1411.2007,618.74716 1402.71801,625.382412 1395.91145,622.152865 C1390.40992,619.541412 1392.48189,614.79135 1389.18839,611.234212 C1390.50888,606.595408 1389.11417,604.898736 1385.00426,606.144198 C1382.95085,606.363622 1381.03969,606.014398 1379.27079,605.102708 C1375.82885,600.83785 1374.28261,599.440955 1374.05377,592.85515 C1373.81255,585.867584 1377.86061,583.401384 1379.41304,577.807622 C1384.46307,574.367922 1384.34865,570.986941 1379.06978,567.67395 C1376.89885,564.126084 1375.71443,560.278441 1375.5196,556.127931 C1374.51455,540.715727 1388.58535,534.50387 1399.31628,526.351193 C1380.10267,524.240398 1380.83559,501.710827 1394.13018,491.861479 C1407.9103,481.650546 1437.0879,485.83196 1453.75021,488.134365 C1457.21688,488.610298 1466.57784,493.079127 1470.08162,490.229708 C1472.2309,488.483589 1470.71249,473.720384 1470.81145,471.115112 C1471.0372,465.199941 1472.47521,458.147474 1471.532,452.263208 C1469.55899,439.941479 1473.74003,446.147155 1464.86769,445.804112 C1443.7522,444.985136 1416.86304,463.413646 1398.28648,472.100974 C1377.49261,481.826703 1364.12998,483.322493 1363.91351,507.434389 C1363.70631,530.266827 1357.30177,553.015822 1354.50616,575.483584 C1353.28463,585.295846 1352.41255,636.27325 1334.4483,617.461522 C1327.48403,610.164908 1331.94648,598.943389 1332.46293,589.943922 C1333.16802,577.560384 1332.75053,564.985236 1333.1742,552.567703 L1333.1742,552.567703 Z M171.568636,1316.84865 C181.848058,1318.67203 198.590774,1312.77231 209.804126,1312.15421 C229.413576,1311.07564 249.607506,1309.20899 268.818026,1305.12956 C283.847505,1301.9371 300.973689,1299.12786 309.079094,1284.58407 C316.324787,1271.58553 318.885365,1255.30799 322.788082,1241.12271 C324.860047,1233.59122 330.206956,1222.66947 330.206956,1214.87838 C330.206956,1204.7478 328.840076,1206.74425 318.273053,1201.19994 C304.898053,1194.18456 291.884875,1184.40938 277.45843,1180.42885 C273.094933,1179.57587 268.728344,1178.74145 264.358662,1177.92247 C258.705599,1174.64347 255.514154,1176.2567 254.77505,1182.75288 C249.258056,1188.56916 246.023316,1199.29002 241.393865,1206.09216 C230.839212,1221.60017 218.305369,1232.1696 201.930658,1241.11344 C172.465457,1257.20246 145.010372,1269.61999 113.451558,1280.13997 C96.0594196,1285.9377 80.0217901,1294.07184 63.0223977,1300.46294 C49.4030918,1305.58386 30.6069654,1307.14146 20.1450871,1318.53914 C8.34107023,1331.39861 26.4846823,1336.0745 36.5692773,1344.76801 C44.8323984,1351.89156 44.9932076,1353.52642 56.2962419,1350.06817 C64.7170797,1347.49072 72.1823395,1342.5645 80.2691889,1339.22369 C107.968581,1327.78584 141.494216,1320.174 171.568636,1316.84865 L171.568636,1316.84865 Z M804.615867,1520.82007 C794.293151,1518.58566 783.967342,1516.35434 773.644626,1514.1261 C783.797255,1533.07381 805.150867,1560.79847 789.824509,1582.72849 C784.097226,1590.92135 774.569279,1593.25775 766.058759,1597.41444 C755.75769,1602.44573 746.248297,1608.88937 736.510061,1614.8849 C696.354137,1639.60253 655.545699,1664.66938 613.234314,1685.87932 C626.479429,1690.15345 646.846538,1693.11103 660.487491,1689.38701 C676.373589,1685.04798 691.08145,1675.09046 707.391218,1670.73598 C736.649222,1662.92944 767.447285,1656.28183 797.172255,1652.27657 C821.469913,1649.00376 882.289824,1656.39926 879.3365,1619.86675 C876.531616,1585.18233 855.808871,1552.0926 849.642455,1517.80377 C834.510924,1521.16312 820.075202,1520.57593 804.615867,1520.82007 L804.615867,1520.82007 Z M1419.94934,965.677836 C1431.71625,907.94156 1438.74547,849.225603 1452.62454,791.90345 C1459.54862,763.307274 1464.42856,734.318608 1471.19183,705.71625 C1474.33998,692.40866 1476.7181,678.97127 1479.78275,665.688403 C1482.88761,652.241741 1489.56737,639.830389 1491.09506,625.929427 C1479.85078,628.710855 1477.25,654.457612 1473.84209,664.143165 C1467.58908,681.913403 1460.77015,698.988284 1452.73587,716.001355 C1439.96391,743.043022 1426.41264,769.132822 1412.00475,795.349331 C1396.81446,823.002912 1380.76755,849.59646 1361.78897,874.848741 C1355.55452,883.14667 1347.09348,889.649031 1343.07325,898.750484 C1336.75221,913.06866 1334.09576,930.13427 1328.05923,945.033455 C1332.3114,947.190608 1343.29281,947.72835 1348.50674,948.757479 C1358.20478,950.670484 1364.99897,952.370246 1374.31353,956.981236 C1390.72226,965.103008 1404.50856,974.729841 1415.47142,989.341612 C1418.22683,981.841027 1418.94428,973.61727 1419.94934,965.677836 L1419.94934,965.677836 Z M962.586208,1406.19122 C962.391382,1350.58737 961.602798,1294.50759 962.515081,1239.31478 C962.765572,1223.98911 964.014936,1207.45506 966.238434,1192.24683 C967.633144,1182.68798 975.846786,1162.3681 970.447306,1157.78493 C965.833318,1153.8662 941.476903,1156.44675 935.499128,1156.30768 C923.9054,1156.03881 912.348782,1155.5227 900.733407,1154.65118 C900.733407,1175.25848 908.786239,1198.65956 912.528146,1219.04435 C916.01647,1238.06005 918.883204,1257.18082 921.762308,1276.28306 C927.993666,1317.64908 929.76566,1359.58684 936.532018,1401.06412 C942.661325,1438.67213 950.748174,1476.12252 955.207538,1513.72434 C957.653694,1534.36563 962.604763,1553.83872 966.451815,1574.46765 C968.461931,1585.2256 975.788029,1629.53066 985.016005,1633.88824 C986.967363,1617.99392 978.998028,1598.80206 977.5693,1582.73158 C976.097277,1566.13882 974.95615,1549.43479 972.265688,1532.75549 C969.105168,1513.17424 967.509445,1493.10777 966.297191,1473.28546 C965.558087,1461.15534 965.332335,1449.06231 964.283983,1436.94146 C963.526324,1428.14596 960.195717,1414.81674 962.586208,1406.19122 L962.586208,1406.19122 Z M1252.43868,662.641193 C1252.82215,656.58695 1237.14634,656.831098 1234.22704,649.871346 C1228.30493,635.738598 1241.80363,638.28206 1250.10386,636.820265 C1247.14435,628.961184 1191.7301,631.822965 1204.64123,610.606846 C1213.59707,595.886908 1247.55874,618.416479 1256.63519,604.428984 C1262.60059,595.240998 1246.36504,593.976993 1239.92649,593.056031 C1230.23773,591.668408 1207.4121,596.152689 1208.16357,583.583722 C1209.10987,567.791389 1253.48394,556.891279 1265.9312,552.252474 C1264.55195,541.438898 1211.14472,556.810927 1203.4166,561.193222 C1185.92241,571.116741 1172.51958,588.917884 1169.95282,608.703112 C1166.96239,631.72407 1178.63961,649.852803 1201.63842,655.502193 C1211.22822,657.857136 1218.3162,658.119827 1227.18854,661.661512 C1233.02715,663.988641 1251.92224,669.795646 1255.92391,663.92065 C1254.76114,663.494165 1253.60146,663.067679 1252.43868,662.641193 L1252.43868,662.641193 Z M1565.96104,519.456341 C1566.84549,509.625536 1575.12408,491.119765 1565.58685,484.66067 C1552.23968,475.621027 1546.71032,490.517122 1543.68587,499.46405 C1539.98726,510.388884 1524.44133,537.130774 1538.0359,543.939093 C1541.19642,545.521417 1556.1826,543.679493 1558.82668,542.634912 C1566.18989,544.554098 1568.56491,541.797393 1565.96104,534.358617 L1565.96104,519.456341 Z M1240.24811,1313.34096 C1239.41004,1286.47236 1251.4429,1254.1707 1258.26183,1227.85529 C1265.99305,1198.03838 1270.06585,1167.62809 1278.25475,1138.13877 C1269.14429,1139.23589 1259.95033,1140.13213 1250.94811,1141.9586 C1238.66785,1144.45261 1238.44828,1144.06012 1239.32964,1156.10371 C1240.64704,1174.18917 1238.92143,1191.92233 1237.9875,1210.00161 C1236.11654,1246.20036 1240.67487,1282.99557 1237.64423,1318.96562 C1240.34706,1319.65171 1241.21296,1317.77579 1240.24811,1313.34096 L1240.24811,1313.34096 Z M1580.26688,609.172865 C1609.77228,613.68805 1638.04997,623.039831 1664.89893,635.605708 C1679.69956,642.531465 1696.00005,649.973331 1712.53867,652.739308 C1730.91421,655.814331 1750.39997,654.371079 1769.16517,655.557822 C1775.77999,655.975036 1793.16904,659.189131 1799.61996,655.298222 C1806.00904,651.444398 1805.50806,644.914222 1805.80803,637.129312 C1806.58424,617.106117 1797.51707,597.500136 1789.36528,579.535198 C1782.37317,564.122993 1777.08502,552.35446 1766.23349,539.096317 C1752.29875,522.067793 1740.16384,503.691822 1727.11355,485.918493 C1717.27326,472.521279 1707.33092,459.315674 1697.30199,445.933912 C1690.12742,436.353436 1690.4676,433.055898 1679.65318,434.128293 C1669.00575,435.185236 1658.2841,441.477446 1648.25517,444.81207 C1633.36795,449.763012 1615.34185,452.479541 1601.76584,460.39425 C1592.98936,465.512079 1592.59662,466.454674 1592.69867,475.38615 C1592.79454,483.705712 1595.47881,493.851746 1600.45462,500.360289 C1610.7959,513.87185 1627.93754,521.023212 1642.6485,527.763541 C1651.15902,531.660631 1658.51295,537.189493 1666.08953,542.566922 C1674.2506,548.364655 1690.71809,551.779631 1696.96491,558.38707 C1715.14872,577.631465 1682.04676,573.827089 1672.79714,573.246079 C1652.83823,571.991346 1632.98757,572.182955 1612.88023,572.167503 C1590.93286,572.15205 1569.16176,571.132193 1547.52364,571.846093 C1534.85064,572.263308 1520.30977,565.838208 1512.09922,555.126617 C1508.12538,549.937708 1506.57604,545.033122 1501.37758,539.649512 C1494.56483,532.600136 1488.63963,525.173722 1480.35177,519.719031 C1466.79122,510.793736 1442.15029,505.743898 1426.00752,509.075431 C1431.78738,509.882046 1458.97342,519.134931 1447.0055,530.764393 C1445.54894,532.179831 1428.06093,533.106974 1424.26027,534.853093 C1417.40113,538.002289 1408.75454,542.579284 1404.73122,549.229989 C1416.44556,547.267536 1459.89188,544.996036 1437.72804,567.466889 C1432.28836,572.983389 1416.66821,578.487527 1429.95972,584.35325 C1433.012,585.700698 1439.12275,583.793874 1443.0533,585.008431 C1448.89501,586.81636 1453.6698,591.652955 1459.1435,594.230412 C1474.66778,601.55175 1496.06469,606.066936 1512.26622,604.462979 C1534.66818,602.240927 1558.01335,606.240003 1580.26688,609.172865 L1580.26688,609.172865 Z M986.175687,1286.25911 C986.939531,1318.53914 985.773664,1351.01077 986.463288,1383.43914 C987.1993,1418.07101 991.643201,1452.01062 993.761554,1486.29327 C995.663432,1517.01879 999.813548,1547.1602 1003.18436,1577.74046 C1005.12335,1595.35309 1007.35921,1612.19618 1010.34037,1629.67592 C1013.13288,1646.03381 1013.60913,1660.44779 994.049155,1664.84554 C956.651729,1673.25781 950.840949,1619.47116 943.61381,1596.8087 C932.824128,1562.98653 925.906238,1527.48005 920.559331,1492.4186 C910.607713,1427.11993 897.374968,1362.72986 892.210517,1296.87799 C889.031442,1256.32785 884.420546,1216.19184 881.804304,1175.67878 C881.290951,1167.73935 883.316529,1155.50725 876.342974,1151.97174 C872.146472,1149.84858 860.596039,1149.83004 855.301704,1148.29098 C840.550548,1144.0014 826.943612,1137.68447 812.551185,1131.12957 C822.765664,1184.52682 826.139566,1237.65828 833.802745,1291.52219 C837.866271,1320.10292 845.646964,1349.71895 852.388582,1377.85156 C859.374507,1407.00093 860.926935,1438.3878 868.985952,1466.90363 C872.536125,1479.47259 875.542021,1484.59351 870.38994,1497.49316 C864.0689,1513.32876 868.26231,1517.11768 876.18835,1532.66896 C890.766326,1561.28059 901.896182,1595.04713 899.425286,1627.30243 C897.408985,1653.64565 877.499564,1667.43536 852.836993,1674.54345 C821.986358,1683.43166 789.682255,1682.3809 758.646071,1692.47439 C731.605379,1701.2668 704.131738,1707.76298 677.873444,1719.37081 C667.284774,1724.04979 657.224919,1729.60337 645.467289,1730.46253 C629.34307,1731.63382 618.469892,1722.27895 603.239401,1720.32886 C593.720731,1719.1143 579.782899,1723.65421 574.299922,1713.67815 C569.951888,1705.76962 574.872032,1688.5124 580.330269,1682.14602 C595.659719,1664.25526 626.358822,1648.66689 647.032087,1638.10983 C670.859687,1625.94262 693.914166,1610.71276 715.99142,1595.01005 C729.372604,1585.48829 743.019742,1576.35284 756.391649,1566.81563 C765.236158,1560.50179 768.597689,1560.46161 767.694684,1550.43302 C766.974135,1542.43486 763.368297,1534.67777 762.73743,1526.48801 C762.255002,1520.21434 764.453759,1511.66299 761.488065,1507.56811 C759.307863,1504.54872 751.118962,1502.41938 747.899684,1500.13243 C736.126592,1491.78814 733.451592,1481.46595 728.104685,1468.77336 C715.960495,1439.9454 702.007201,1411.92715 690.280496,1382.8674 C665.101479,1320.47377 649.738012,1254.86606 628.863735,1191.19916 C607.537955,1126.1539 588.46969,1057.86983 576.724431,990.386193 C561.00842,995.16716 546.17686,1016.32456 533.661571,1026.792 C516.751861,1040.9402 499.427757,1054.62174 482.84585,1069.15625 C455.665996,1092.98382 428.145968,1116.15621 405.685246,1144.69058 C394.86464,1158.43393 386.004669,1173.22495 376.207675,1187.66365 C370.548427,1196.00485 365.272647,1205.44625 359.14334,1213.38259 C358.15993,1214.65587 358.132098,1217.27041 357.071375,1218.35517 C354.736549,1220.73793 350.280277,1217.56401 348.783514,1219.13397 C339.549353,1228.78862 339.66996,1256.20114 336.790856,1268.94008 C332.826289,1286.49708 328.37311,1306.68407 314.66103,1318.78328 C293.480597,1337.47139 254.419414,1340.36717 227.61375,1341.33758 C193.212942,1342.58304 159.841932,1352.16661 127.20384,1362.46098 C111.979535,1367.26049 97.1541594,1372.87589 81.8741889,1377.53633 C73.0853453,1380.22195 63.0595075,1385.57156 53.6738142,1384.54244 C42.3553175,1383.30316 33.4180346,1373.7814 25.1270812,1366.70421 C11.8634111,1355.38379 -0.416848521,1344.22408 0.0108526164,1325.65032 C0.489249712,1305.98871 11.142862,1291.14825 27.9257805,1281.38234 C60.3721377,1262.49953 96.6624542,1250.39723 131.635372,1237.34924 C145.038204,1232.34576 156.511325,1226.81071 169.326584,1220.07656 C187.433087,1210.5579 208.276439,1202.78844 224.3419,1190.22256 C229.079588,1186.51399 246.487189,1175.1534 247.971582,1169.29386 C248.166408,1168.53051 243.815281,1159.58358 243.796726,1158.16506 C243.753431,1154.5152 245.915079,1150.56248 247.244847,1147.43801 C255.613113,1127.77022 269.649904,1108.83178 280.380829,1090.28584 C300.033574,1056.31532 319.760538,1022.16556 342.545971,990.216217 C387.980767,926.518412 439.019147,864.149512 494.10559,808.545665 C520.960733,781.439098 544.166744,750.69195 571.399171,723.959331 C582.188852,713.37136 593.578476,704.748931 606.873071,697.875712 C621.692261,690.214422 638.32674,688.71245 655.313763,686.37296 C696.477837,680.708117 730.853905,692.881503 769.500695,703.475655 C806.035318,713.488798 842.610143,721.93507 879.34887,732.365427 C919.696528,743.818731 959.629792,754.805374 999.850658,767.287808 C1021.34034,773.957055 1043.44852,778.051936 1065.04025,784.452312 C1075.43719,787.530427 1114.74268,806.82736 1123.41091,800.488793 C1096.10427,787.67877 1068.12964,776.00295 1038.91493,768.270579 C1030.31164,765.995989 1024.81629,768.514727 1025.13482,758.637565 C1025.31109,753.250865 1031.36618,745.978974 1033.54638,741.544141 C1038.76649,730.928355 1044.67623,720.553627 1049.78502,709.906936 C1031.26412,715.163836 981.481294,733.36056 967.524907,714.548831 C952.919099,694.859408 965.112769,656.25627 974.266526,636.977879 C998.162161,586.652565 1038.8036,544.656084 1078.40288,506.720489 C1086.96906,498.518365 1105.4343,487.806774 1109.9988,477.360965 C1111.38733,474.183955 1108.36597,469.517336 1111.49866,465.39155 C1113.36034,462.937712 1120.84106,461.259584 1123.83149,458.614136 C1134.72013,448.978031 1143.40692,428.701417 1150.93094,416.06755 C1158.81059,402.837222 1165.91094,388.509774 1175.81308,376.639255 C1192.00843,357.227974 1208.72949,336.651584 1234.95686,332.111674 C1247.81851,329.886531 1261.48111,331.073274 1273.80776,326.63226 C1288.71663,321.261012 1302.88331,312.799289 1317.93752,307.236431 C1314.2018,299.559689 1311.17426,287.352308 1303.92857,286.514789 C1296.95192,285.705084 1286.71888,291.700608 1278.73409,291.657341 C1267.07232,291.592441 1257.11761,289.728884 1245.86406,287.506831 C1233.40753,285.043722 1229.3038,285.491841 1224.76403,271.98337 C1220.0016,257.832079 1221.20149,241.396927 1221.24169,226.698622 C1221.26024,219.516355 1222.68588,210.600331 1222.07357,203.550955 C1221.1551,192.928989 1219.08932,192.521046 1210.76126,185.765265 C1200.35504,177.325174 1187.52741,166.156193 1200.27464,151.491884 C1207.1616,143.567903 1221.31591,149.730312 1227.41738,141.21605 C1233.63019,132.544174 1233.33022,110.759408 1235.22282,100.573198 C1216.06796,109.986789 1223.091,74.7955362 1223.0879,66.3276314 C1223.08481,54.0059029 1214.82478,31.8471886 1226.71539,21.5960791 C1232.24166,16.8367457 1236.34539,20.7740124 1242.66334,18.038941 C1249.87192,14.91756 1254.41169,6.73088858 1262.08105,3.55696953 C1277.32391,-2.75378285 1292.88839,4.8456981 1308.53946,3.59096477 C1326.49134,2.15389334 1344.12469,-0.621354278 1362.17553,2.25896953 C1370.72934,3.61877906 1374.329,6.86686953 1381.56541,10.5074505 C1388.5235,14.00896 1395.58365,14.9670076 1403.14168,17.2199648 C1409.86784,19.2256838 1415.76521,20.23936 1420.30807,26.0989029 C1423.90154,30.7346172 1422.43879,38.5318886 1426.06628,42.5278743 C1429.64428,46.465141 1436.72298,45.8934029 1440.98752,50.5692933 C1445.08197,55.0566648 1447.53122,62.4738076 1449.65885,68.0582981 C1452.53486,75.5805172 1452.87194,78.4052124 1457.93434,84.42546 C1462.34732,89.6792695 1468.70237,93.9039505 1472.38552,99.8963838 C1481.06304,114.02295 1481.2857,134.450998 1478.51483,150.342227 C1477.57472,155.75365 1469.72908,169.741146 1470.9568,174.345955 C1472.12576,178.72825 1479.48278,177.575503 1482.81339,180.34766 C1485.69249,182.742779 1488.22523,193.414193 1490.49512,194.066284 C1495.3998,195.47245 1501.4487,185.789989 1505.16587,184.337465 C1511.62298,181.812546 1514.32581,179.222727 1517.90382,188.738303 C1520.55408,195.800041 1516.86165,205.383608 1514.91648,212.123936 C1512.44249,220.703098 1509.70873,231.03456 1503.15266,237.52147 C1495.44619,245.148765 1489.27668,240.979712 1480.77235,245.086955 C1468.02821,251.243184 1471.78867,270.49067 1456.10668,275.991717 C1441.16379,281.233165 1424.6994,264.742384 1413.39636,257.161446 C1415.73738,275.565231 1424.55096,293.298384 1420.32044,312.15956 C1454.69032,298.697446 1488.68292,279.592122 1526.13911,275.382893 C1545.2383,273.235012 1564.53231,270.69155 1582.5615,278.618622 C1603.66462,287.896231 1616.59431,308.361365 1630.8785,325.365165 C1657.72436,357.323779 1685.26913,388.386155 1711.03572,421.373898 C1734.66849,451.63275 1754.59338,486.694203 1780.60736,515.027689 C1806.98317,543.759846 1826.8895,590.376589 1824.00112,630.163379 C1823.74135,633.754512 1820.95811,641.91337 1821.39415,645.785736 C1821.73433,648.752593 1824.43097,652.513703 1824.38819,654.905731 C1824.24233,662.956422 1821.5797,667.592136 1813.90415,672.057874 C1800.59719,679.805698 1780.76817,683.727512 1765.72942,685.649789 C1745.74887,688.205612 1721.27803,688.480665 1701.2882,685.751774 C1680.6706,682.93326 1662.54864,671.396512 1643.58861,664.424398 C1626.95722,658.305255 1610.25471,654.485427 1592.77907,650.582155 C1583.1398,648.428093 1572.46763,642.466565 1566.5115,648.236484 C1561.0409,653.539741 1559.90595,680.748293 1558.63185,687.983098 C1544.80535,766.400841 1528.37497,842.160774 1513.82174,920.179846 C1497.32951,1008.61073 1486.05122,1097.00762 1474.58119,1186.18949 C1464.15642,1267.25577 1460.7485,1349.23993 1458.41677,1430.23204 C1457.30347,1468.86608 1457.14266,1507.086 1457.37769,1545.75404 C1457.51067,1567.40591 1468.33746,1639.68288 1436.23128,1642.44886 C1417.36402,1644.08063 1402.2696,1617.03587 1397.21339,1602.28812 C1389.61824,1580.1294 1385.66296,1556.26784 1384.4507,1532.99037 C1382.00145,1485.86679 1378.78836,1438.70921 1376.88648,1391.56709 C1374.82689,1340.49388 1377.44622,1288.47807 1381.64582,1237.57175 C1385.87324,1186.32547 1396.52376,1135.82709 1399.78943,1084.50356 C1389.98934,1098.48487 1386.85356,1101.11177 1370.53142,1107.20001 C1353.45163,1113.57566 1337.02125,1121.11643 1319.78683,1127.05941 C1313.92348,1129.08058 1304.77281,1130.34768 1299.96709,1133.65758 C1291.09784,1139.76436 1296.92409,1132.83551 1294.09137,1144.72148 C1291.06692,1157.42025 1290.4979,1172.66557 1289.69386,1185.71356 C1285.91793,1246.95135 1268.94946,1307.75337 1261.12238,1368.66666 C1259.23287,1383.37424 1261.92952,1445.80804 1236.61134,1426.13097 C1217.11322,1410.97837 1217.49978,1363.38195 1214.72582,1341.08725 C1211.0334,1311.36923 1213.0899,1280.81369 1213.67438,1250.91643 C1214.33926,1216.86556 1214.91137,1181.15202 1223.03842,1147.90467 C1208.49756,1145.41684 1188.2727,1152.19426 1173.63597,1153.33464 C1160.96296,1154.3205 1148.33325,1154.94787 1135.73138,1155.64014 C1105.6786,1157.29045 1074.72282,1158.60699 1044.16288,1158.01671 C1038.5995,1157.90855 1002.25352,1152.82162 997.608606,1156.92268 C996.099473,1158.25468 995.638693,1176.57502 995.357276,1178.81253 C994.287276,1187.23098 992.836901,1195.64017 991.754531,1204.01227 C988.303317,1230.7727 985.186092,1259.50795 986.175687,1286.25911 L986.175687,1286.25911 Z" id="ink-layer"></path>
                <path d="M1525.92588,1540.57769 C1548.8609,1549.53864 1573.20371,1552.79043 1596.33323,1560.9539 C1617.01149,1568.25187 1636.21406,1578.06286 1656.57434,1585.48139 C1657.76601,1576.03823 1658.39889,1560.04822 1654.91032,1551.14908 C1649.97384,1538.54686 1636.97661,1538.23776 1624.18004,1533.74955 C1593.03607,1522.82578 1560.27439,1520.52294 1529.35579,1507.75999 C1534.65039,1517.9481 1532.28557,1531.43745 1525.92588,1540.57769 M1921.84762,1507.62399 C1872.31302,1509.07678 1824.97344,1520.60022 1776.15508,1527.72819 C1752.39885,1531.19325 1728.62101,1534.2874 1704.84317,1537.52373 C1695.69262,1538.76633 1679.01541,1537.30117 1672.36552,1545.22044 C1666.85173,1551.78275 1672.89343,1574.17123 1670.44526,1583.78749 C1680.45715,1584.52625 1698.23341,1575.17582 1709.10046,1573.62721 C1726.02156,1571.22237 1742.72039,1567.85312 1759.81747,1566.78053 C1786.89555,1565.07427 1813.5013,1563.62456 1840.53308,1560.61079 C1868.02177,1557.54756 1894.62134,1551.85384 1922.32922,1549.77356 C1935.79881,1548.7597 1941.21689,1551.28509 1942.01031,1537.06934 C1942.32212,1531.51163 1943.08467,1522.20757 1941.52562,1516.72713 C1944.01701,1509.98864 1941.80655,1506.71831 1934.89425,1506.90995 C1930.50421,1506.41539 1926.15739,1506.6534 1921.84762,1507.62399 M1826.04162,1462.25354 C1839.43711,1460.99857 1852.88817,1459.19649 1866.31762,1458.44227 C1869.04056,1458.28772 1882.85282,1459.11921 1885.10958,1456.58764 C1888.30178,1453.0082 1884.74529,1439.91142 1884.15872,1435.85905 C1882.16746,1422.07914 1879.96626,1414.06714 1864.93145,1414.03596 C1852.24294,1414.00532 1839.10678,1416.68835 1826.46766,1417.92477 C1769.0915,1423.54739 1712.00554,1425.92132 1655.26227,1436.59781 C1658.71688,1451.30194 1662.63766,1466.47282 1658.50694,1481.51079 C1685.72705,1482.91412 1715.61143,1477.67788 1742.21408,1472.30564 C1769.40331,1466.81593 1798.25347,1464.08962 1826.04162,1462.25354 M1735.23077,1323.80535 C1714.73157,1323.89808 1693.06539,1332.92395 1672.83786,1330.91167 C1672.53531,1334.67348 1679.00923,1331.55152 1680.79674,1335.07223 C1684.61564,1335.0815 1685.94624,1336.3272 1684.77927,1338.81549 C1684.85027,1340.51248 1683.98276,1341.5078 1682.17364,1341.79527 C1681.28144,1341.87563 1680.38923,1341.94982 1679.5001,1342.0271 C1675.58858,1342.15383 1674.94644,1344.7905 1677.57985,1349.94637 C1676.44992,1356.33248 1678.14481,1364.4434 1678.39179,1370.85424 C1714.74392,1365.90856 1750.05873,1360.76505 1786.6671,1358.55804 C1803.94941,1357.51635 1821.21937,1357.51944 1838.48007,1356.09756 C1857.47271,1354.53349 1878.20345,1357.88728 1896.77005,1354.33257 C1906.69549,1352.43157 1905.6551,1352.56449 1904.93269,1339.65935 C1904.49121,1331.82044 1904.65483,1322.51329 1898.27044,1316.79484 C1887.60715,1307.24349 1863.32609,1312.76411 1850.57584,1313.10104 C1812.17379,1314.1149 1773.12034,1317.68198 1735.23077,1323.80535 M1756.21467,1508.08455 C1811.13031,1503.09869 1865.63225,1492.178 1920.8597,1492.178 C1916.95436,1488.2771 1908.44904,1487.27251 1903.58974,1485.14277 C1898.04816,1482.71939 1892.8184,1477.55424 1887.4034,1475.43378 C1876.53635,1471.18049 1865.47789,1477.09058 1854.31756,1479.64379 C1827.39383,1485.80735 1799.7693,1486.01754 1772.80235,1492.06364 C1744.92467,1498.31065 1716.6827,1504.07237 1688.28945,1507.24997 C1674.77047,1508.76149 1660.26358,1511.82782 1646.90514,1508.25765 C1645.82152,1507.4818 1644.73173,1506.70595 1643.64811,1505.93318 C1642.48114,1500.96277 1639.23955,1499.63671 1633.92334,1501.95191 C1627.17157,1500.66603 1618.57363,1502.32593 1611.77635,1502.49593 C1611.50079,1505.20988 1636.61231,1513.72263 1641.40061,1515.83073 C1652.93758,1520.90933 1660.76062,1524.62786 1673.08175,1522.45176 C1700.82669,1517.55244 1728.11779,1511.70418 1756.21467,1508.08455 M1563.03437,1347.57244 C1565.18,1355.93683 1574.19162,1352.13174 1581.94983,1353.05288 C1592.36305,1354.2862 1602.7238,1357.87801 1612.80977,1360.58577 C1631.12631,1365.50672 1649.44901,1370.35967 1667.68836,1375.56191 C1666.96904,1368.19594 1668.5991,1351.43316 1664.7061,1344.89868 C1660.6217,1338.04891 1641.25551,1335.0475 1632.23771,1332.95795 C1609.50644,1327.70007 1585.22538,1330.69221 1562.1329,1331.79881 C1562.54042,1337.0505 1562.84297,1342.30529 1563.03437,1347.57244 M1781.38485,1399.89776 C1802.95224,1398.07095 1824.54432,1396.65215 1846.17345,1395.89176 C1870.90216,1395.02626 1852.92831,1391.0759 1852.40656,1375.99775 C1819.90421,1381.18144 1787.11475,1382.20458 1754.71428,1386.63406 C1727.87082,1390.30932 1695.89329,1399.90085 1668.51265,1394.74807 C1655.59877,1392.3185 1642.41322,1391.38191 1628.67505,1390.00948 C1615.71486,1388.71433 1603.48634,1382.67751 1590.6836,1381.17835 C1576.31255,1379.49373 1561.62968,1387.57065 1547.33272,1389.70347 C1541.27249,1390.60915 1539.86472,1394.71716 1537.00286,1387.42537 C1534.03603,1379.86156 1542.53517,1373.67946 1545.88173,1369.15725 C1549.79016,1363.87465 1548.16628,1372.45231 1550.3366,1364.2023 C1550.94478,1361.89019 1549.2962,1356.08211 1548.99365,1353.59072 C1548.22802,1347.29425 1546.24911,1340.46302 1545.94038,1334.17892 C1545.65636,1328.40792 1545.60696,1319.59843 1551.87404,1316.22918 C1555.69912,1314.17363 1558.4097,1317.17195 1561.74391,1316.59083 C1587.77234,1312.06553 1618.3884,1311.69461 1644.78421,1316.06226 C1673.39974,1320.79466 1698.02966,1308.26354 1726.23458,1303.18185 C1759.32042,1297.22231 1792.75512,1296.32899 1826.12807,1293.80979 C1854.66333,1291.65841 1906.80046,1280.49354 1917.67059,1316.93085 C1920.74856,1327.25496 1925.23431,1355.67718 1916.95127,1364.46195 C1906.08422,1375.99775 1880.92021,1372.31631 1866.86715,1375.31463 C1868.96955,1381.29272 1875.22736,1385.35745 1873.06322,1392.47614 C1892.75665,1393.40655 1896.23905,1412.00232 1899.32319,1429.36475 C1902.51538,1447.32685 1896.28844,1454.46718 1913.45961,1463.8207 C1937.39182,1476.85566 1962.74414,1490.02045 1962.27488,1521.06697 C1962.04026,1536.67678 1960.29288,1560.21823 1944.2609,1568.31678 C1928.57778,1576.23914 1903.04021,1574.90072 1885.75482,1577.7754 C1852.28307,1583.34856 1818.69402,1589.88614 1785.01852,1593.23065 C1749.16035,1596.79464 1712.70634,1599.71877 1676.78952,1601.31066 C1657.21957,1602.18234 1640.3139,1605.13738 1621.41388,1598.55344 C1602.83185,1592.08078 1584.65424,1587.35457 1565.48255,1582.54798 C1546.55474,1577.8094 1488.61362,1571.42329 1505.49768,1539.06307 C1508.199,1533.88556 1517.43291,1529.76828 1518.92404,1524.87205 C1521.32899,1516.97442 1513.2034,1510.81086 1513.543,1503.67362 C1514.16353,1490.61702 1528.89888,1488.97877 1539.07439,1488.97877 C1521.63463,1478.07354 1544.98952,1465.16222 1544.85059,1455.90452 C1544.6067,1439.59304 1524.31434,1429.00619 1523.16589,1415.33138 C1520.37504,1382.05621 1625.96137,1416.7038 1642.21255,1423.90286 C1629.70309,1442.44608 1571.67244,1426.40043 1554.38704,1423.58758 C1556.74569,1429.77895 1558.99936,1435.34593 1559.68164,1441.68568 C1560.23426,1446.85083 1558.26152,1452.75474 1560.06755,1457.95388 C1562.92015,1466.17608 1562.82135,1464.60274 1572.91968,1466.84375 C1580.39078,1468.50055 1587.77852,1470.417 1595.22492,1472.17272 C1606.6631,1474.87121 1624.65547,1482.11045 1635.98869,1481.7148 C1645.92957,1481.3686 1643.96609,1484.45038 1645.78756,1473.41223 C1646.7693,1467.4805 1645.09602,1461.17476 1644.09576,1455.36358 C1642.00879,1443.18484 1638.95552,1431.65831 1649.59411,1422.91991 C1659.73875,1414.58643 1681.1209,1410.62062 1693.56243,1407.68103 C1721.1777,1401.15891 1753.05026,1399.56083 1781.38485,1399.89776" id="ink-layer"></path>
                <path d="M1912.79362,1192.02928 C1882.80188,1187.00539 1852.33014,1185.76802 1821.98537,1187.2907 C1823.62973,1194.79862 1825.27409,1202.30345 1826.92155,1209.80517 C1855.34944,1202.48642 1884.18921,1198.1975 1912.79362,1192.02928 L1912.79362,1192.02928 Z M1668.92065,1250.263 C1656.89298,1249.38227 1665.26032,1254.75969 1668.23008,1262.63045 C1671.88111,1272.29989 1671.09764,1284.52469 1671.93685,1294.70272 C1707.12799,1281.28707 1748.07284,1273.43492 1785.48742,1268.91962 C1803.23163,1266.77981 1821.23287,1266.16578 1839.07618,1265.25094 C1844.34989,1264.98114 1863.39782,1267.18917 1867.25634,1263.64143 C1870.1208,1261.00234 1868.11103,1246.44856 1865.35805,1243.23575 C1850.3823,1225.78549 1792.4922,1240.85406 1771.54908,1242.41705 C1737.20954,1244.98171 1703.49863,1251.11582 1668.92065,1250.263 L1668.92065,1250.263 Z M1718.90172,1203.4943 C1750.06093,1206.48692 1780.14867,1206.20161 1811.31097,1210.86887 C1808.94818,1191.06792 1811.77239,1186.01302 1789.30258,1184.96172 C1769.27918,1184.02827 1749.31772,1183.27158 1729.38722,1183.28089 C1684.56838,1183.3057 1639.85482,1182.44978 1594.98643,1182.44978 L1594.98643,1202.57325 C1636.48249,1198.32465 1677.32205,1205.99694 1718.90172,1203.4943 L1718.90172,1203.4943 Z M1569.06378,1277.49745 C1588.72796,1277.41372 1607.31448,1284.83171 1626.98175,1286.75443 C1638.75239,1287.90497 1635.05491,1289.36562 1643.22096,1295.27334 C1655.93919,1304.4776 1659.60261,1299.57466 1658.0078,1287.06765 C1652.60402,1244.76153 1599.02456,1254.248 1568.15025,1251.89731 C1570.1786,1261.98541 1565.51494,1270.54153 1558.64331,1277.49745 L1569.06378,1277.49745 Z M1781.62271,1223.18051 C1753.33726,1223.63948 1725.01775,1225.24588 1696.93049,1224.65976 C1684.3578,1224.39616 1668.06905,1221.90593 1655.7472,1224.04883 C1646.72025,1225.61802 1639.17045,1230.21395 1629.27023,1231.9227 C1643.81243,1239.75314 1651.18573,1234.46255 1666.47424,1232.67938 C1681.75036,1230.90241 1697.25255,1230.93652 1712.59061,1230.00928 C1737.77933,1228.4835 1764.62791,1222.45173 1789.44503,1224.09225 C1789.89715,1220.59723 1787.29281,1220.29332 1781.62271,1223.18051 L1781.62271,1223.18051 Z M1557.27456,1314.80759 C1544.29621,1314.77968 1562.1519,1300.02433 1564.49612,1298.56058 C1550.12733,1298.56058 1546.64971,1289.94553 1550.81171,1276.10502 C1554.73525,1263.06772 1557.63688,1267.05892 1547.76763,1256.20173 C1540.3386,1248.02706 1539.21449,1242.00459 1547.97201,1232.86545 C1556.88438,1223.56815 1574.93207,1226.19794 1582.82871,1218.52255 C1596.27157,1205.46044 1578.92374,1179.44164 1597.55052,1169.43418 C1610.14179,1162.67363 1630.43769,1163.51095 1644.33888,1162.08131 C1657.77555,1160.70129 1671.68292,1160.43459 1685.2094,1160.25162 C1714.69328,1159.84847 1745.31985,1164.79173 1774.67367,1167.51145 C1785.37594,1168.50073 1797.4067,1172.82375 1807.95103,1172.83306 C1818.70285,1172.84546 1829.96562,1170.44826 1841.06737,1170.72426 C1853.9745,1171.04988 1866.40783,1170.09783 1879.71754,1172.21592 C1889.91504,1173.84094 1913.72573,1174.69376 1921.52018,1182.27301 C1947.49238,1207.52891 1885.90169,1219.12728 1875.30471,1221.96485 C1886.09059,1233.77719 1885.64157,1249.39157 1884.01579,1264.26167 C1889.15015,1264.26167 1898.00058,1262.02883 1900.65757,1267.78459 C1903.95867,1274.93278 1891.74211,1276.79038 1888.85287,1277.6246 C1872.23586,1282.4221 1852.78846,1281.10721 1835.66359,1282.85006 C1801.42624,1286.33267 1767.60385,1288.34223 1733.72263,1294.82677 C1717.21091,1297.98686 1700.79829,1301.89743 1684.29896,1304.97379 C1681.44998,1305.50719 1678.58551,1305.93205 1675.70866,1306.25457 C1671.29273,1305.87623 1669.86515,1308.64557 1671.4228,1314.5781 C1666.84275,1316.81405 1649.76743,1311.24125 1644.48752,1310.38843 C1614.26042,1305.48548 1587.21986,1307.52295 1557.27456,1314.80759 L1557.27456,1314.80759 Z" id="ink-layer"></path>
                <path d="M2167.64204,1608.24755 C2148.14591,1623.5856 2130.0234,1638.05854 2108.90979,1651.38621 C2123.8344,1650.92133 2173.46989,1627.1261 2167.64204,1608.24755 M2160.02694,1583.24855 C2149.3868,1574.10791 2138.81765,1575.04383 2125.64634,1572.27301 C2113.51836,1569.72077 2101.73302,1565.32747 2089.62974,1562.40271 C2080.1317,1560.10908 2070.72936,1557.00576 2061.26528,1554.83836 C2047.8995,1551.77506 2046.58144,1555.14623 2034.28987,1562.14718 C1990.70139,1586.98301 1941.92402,1604.06668 1896.01119,1624.22289 C1909.49118,1636.08818 1939.81575,1636.59924 1956.66342,1640.38296 C1968.96425,1643.14147 1980.66934,1646.91595 1992.45159,1651.28461 C2003.42202,1655.35773 2021.09695,1664.72311 2032.66622,1665.03406 C2042.43281,1665.29883 2050.37201,1655.69023 2058.78042,1650.51494 C2069.84036,1643.70487 2080.85092,1637.01487 2091.9973,1630.37412 C2115.58651,1616.32296 2137.64158,1599.10383 2160.02694,1583.24855 M1963.03762,1683.84488 C1958.00617,1679.00518 1942.85932,1679.21761 1936.54993,1677.73983 C1924.12253,1674.83663 1911.87726,1671.8195 1899.28318,1669.63979 C1878.84558,1666.10545 1846.5609,1664.523 1844.34151,1638.01544 C1842.49252,1615.98738 1869.11604,1610.75976 1884.68886,1603.29701 C1908.10521,1592.06901 1931.99692,1581.7092 1956.00902,1571.80812 C1978.52094,1562.52894 2001.36314,1554.68135 2024.2856,1546.66135 C2028.75526,1545.09737 2032.38532,1545.31288 2036.0339,1541.73544 C2038.91387,1538.91227 2038.02488,1533.4322 2041.17957,1530.48281 C2048.40573,1523.72815 2057.7803,1527.28097 2066.46342,1529.01427 C2086.1818,1532.94576 2106.65644,1538.10874 2125.45496,1545.40216 C2144.99122,1552.98191 2162.4655,1554.56436 2167.15741,1576.70632 C2177.14625,1572.02055 2184.65948,1571.34016 2183.4649,1585.10808 C2183.11609,1589.15349 2180.17747,1593.55294 2179.4706,1597.72457 C2178.43344,1603.8758 2180.25155,1610.35953 2179.22365,1616.52616 C2175.48556,1638.94829 2145.24433,1655.55784 2126.50446,1664.36291 C2103.3968,1675.21838 2073.58155,1691.25838 2047.7822,1693.37652 C2020.2913,1695.63628 1990.33097,1684.84238 1963.03762,1683.84488" id="ink-layer"></path>
                <path d="M1613.10552,1311.85057 C1604.90997,1311.9022 1596.70803,1311.95382 1588.51568,1312.00545 C1596.69525,1310.46899 1604.89399,1310.45178 1613.10552,1311.85057" id="ink-layer"></path>
                <path d="M1133.60357,444.853398 C1131.14547,448.948668 1128.68737,453.043939 1126.22661,457.145064 C1127.06454,451.864243 1128.93927,447.338662 1133.60357,444.853398" id="ink-layer"></path>
                <path d="M1613.10552,1429.35075 C1618.03325,1429.395 1622.95806,1429.43434 1627.85943,1429.48104 C1622.9229,1429.44171 1618.01568,1429.39746 1613.10552,1429.35075" id="ink-layer"></path>
                <path d="M1726.2188,1161.92342 C1720.47791,1161.61367 1714.74354,1161.30146 1709.00591,1160.99171 C1714.74354,1161.30146 1720.47791,1161.61367 1726.2188,1161.92342" id="ink-layer"></path>
                <path d="M1627.85943,1311.97221 C1622.9394,1311.9255 1618.01937,1311.88125 1613.10552,1311.83454 C1618.04098,1310.48983 1622.96101,1310.53654 1627.85943,1311.97221" id="ink-layer"></path>
                <path d="M1823.55647,614.478398 C1823.41877,609.559535 1823.28106,604.640671 1823.1409,599.728398 C1823.28352,604.650555 1823.41877,609.562829 1823.55647,614.478398" id="ink-layer"></path>
                <path d="M987.445224,1356.89506 C987.344406,1352.79585 987.243587,1348.69663 987.142769,1344.6034 C987.246046,1348.70561 987.344406,1352.79884 987.445224,1356.89506" id="ink-layer"></path>
                <path d="M1121.30864,1156.53475 C1124.59873,1156.53721 1127.88257,1156.53967 1131.14458,1156.54704 C1127.85138,1156.54704 1124.58001,1156.53967 1121.30864,1156.53475" id="ink-layer"></path>
                <path d="M1561.46685,273.554273 C1557.36667,273.851731 1553.2693,274.146731 1549.17193,274.444189 C1553.27211,274.146731 1557.36948,273.851731 1561.46685,273.554273" id="ink-layer"></path>
                <path d="M1871.29888,1171.33884 C1866.38091,1171.30688 1861.45959,1171.27492 1856.54497,1171.24296 C1861.45959,1171.27492 1866.38091,1171.30688 1871.29888,1171.33884" id="ink-layer"></path>
                <path d="M1457.14321,1474.89506 C1457.02026,1471.61236 1456.89485,1468.32669 1456.77682,1465.06173 C1456.89731,1468.3474 1457.02026,1471.62419 1457.14321,1474.89506" id="ink-layer"></path>
                <path d="M1462.01077,1349.52006 C1461.92224,1346.24039 1461.83372,1342.95788 1461.7452,1339.68673 C1461.83618,1342.9664 1461.9247,1346.24323 1462.01077,1349.52006" id="ink-layer"></path>
                <path d="M1378.09547,1406.06173 C1378.2135,1409.34446 1378.33399,1412.62718 1378.44956,1415.89506 C1378.33153,1412.60937 1378.2135,1409.33852 1378.09547,1406.06173" id="ink-layer"></path>
                <path d="M1140.98052,1154.13296 C1143.44889,1154.09854 1145.91444,1154.06659 1148.35747,1154.03217 C1145.88348,1154.06659 1143.432,1154.09854 1140.98052,1154.13296" id="ink-layer"></path>
                <path d="M1854.08599,1282.07569 C1856.55129,1281.96998 1859.0166,1281.86181 1861.46294,1281.75611 C1858.98951,1281.86427 1856.53504,1281.96998 1854.08599,1282.07569" id="ink-layer"></path>
                <path d="M1382.98024,1484.7284 C1383.1204,1488.00962 1383.26056,1491.29429 1383.40072,1494.56173 C1383.26056,1491.27017 1383.1204,1487.99928 1382.98024,1484.7284" id="ink-layer"></path>
                <path d="M1646.55017,1467.52006 C1646.38541,1470.80441 1646.2182,1474.08547 1646.05345,1477.3534 C1646.2182,1474.06905 1646.38541,1470.79456 1646.55017,1467.52006" id="ink-layer"></path>
                <path d="M1363.13623,2.71415804 C1359.66292,2.27165804 1356.18653,1.83284554 1352.71014,1.39034554 C1356.15579,2.18684554 1359.93033,-0.766841957 1363.13623,2.71415804" id="ink-layer"></path>
                <path d="M1213.66195,1263.4784 C1213.56851,1266.76062 1213.47507,1270.04285 1213.37917,1273.31173 C1213.47015,1270.02283 1213.56605,1266.75062 1213.66195,1263.4784" id="ink-layer"></path>
                <path d="M1002.30118,1563.39506 C1002.13397,1560.11515 1001.96184,1556.83523 1001.79463,1553.56173 C1001.9643,1556.84165 1002.13397,1560.11836 1002.30118,1563.39506" id="ink-layer"></path>
                <path d="M1797.52935,1286.90877 C1800.00088,1286.85715 1802.46557,1286.80306 1804.9063,1286.75636 C1802.43134,1286.81044 1799.98035,1286.85961 1797.52935,1286.90877" id="ink-layer"></path>
                <path d="M962.678333,690.686731 C962.698005,693.970093 962.715218,697.253454 962.729972,700.520064 C962.7103,697.233352 962.695546,693.960042 962.678333,690.686731" id="ink-layer"></path>
                <path d="M911.085153,1428.18673 C911.075317,1431.46913 911.063022,1434.755 911.045809,1438.02006 C911.055645,1434.7342 911.070399,1431.45873 911.085153,1428.18673" id="ink-layer"></path>
                <path d="M1523.94953,1408.52006 C1523.86101,1411.8013 1523.77494,1415.08599 1523.6815,1418.3534 C1522.33398,1414.98227 1522.48644,1411.71486 1523.94953,1408.52006" id="ink-layer"></path>
                <path d="M1064.752,1158.99923 C1067.21983,1158.99923 1069.68766,1158.99923 1072.12896,1158.99923 C1069.65449,1158.99923 1067.20325,1158.99923 1064.752,1158.99923" id="ink-layer"></path>
                <path d="M1459.45834,1393.77006 C1459.43129,1390.48884 1459.4067,1387.20761 1459.37965,1383.93673 C1459.4067,1387.22486 1459.43129,1390.49574 1459.45834,1393.77006" id="ink-layer"></path>
                <path d="M1962.2813,1684.98054 C1964.75021,1685.04692 1967.21913,1685.11575 1969.65825,1685.18459 C1967.17941,1685.11821 1964.73036,1685.04938 1962.2813,1684.98054" id="ink-layer"></path>
                <path d="M1873.75786,1372.91725 C1875.40172,1372.88775 1877.05102,1372.86071 1878.67583,1372.83121 C1877.02109,1372.86071 1875.39084,1372.88775 1873.75786,1372.91725" id="ink-layer"></path>
                <path d="M1812.28325,1380.25415 C1813.93271,1380.24923 1815.57664,1380.24677 1817.20122,1380.24431 C1815.55177,1380.24923 1813.91613,1380.25169 1812.28325,1380.25415" id="ink-layer"></path>
                <path d="M854.656379,1396.2284 C854.55802,1393.76912 854.457202,1391.30699 854.361301,1388.8534 C854.46212,1391.31553 854.560479,1393.77481 854.656379,1396.2284" id="ink-layer"></path>
                <path d="M1861.46294,1394.36279 C1859.32729,1396.52367 1856.57945,1395.24779 1854.08599,1395.38546 C1856.5459,1395.04375 1859.00582,1394.7045 1861.46294,1394.36279" id="ink-layer"></path>
                <path d="M1568.8438,1315.70959 C1565.59732,1317.24359 1562.31638,1317.455 1559.00786,1315.81529 C1562.28881,1315.78088 1565.5663,1315.74646 1568.8438,1315.70959" id="ink-layer"></path>
                <path d="M1782.77544,1399.95769 C1779.49565,1399.93065 1776.21586,1399.90361 1772.9395,1399.87411 C1776.21929,1399.90361 1779.49908,1399.93065 1782.77544,1399.95769" id="ink-layer"></path>
                <path d="M1645.07232,1314.32042 C1641.79367,1314.02296 1638.51164,1313.7255 1635.23638,1313.42804 C1638.51164,1313.7255 1641.79367,1314.02296 1645.07232,1314.32042" id="ink-layer"></path>
                <path d="M893.94972,1302.81173 C893.888246,1305.27648 893.821853,1307.73803 893.75546,1310.18673 C893.816935,1307.71877 893.883328,1305.26365 893.94972,1302.81173" id="ink-layer"></path>
                <path d="M1459.22965,1435.56173 C1459.35752,1433.09799 1459.48293,1430.63426 1459.60834,1428.18673 C1459.48293,1430.65371 1459.35752,1433.10772 1459.22965,1435.56173" id="ink-layer"></path>
                <path d="M1797.52935,1293.79456 C1794.25181,1294.0699 1790.97095,1294.34523 1787.69341,1294.62056 C1790.97428,1294.34523 1794.25181,1294.0699 1797.52935,1293.79456" id="ink-layer"></path>
                <path d="M987.396044,1285.6034 C987.329652,1283.14065 987.2608,1280.6779 987.191949,1278.2284 C987.258341,1280.69776 987.329652,1283.15058 987.396044,1285.6034" id="ink-layer"></path>
                <path d="M1398.23455,1096.31173 C1398.04029,1098.77501 1397.84603,1101.23532 1397.65423,1103.68673 C1397.84849,1101.22345 1398.04275,1098.76908 1398.23455,1096.31173" id="ink-layer"></path>
                <path d="M1846.70904,1170.70196 C1843.42492,1172.40313 1840.14737,1172.18925 1836.8731,1170.68475 C1840.15065,1170.68967 1843.43148,1170.69705 1846.70904,1170.70196" id="ink-layer"></path>
                <path d="M1457.17763,1511.77006 C1457.03009,1509.30767 1456.88747,1506.84832 1456.74239,1504.39506 C1456.88747,1506.8605 1457.03009,1509.31376 1457.17763,1511.77006" id="ink-layer"></path>
                <path d="M1457.11493,1531.43673 C1457.01165,1528.97648 1456.90591,1526.51623 1456.8051,1524.06173 C1456.91083,1526.52486 1457.01411,1528.97936 1457.11493,1531.43673" id="ink-layer"></path>
                <path d="M992.160327,1206.93673 C992.197211,1204.47512 992.229178,1202.01022 992.263604,1199.56173 C992.226719,1202.02991 992.194752,1204.48168 992.160327,1206.93673" id="ink-layer"></path>
                <path d="M1691.79302,1599.1085 C1693.43874,1599.06179 1695.08447,1599.01509 1696.71099,1598.97329 C1695.05704,1599.02246 1693.42503,1599.06425 1691.79302,1599.1085" id="ink-layer"></path>
                <path d="M898.969737,1619.93673 C898.836952,1617.47539 898.704166,1615.01405 898.571381,1612.56173 C898.706625,1615.02307 898.836952,1617.4814 898.969737,1619.93673" id="ink-layer"></path>
                <path d="M1431.14068,1640.78217 C1432.78846,1640.81659 1434.43625,1640.84609 1436.05864,1640.88296 C1434.40521,1640.851 1432.77436,1640.81659 1431.14068,1640.78217" id="ink-layer"></path>
                <path d="M1787.69341,1169.205 C1784.41588,1168.95671 1781.13501,1168.70842 1777.85747,1168.46013 C1781.13501,1168.70842 1784.41588,1168.95671 1787.69341,1169.205" id="ink-layer"></path>
                <path d="M1804.9063,1171.801 L1797.52935,1170.78079 L1804.9063,1171.801 Z" id="ink-layer"></path>
                <path d="M1432.16361,1430.64506 C1432.30378,1423.26685 1432.43902,1415.89185 1432.57672,1408.52006 C1432.43656,1415.89828 1432.30132,1423.27006 1432.16361,1430.64506" id="ink-layer"></path>
                <path d="M1240.44152,1160.2284 C1240.52513,1165.96839 1240.60873,1171.70838 1240.69725,1177.43673 C1240.61365,1171.69092 1240.52758,1165.95966 1240.44152,1160.2284" id="ink-layer"></path>
                <path d="M816.394582,1520.29802 C812.290222,1520.34719 808.179807,1520.39636 804.099661,1520.45044 C808.216129,1520.40127 812.305356,1520.34965 816.394582,1520.29802" id="ink-layer"></path>
                <path d="M1153.27544,1031.26054 C1149.16585,1031.19663 1145.05964,1031.13025 1140.98052,1031.07125 C1145.10027,1031.13763 1149.18955,1031.19909 1153.27544,1031.26054" id="ink-layer"></path>
                <path d="M1047.53911,1127.04704 C1051.64029,1127.04459 1055.7386,1127.03967 1059.83404,1127.03475 C1055.73573,1127.03721 1051.63742,1127.04213 1047.53911,1127.04704" id="ink-layer"></path>
                <path d="M1101.63677,1028.62644 C1098.34661,1028.68052 1095.0596,1028.73706 1091.80083,1028.78869 C1095.10041,1028.73461 1098.36859,1028.68052 1101.63677,1028.62644" id="ink-layer"></path>
                <path d="M836.066457,1520.40004 C832.779391,1520.38284 829.492325,1520.36563 826.23052,1520.34842 C829.530216,1520.36809 832.798337,1520.38284 836.066457,1520.40004" id="ink-layer"></path>
                <path d="M1278.68364,264.592418 C1282.78006,264.307252 1286.88216,264.024543 1290.97857,263.739377 C1286.87931,264.024543 1282.78006,264.307252 1278.68364,264.592418" id="ink-layer"></path>
                <path d="M1333.78211,553.020064 C1333.93456,548.921718 1334.08702,544.823371 1334.23948,540.728398 C1334.08456,544.830117 1333.93456,548.925091 1333.78211,553.020064" id="ink-layer"></path>
                <path d="M1234.42193,591.121773 C1231.95453,591.121773 1229.48713,591.124231 1227.04497,591.126689 C1229.52078,591.126689 1231.97135,591.124231 1234.42193,591.121773" id="ink-layer"></path>
                <path d="M1025.40825,1021.292 C1022.9409,1021.31904 1020.47354,1021.34609 1018.0313,1021.37313 C1020.50703,1021.34854 1022.95764,1021.3215 1025.40825,1021.292" id="ink-layer"></path>
                <path d="M968.851614,1121.72475 C972.131265,1121.99025 975.410917,1122.25821 978.687551,1122.52371 C975.4079,1122.25821 972.131265,1121.99025 968.851614,1121.72475" id="ink-layer"></path>
                <path d="M962.626695,1246.27006 C962.678333,1242.98889 962.732431,1239.71111 962.781611,1236.43673 C962.729972,1239.7213 962.678333,1242.99568 962.626695,1246.27006" id="ink-layer"></path>
                <path d="M1244.25786,1115.23106 C1247.53453,1114.90902 1250.81713,1114.58944 1254.0938,1114.2674 C1250.81417,1114.58944 1247.53453,1114.90902 1244.25786,1115.23106" id="ink-layer"></path>
                <path d="M1468.96231,1056.9784 C1469.15903,1053.6984 1469.35329,1050.41508 1469.54755,1047.14506 C1469.35329,1050.42839 1469.15657,1053.70506 1468.96231,1056.9784" id="ink-layer"></path>
                <path d="M1512.28716,603.798168 C1515.56676,603.542502 1518.84349,603.286835 1522.1231,603.033627 C1518.84349,603.286835 1515.56676,603.542502 1512.28716,603.798168" id="ink-layer"></path>
                <path d="M1177.86529,1033.65988 C1175.39942,1033.63529 1172.93012,1033.61071 1170.48833,1033.58859 C1172.96451,1033.61071 1175.41662,1033.63529 1177.86529,1033.65988" id="ink-layer"></path>
                <path d="M962.884888,1430.64506 C962.761939,1428.18231 962.641449,1425.72221 962.523417,1423.27006 C962.641449,1425.73282 962.761939,1428.19027 962.884888,1430.64506" id="ink-layer"></path>
                <path d="M1238.58342,1305.27006 C1243.95758,1318.59301 1240.93978,1309.15947 1241.07758,1312.23482 C1236.49921,1312.84935 1235.66553,1310.52688 1238.58342,1305.27006" id="ink-layer"></path>
                <path d="M1013.11333,1021.46654 C1010.64872,1021.37804 1008.17736,1021.28954 1005.73638,1021.19859 C1008.21787,1021.28709 1010.66223,1021.37559 1013.11333,1021.46654" id="ink-layer"></path>
                <path d="M1515.74326,771.811731 C1515.89818,768.532889 1516.05555,765.254047 1516.20801,761.978398 C1516.0531,765.260432 1515.89572,768.536082 1515.74326,771.811731" id="ink-layer"></path>
                <path d="M962.716448,1406.06173 C962.709071,1402.78166 962.699235,1399.50503 962.691858,1396.2284 C962.699235,1399.51536 962.706612,1402.78855 962.716448,1406.06173" id="ink-layer"></path>
                <path d="M962.447189,1332.31173 C962.616859,1329.85142 962.791447,1327.39111 962.961117,1324.93673 C962.788988,1327.4 962.616859,1329.85735 962.447189,1332.31173" id="ink-layer"></path>
                <path d="M1473.82864,1010.27006 C1474.05733,1007.80975 1474.28848,1005.34943 1474.51716,1002.89506 C1474.28848,1005.35836 1474.05733,1007.8157 1473.82864,1010.27006" id="ink-layer"></path>
                <path d="M930.407852,1339.68673 C930.626702,1342.14993 930.84801,1344.61314 931.06686,1347.06173 C930.845551,1344.60145 930.626702,1342.14409 930.407852,1339.68673" id="ink-layer"></path>
                <path d="M925.455457,1320.02006 C925.698897,1322.48037 925.939877,1324.94363 926.183317,1327.39506 C925.939877,1324.92885 925.698897,1322.47445 925.455457,1320.02006" id="ink-layer"></path>
                <path d="M1417.34086,983.228398 C1417.52528,980.769117 1417.70724,978.309836 1417.89167,975.853398 C1417.70479,978.315522 1417.52282,980.77196 1417.34086,983.228398" id="ink-layer"></path>
                <path d="M162.304739,1316.71975 C165.581085,1316.46163 168.860881,1316.20104 172.140676,1315.94538 C168.853983,1316.2035 165.577637,1316.46163 162.304739,1316.71975" id="ink-layer"></path>
                <path d="M1395.62679,1376.56173 C1395.53089,1379.02537 1395.43499,1381.49219 1395.34401,1383.93673 C1395.43991,1381.46673 1395.53335,1379.01582 1395.62679,1376.56173" id="ink-layer"></path>
                <path d="M1434.55498,1383.93673 C1434.73694,1381.47742 1434.91891,1379.01518 1435.10333,1376.56173 C1434.91891,1379.02397 1434.73694,1381.48035 1434.55498,1383.93673" id="ink-layer"></path>
                <path d="M1419.68673,973.395064 C1419.94492,970.933783 1420.20803,968.47545 1420.46377,966.020064 C1420.20557,968.484293 1419.94492,970.939679 1419.68673,973.395064" id="ink-layer"></path>
                <path d="M181.976614,1314.35729 C185.256418,1314.03525 188.536222,1313.71321 191.812551,1313.39117 C188.536222,1313.71321 185.252943,1314.03525 181.976614,1314.35729" id="ink-layer"></path>
                <path d="M1224.58599,1031.13886 C1222.94003,1031.15606 1221.29123,1031.17573 1219.66802,1031.19294 C1221.3225,1031.17573 1222.95425,1031.15606 1224.58599,1031.13886" id="ink-layer"></path>
                <path d="M962.716448,1310.18673 C962.709071,1307.72332 962.699235,1305.26295 962.691858,1302.81173 C962.699235,1305.27819 962.709071,1307.72941 962.716448,1310.18673" id="ink-layer"></path>
                <path d="M1439.93896,1305.27006 C1439.06602,1302.72833 1438.63816,1300.22321 1440.32256,1297.89506 C1440.19469,1300.35747 1440.06683,1302.81377 1439.93896,1305.27006" id="ink-layer"></path>
                <path d="M1398.04889,1258.56173 C1397.98004,1261.02217 1397.90627,1263.48578 1397.83988,1265.93673 C1397.91119,1263.46996 1397.98004,1261.01585 1398.04889,1258.56173" id="ink-layer"></path>
                <path d="M1400.17346,1501.93673 C1400.32591,1504.39601 1400.48083,1506.861 1400.63329,1509.31173 C1400.48083,1506.8496 1400.32591,1504.39031 1400.17346,1501.93673" id="ink-layer"></path>
                <path d="M1581.13872,607.80771 C1583.60046,608.159252 1586.05944,608.510793 1588.51568,608.857418 C1586.05394,608.505877 1583.59771,608.156793 1581.13872,607.80771" id="ink-layer"></path>
                <path d="M1571.30279,608.036653 C1574.60188,608.235778 1578.22816,606.650153 1581.13872,608.973278 L1571.30279,608.036653 Z" id="ink-layer"></path>
                <path d="M1150.81646,1127.06548 C1154.0951,1127.05073 1157.37723,1127.03352 1160.65239,1127.01631 C1157.37375,1127.03352 1154.0951,1127.05073 1150.81646,1127.06548" id="ink-layer"></path>
                <path d="M1224.58599,605.44771 L1234.42193,606.300752 C1231.13877,606.015585 1227.86576,605.732877 1224.58599,605.44771" id="ink-layer"></path>
                <path d="M1062.29302,1126.39864 C1065.57503,1126.41339 1068.85031,1126.42814 1072.12896,1126.44289 C1068.83687,1128.02606 1065.55823,1128.18093 1062.29302,1126.39864" id="ink-layer"></path>
                <path d="M972.821644,1538.81173 C972.634761,1536.34587 972.447878,1533.88646 972.258537,1531.43673 C972.447878,1533.9026 972.634761,1536.35555 972.821644,1538.81173" id="ink-layer"></path>
                <path d="M1331.49771,609.561731 C1331.5346,607.099139 1331.56902,604.639741 1331.60591,602.186731 C1331.56902,604.652517 1331.5346,607.108721 1331.49771,609.561731" id="ink-layer"></path>
                <path d="M1123.76763,1127.43792 C1127.04852,1127.17488 1130.32604,1126.90938 1133.60357,1126.64388 C1130.32268,1126.90938 1127.04852,1127.17488 1123.76763,1127.43792" id="ink-layer"></path>
                <path d="M1402.77998,1560.93673 C1402.83408,1563.3981 1402.89063,1565.85948 1402.94473,1568.31173 C1402.89063,1565.84428 1402.83408,1563.39203 1402.77998,1560.93673" id="ink-layer"></path>
                <path d="M1411.4688,547.342543 C1414.74745,547.030335 1418.02609,546.718127 1421.30474,546.405918 C1418.02609,546.718127 1414.74745,547.030335 1411.4688,547.342543" id="ink-layer"></path>
                <path d="M1454.16415,1174.9784 C1454.39037,1172.51813 1454.6166,1170.05786 1454.83791,1167.6034 C1454.61414,1170.06657 1454.38791,1172.52103 1454.16415,1174.9784" id="ink-layer"></path>
                <path d="M1567.33276,518.603398 C1567.5221,516.141202 1567.70898,513.681903 1567.89586,511.228398 C1567.70898,513.690593 1567.51964,516.146995 1567.33276,518.603398" id="ink-layer"></path>
                <path d="M1333.93948,307.186731 C1333.9862,309.647031 1334.03047,312.110281 1334.0821,314.561731 C1334.03538,312.095531 1333.98866,309.641131 1333.93948,307.186731" id="ink-layer"></path>
                <path d="M1246.71685,261.298252 C1249.99549,261.571127 1253.2776,261.84646 1256.55279,262.116877 C1253.27414,261.844002 1249.99549,261.571127 1246.71685,261.298252" id="ink-layer"></path>
                <path d="M754.919973,1658.52273 C758.199769,1658.20069 761.476115,1657.88111 764.755911,1657.55906 C761.476115,1657.88111 758.199769,1658.20315 754.919973,1658.52273" id="ink-layer"></path>
                <path d="M1251.63482,237.126689 C1249.98877,237.124231 1248.33984,237.121773 1246.71685,237.121773 C1248.36866,237.126689 1250.00318,237.126689 1251.63482,237.126689" id="ink-layer"></path>
                <path d="M646.724661,1690.5401 C650.006765,1688.84877 653.281952,1689.3306 656.560598,1690.55239 C653.281952,1690.54747 649.999848,1690.54502 646.724661,1690.5401" id="ink-layer"></path>
                <path d="M1922.93755,1547.85594 C1928.67617,1547.56094 1934.4148,1547.2684 1940.15044,1546.97586 C1934.4148,1547.2684 1928.67617,1547.5634 1922.93755,1547.85594" id="ink-layer"></path>
                <path d="M1922.93755,1505.51115 C1919.64852,1505.5849 1916.36261,1505.66111 1913.10161,1505.73731 C1916.39687,1505.66356 1919.66721,1505.5849 1922.93755,1505.51115" id="ink-layer"></path>
                <path d="M1873.75786,1456.75465 C1877.85617,1456.44244 1881.95448,1456.13023 1886.05279,1455.81802 C1882.23008,1458.21981 1877.85617,1456.44244 1873.75786,1456.75465" id="ink-layer"></path>
                <path d="M1827.03716,1461.81919 C1831.13653,1461.52173 1835.23271,1461.22673 1839.33208,1460.92927 C1835.2359,1461.22673 1831.13653,1461.52173 1827.03716,1461.81919" id="ink-layer"></path>
                <path d="M1758.1856,1506.00773 C1761.46424,1505.75206 1764.74289,1505.4964 1768.02154,1505.24073 C1764.74289,1505.4964 1761.46424,1505.75206 1758.1856,1506.00773" id="ink-layer"></path>
                <path d="M1775.39849,1506.01388 C1778.67713,1505.75575 1781.95578,1505.49271 1785.23443,1505.23459 C1781.95578,1505.49271 1778.67713,1505.75329 1775.39849,1506.01388" id="ink-layer"></path>
                <path d="M1787.69341,1503.60102 C1790.9711,1503.31094 1794.24879,1503.02331 1797.52935,1502.73077 C1794.25166,1503.02086 1790.97397,1503.31094 1787.69341,1503.60102" id="ink-layer"></path>
                <path d="M1804.9063,1419.56044 C1802.43956,1419.57765 1799.97282,1419.59486 1797.52935,1419.60469 C1800.00606,1419.58502 1802.45618,1419.57273 1804.9063,1419.56044" id="ink-layer"></path>
                <path d="M1866.38091,1554.99274 C1869.65956,1554.71741 1872.9382,1554.43716 1876.21685,1554.16183 C1873.15736,1556.31041 1869.69993,1555.07387 1866.38091,1554.99274" id="ink-layer"></path>
                <path d="M1772.9395,1358.59377 C1776.2162,1358.28156 1779.49582,1357.9669 1782.77544,1357.65469 C1779.49582,1357.9669 1776.2162,1358.28156 1772.9395,1358.59377" id="ink-layer"></path>
                <path d="M1760.64458,1318.79459 C1758.17544,1318.79213 1755.70968,1318.78967 1753.26763,1318.78721 C1755.74694,1318.78967 1758.19576,1318.79213 1760.64458,1318.79459" id="ink-layer"></path>
                <path d="M1736.05474,1323.6965 C1734.4089,1323.70634 1732.76305,1323.71371 1731.13677,1323.71863 C1732.791,1323.71125 1734.42287,1323.70388 1736.05474,1323.6965" id="ink-layer"></path>
                <path d="M1677.03911,1330.54509 C1676.21245,1332.56584 1671.86862,1332.30771 1672.13269,1330.23288 C1673.76689,1330.33613 1675.40109,1330.44184 1677.03911,1330.54509" id="ink-layer"></path>
                <path d="M1562.54634,1339.68673 C1562.64716,1342.14506 1562.74798,1344.60911 1562.84634,1347.06173 C1562.74552,1344.59769 1562.64716,1342.13935 1562.54634,1339.68673" id="ink-layer"></path>
                <path d="M1898.34771,1352.71737 C1900.8058,1352.67558 1903.26657,1352.63624 1905.72466,1352.59445 C1903.29599,1354.33004 1900.83255,1354.08666 1898.34771,1352.71737" id="ink-layer"></path>
                <path d="M1804.9063,1316.29815 C1803.26033,1316.32273 1801.61437,1316.34731 1799.98833,1316.36698 C1801.64284,1316.34486 1803.27457,1316.32273 1804.9063,1316.29815" id="ink-layer"></path>
                <path d="M1740.97271,1471.66604 C1744.2525,1471.35875 1747.53229,1471.05392 1750.80864,1470.74909 C1747.52886,1471.05392 1744.2525,1471.36121 1740.97271,1471.66604" id="ink-layer"></path>
                <path d="M1701.62896,1476.55321 L1711.46489,1475.69525 L1701.62896,1476.55321 Z" id="ink-layer"></path>
                <path d="M1893.42974,1550.3364 C1896.70726,1550.02665 1899.98816,1549.71936 1903.26568,1549.41206 C1899.98816,1549.71936 1896.70726,1550.02665 1893.42974,1550.3364" id="ink-layer"></path>
                <path d="M1775.39849,1565.13686 C1778.68291,1563.9372 1781.96734,1563.52665 1785.23443,1565.16636 C1781.95347,1565.15653 1778.67598,1565.1467 1775.39849,1565.13686" id="ink-layer"></path>
                <path d="M1770.18553,1226.27837 L1765.56255,1224.68045 C1771.30018,1224.60916 1777.0378,1224.53787 1782.77544,1224.46904 C1782.78858,1224.47149 1770.84643,1226.32999 1770.18553,1226.27837" id="ink-layer"></path>
                <path d="M1726.2188,1183.58625 C1722.11045,1183.58379 1718.00211,1183.58134 1713.92388,1183.57888 C1718.03825,1183.58379 1722.12853,1183.58625 1726.2188,1183.58625" id="ink-layer"></path>
                <path d="M1571.30279,1277.55726 C1575.39345,1275.92001 1579.49271,1276.23959 1583.59771,1277.51301 C1579.49844,1277.52776 1575.40205,1277.54251 1571.30279,1277.55726" id="ink-layer"></path>
                <path d="M1819.66021,1237.62165 C1817.19277,1237.65115 1814.72534,1237.68065 1812.28325,1237.71015 C1814.75914,1237.67819 1817.20967,1237.65115 1819.66021,1237.62165" id="ink-layer"></path>
                <path d="M1768.02154,1205.30563 C1772.12194,1205.57359 1776.22235,1205.84154 1780.31646,1206.1095 C1776.2192,1205.83909 1772.11879,1205.57359 1768.02154,1205.30563" id="ink-layer"></path>
                <path d="M1716.38286,1230.72602 C1720.48223,1230.43594 1724.58159,1230.14831 1728.67779,1229.85577 C1724.58159,1230.14831 1720.48223,1230.43594 1716.38286,1230.72602" id="ink-layer"></path>
                <path d="M1748.34966,1225.79092 C1751.62734,1225.51313 1754.90501,1225.23534 1758.1856,1224.95754 C1754.90501,1225.23534 1751.62734,1225.51313 1748.34966,1225.79092" id="ink-layer"></path>
                <path d="M1721.30083,1202.84606 C1724.5814,1203.11402 1727.85908,1203.38444 1731.13677,1203.6524 C1727.85621,1203.38198 1724.57852,1203.11402 1721.30083,1202.84606" id="ink-layer"></path>
                <path d="M1674.58013,1250.00919 C1672.93319,1249.97477 1671.28911,1249.94036 1669.66216,1249.90594 C1671.3148,1249.94036 1672.94747,1249.97477 1674.58013,1250.00919" id="ink-layer"></path>
                <path d="M1726.2188,1225.52788 C1724.57101,1225.42463 1722.92605,1225.32384 1721.30083,1225.22059 C1722.95426,1225.32138 1724.58512,1225.42463 1726.2188,1225.52788" id="ink-layer"></path>
                <path d="M1694.252,1225.44184 C1692.60426,1225.39513 1690.95652,1225.34842 1689.33404,1225.30663 C1690.98739,1225.35334 1692.6183,1225.39759 1694.252,1225.44184" id="ink-layer"></path>
                <path d="M1782.77544,1223.15552 C1782.77544,1223.79223 1790.18146,1220.56198 1790.15231,1223.56606 L1782.77544,1223.15552 Z" id="ink-layer"></path>
                <path d="M1755.72661,1183.57888 C1754.07905,1183.58134 1752.43424,1183.58379 1750.80864,1183.58625 C1752.46444,1183.58379 1754.09278,1183.58134 1755.72661,1183.57888" id="ink-layer"></path>
                <path d="M882.787161,1066.99973 C885.449939,1056.13566 884.724531,1047.63494 894.207915,1054.5775 C899.412571,1058.38838 907.993617,1077.71628 907.34193,1084.26239 C906.539852,1092.33899 902.856785,1095.55672 895.254744,1092.98745 C886.514461,1090.02787 883.046656,1075.1255 882.787161,1066.99973" id="ink-layer"></path>
                <path d="M1361.87123,1001.04383 C1383.89283,1001.04383 1374.28474,1024.47421 1355.92729,1024.99872 C1347.49271,1025.24056 1335.3573,1023.57594 1338.09243,1012.2879 C1339.5532,1006.26384 1360.95137,998.141726 1361.87123,1001.04383" id="ink-layer"></path>
                <path d="M1125.67156,1047.14506 C1141.56771,1054.83424 1119.20212,1088.6011 1104.75671,1080.24125 C1086.25977,1069.5419 1119.13393,1051.9626 1125.67156,1047.14506" id="ink-layer"></path>
                <path d="M1086.99079,1079.1034 C1092.19478,1084.77759 1115.64315,1104.01489 1102.7184,1111.74899 C1086.82342,1121.2618 1074.72643,1089.86099 1086.99079,1079.1034" id="ink-layer"></path>
                <path d="M820.521457,1064.3534 C815.349732,1054.35489 822.465505,1028.19245 838.256629,1032.97285 C854.146971,1037.78764 829.265021,1061.69901 820.521457,1064.3534" id="ink-layer"></path>
                <path d="M1171.32505,1070.11481 C1181.63425,1065.96543 1179.67136,1078.24414 1181.23003,1082.20253 C1182.99566,1086.70308 1192.0728,1097.66028 1189.79624,1102.45039 C1186.41697,1109.55701 1178.33906,1105.02565 1173.95409,1100.41421 C1166.26423,1092.32492 1166.81073,1079.35003 1171.32505,1070.11481" id="ink-layer"></path>
                <path d="M1014.19598,1081.49468 C1005.60239,1081.49468 985.089301,1056.7248 997.141716,1052.56909 C1012.10188,1047.41174 1024.61137,1083.31528 1014.19598,1081.49468" id="ink-layer"></path>
                <path d="M1311.16279,1042.2284 C1319.0322,1044.1689 1329.44869,1066.446 1317.58833,1069.02937 C1304.45599,1071.8925 1302.11204,1048.3892 1311.16279,1042.2284" id="ink-layer"></path>
                <path d="M1263.44599,1084.02006 C1257.27191,1072.13641 1255.75124,1046.69775 1270.82246,1067.11604 C1274.08779,1071.53905 1277.45627,1069.75014 1275.7794,1077.04556 C1274.31471,1083.41635 1268.46481,1084.02006 1263.44599,1084.02006" id="ink-layer"></path>
                <path d="M938.323107,1022.56173 C944.61423,1032.02821 942.756404,1061.71435 929.610773,1044.15684 C924.020526,1036.69331 927.870318,1022.91668 938.323107,1022.56173" id="ink-layer"></path>
                <path d="M1254.55675,130.427347 C1266.76222,127.276968 1269.68901,156.046641 1262.57073,159.217984 C1252.60451,163.656066 1253.85344,135.239762 1254.55675,130.427347" id="ink-layer"></path>
                <path d="M2026.59859,1592.03251 C2015.27008,1591.37008 1999.40069,1588.28197 2016.56071,1580.24327 C2027.44744,1575.15188 2043.63555,1574.79667 2055.13131,1576.88635 C2063.05496,1578.3264 2074.94517,1584.89304 2062.853,1593.40536 C2055.77505,1598.38474 2035.20385,1592.27572 2026.59859,1592.03251" id="ink-layer"></path>
                <path d="M2013.90175,1612.56173 C2010.6258,1612.19209 2007.35323,1611.82246 2004.08404,1611.45679 C2006.71088,1606.69125 2014.34125,1605.68965 2013.90175,1612.56173" id="ink-layer"></path>
                <path d="M2028.67388,1591.55896 C2031.96098,1591.63025 2035.24808,1591.704 2038.50982,1591.77284 C2035.21321,1591.70154 2031.94196,1591.63025 2028.67388,1591.55896" id="ink-layer"></path>
            </g>
        </g>
    </g>
</svg>