<?xml version="1.0" encoding="UTF-8"?>
<svg width="3871px" height="2367px" viewBox="0 0 3871 2367" version="1.1" xmlns="http://www.w3.org/2000/svg" xmlns:xlink="http://www.w3.org/1999/xlink">
    <!-- Generator: Sketch 57.1 (83088) - https://sketch.com -->
    <title>composition-9</title>
    <desc>Created with Sketch.</desc>
    <g id="composition-9" stroke="none" stroke-width="1" fill="none" fill-rule="evenodd">
        <rect fill="#EBD8D0" x="0" y="0" width="3871" height="2367"></rect>
        <rect id="You-are-beautiful-☺️" fill="#FFFFFF" transform="translate(3449.000000, 2747.500000) rotate(-10.000000) translate(-3449.000000, -2747.500000) " x="1657" y="1299" width="3584" height="2897"></rect>
        <g id="Character/sitting" transform="translate(2708.500000, 1305.000000) scale(-1, 1) translate(-2708.500000, -1305.000000) translate(1740.000000, 579.000000)">
            <path d="M532.543155,1198.3131 C532.768256,1121.50646 534.245597,1044.67335 536.838983,967.910195 C538.764633,911.017508 541.231281,854.083227 546.003792,797.349352 C547.893502,774.873602 550.091543,752.378945 553.551282,730.082805 C555.694467,716.277461 557.663624,701.237539 563.491649,688.38318 C565.400275,684.176539 567.242694,681.440805 571.302071,679.289273 C586.313821,671.325961 606.881205,670.155664 623.430827,668.474898 C650.56396,665.720258 678.028123,664.926195 705.293668,665.487711 C703.695265,694.799961 702.098753,724.112211 700.502241,753.42257 C699.2727,775.998523 698.041268,798.574477 696.811727,821.148539 C696.03617,835.39818 694.163484,850.052414 694.458574,864.324742 C694.698808,875.952086 708.37887,887.078414 715.332398,896.157195 C723.861629,870.079805 732.39086,844.002414 740.921983,817.925023 C745.431562,829.563711 750.251362,841.102195 755.494882,852.427039 C758.954621,859.896898 762.476783,867.58607 767.063917,874.45282 C771.255706,880.725914 772.483356,881.610727 779.767913,880.540633 C788.537378,879.253117 795.195816,876.653508 800.378804,883.168602 C804.973504,888.944461 809.252307,894.835648 814.238568,900.318461 C869.297415,960.843039 954.143312,998.430555 1032.76016,1015.43484 C1079.06468,1025.44759 1125.77589,1033.57916 1172.06149,1043.79043 C1242.73172,1059.38052 1315.32004,1074.7532 1382.81806,1101.40155 C1393.39589,1105.57795 1404.08912,1110.0644 1413.74007,1116.14087 C1424.38222,1122.83935 1431.98267,1132.97499 1439.34668,1143.01043 C1457.33959,1167.53184 1478.43284,1207.7511 1450.68116,1233.34449 C1429.40631,1252.9654 1396.1652,1254.93543 1368.52701,1257.14368 C1339.95815,1259.42755 1311.28904,1260.54113 1282.6483,1261.47132 C1204.63865,1264.00476 1126.55523,1264.55304 1048.50964,1264.6269 C977.201935,1264.6816 905.882881,1264.2789 834.588418,1262.91576 C802.243923,1262.29752 771.076004,1263.0481 739.779456,1254.75204 C675.726044,1237.77612 611.856117,1220.10255 547.959708,1202.54999 C542.822118,1201.13959 537.682637,1199.72729 532.543155,1198.3131" id="Accent" fill="#FF5678"></path>
            <g id="Ink" stroke-width="1" transform="translate(257.257691, 60.499100)" fill="#000000">
                <path d="M926.186697,466.555346 C923.194184,469.663534 928.04425,472.057065 930.227158,472.7358 C929.87532,469.737268 928.428245,468.38169 926.186697,466.555346 L926.186697,466.555346 Z M516.030731,1050.853 C514.876854,1048.13428 513.155496,1045.89767 510.009763,1047.18141 C504.807859,1049.3008 515.330838,1050.82464 516.030731,1050.853 L516.030731,1050.853 Z M968.293748,612.772503 C970.444499,613.039081 979.238555,612.488909 976.520323,607.705628 C973.368915,602.162315 969.037148,611.055815 968.293748,612.772503 L968.293748,612.772503 Z M810.596601,563.731581 C815.219675,559.770721 819.362282,553.71505 819.411464,547.42305 C815.053214,550.313815 812.724652,559.260253 810.596601,563.731581 L810.596601,563.731581 Z M921.457693,484.204331 C925.308994,484.399065 921.784941,478.980534 921.822773,477.900987 C921.90222,475.584971 924.069995,473.596034 923.718157,470.848956 C923.704916,470.737409 919.82335,462.051878 918.799993,461.499815 C915.919084,459.949503 914.245017,462.791112 911.659197,463.670253 C907.830596,464.972893 905.961693,463.823393 901.851243,464.224206 C898.228826,464.577753 895.177673,466.339815 891.390687,466.337925 C890.492176,466.337925 889.497193,464.432175 888.464379,464.53805 C886.854626,464.702534 886.701406,466.753862 885.562662,466.855956 C881.561925,467.211393 881.329258,465.623268 877.597128,464.131565 C871.394567,461.651065 867.041991,467.421253 867.18197,474.240737 C867.365455,483.274143 876.793197,486.966534 884.017224,489.04244 C893.333361,491.717675 898.508783,493.330378 907.974358,491.645831 C910.711505,491.156159 913.492159,492.027737 915.652368,490.140893 C918.555977,487.603675 917.016213,482.251315 920.330299,479.778378 C920.706728,481.253065 921.081265,482.729643 921.457693,484.204331 L921.457693,484.204331 Z M593.701782,843.614034 C594.475447,849.516565 592.852453,852.55669 598.582114,856.511878 C601.964298,858.84869 606.216618,860.385768 609.799312,862.726362 C614.987975,866.116253 622.764349,868.294253 627.366615,872.192721 C630.28914,874.66755 630.80933,881.674206 634.861141,882.523096 C638.30953,883.243425 642.419981,877.015706 643.602232,874.211909 C644.91122,871.105612 644.0373,868.547596 644.56884,865.445081 C644.926353,863.363503 646.485032,862.93055 646.21075,860.484081 C645.925118,857.918503 643.435771,856.562925 642.353775,854.526721 C641.385275,852.702268 641.092076,850.114003 640.333544,848.673346 C638.542197,845.283456 634.567942,838.082065 631.024973,835.837893 C628.040026,843.668862 625.77767,835.733909 621.638846,833.434909 C620.095299,833.393315 618.54986,833.37819 617.006314,833.395206 C616.206166,832.633284 615.390886,831.886487 614.564256,831.156706 C612.65563,830.978987 609.511788,831.998034 607.790431,832.5293 C606.84463,832.313768 605.885588,832.187096 604.913305,832.151175 C603.623233,832.527409 603.110609,833.245846 603.382999,834.304596 C603.944805,834.047471 600.827445,835.938096 600.530464,836.140393 C594.377084,840.318675 588.732545,841.986206 587.591909,850.874034 C589.629164,848.455925 591.666419,846.034034 593.701782,843.614034 L593.701782,843.614034 Z M641.691714,526.265065 C635.112724,509.222971 637.201052,494.207628 637.83663,476.369581 C637.986067,472.181846 638.878902,463.197596 634.499845,460.418378 C629.035008,456.952862 624.487598,464.791393 621.633171,468.035706 C616.733923,473.603596 609.895783,478.715846 607.385628,485.941815 C605.168671,492.317003 607.455617,500.138518 609.146709,506.455096 C610.970213,513.261346 613.225002,522.411971 619.42378,526.181878 C626.044386,530.207018 635.020035,529.811878 641.691714,526.265065 L641.691714,526.265065 Z M873.609632,888.709221 C872.66194,875.646893 854.48554,880.224096 846.31193,884.251128 C840.200165,887.262893 836.78015,891.855221 832.93074,897.315346 C828.561141,903.514706 827.129198,905.246518 827.477253,912.616175 C827.796934,919.339237 827.422397,926.102003 829.107814,932.791034 C829.962817,936.186596 830.153869,936.785925 832.408658,939.124628 C832.402984,939.118956 836.312924,943.011753 835.225253,942.389737 C840.268263,945.267268 847.789271,945.749378 853.713767,946.195565 C862.182467,946.830815 864.219722,946.946143 867.656762,938.901534 C868.316931,940.302487 868.978991,941.70155 869.637269,943.102503 C869.849128,942.111815 872.20228,930.361581 871.659391,930.476909 C870.709807,930.681096 869.690234,933.41494 869.2249,934.11069 C869.519989,928.697831 873.375073,924.651893 875.242084,919.825128 C876.96155,915.387831 877.667117,910.36255 878.99313,905.772112 C880.275636,901.329143 881.711361,895.14869 880.470471,890.537456 C878.820994,884.413721 878.300804,886.156878 873.609632,888.709221 L873.609632,888.709221 Z M983.349005,600.774596 C986.301795,603.555706 983.670577,608.053503 984.054572,611.498221 C988.068551,609.038518 986.676332,607.720753 988.231229,603.7183 C989.231886,601.141378 992.182784,596.210628 994.759146,600.434284 C995.843033,602.209581 992.26034,604.648487 994.685373,605.692112 C996.111641,606.304675 999.906193,601.532737 1000.60041,600.782159 C1005.38427,595.605628 1008.44488,590.313768 1008.84023,583.254175 C1008.94994,581.321956 1008.92157,576.500862 1008.23492,575.391065 C1006.24684,572.188346 1000.95792,574.082753 1001.41191,568.227487 C1003.51726,569.274893 1005.62261,570.320409 1007.72797,571.367815 C1008.38246,564.782768 1001.27193,560.88619 998.300224,555.660503 C994.914257,549.706925 992.716216,545.375503 987.200306,540.2538 C984.65421,537.888628 980.511603,533.016487 977.205083,531.878331 C974.634397,530.993518 973.592124,532.29994 970.998738,532.324518 C965.577408,532.375565 957.428389,530.910331 965.499853,536.922518 C963.859834,537.692003 961.7053,538.170331 960.307406,539.382221 C959.270809,540.280268 958.88303,542.845846 957.668622,543.4603 C955.046862,544.783737 953.085272,542.201143 950.124915,545.141065 C947.009447,548.2398 950.198688,550.192815 949.50447,551.557846 C947.50883,555.484675 944.762225,553.531659 944.85113,559.517378 C944.996783,569.38644 950.682938,581.068612 953.743549,590.291081 C955.542462,595.711503 957.553234,604.187175 965.140448,601.96569 C964.852925,604.574753 964.192756,607.104409 965.887631,609.431768 C967.470901,607.569503 968.038382,603.481971 969.105245,601.294518 C970.679058,598.072893 973.240286,594.960925 975.048657,591.828159 C974.783833,596.779706 974.246618,598.156081 970.879567,601.90519 C975.309698,602.4478 980.766969,605.996503 983.349005,600.774596 L983.349005,600.774596 Z M659.206053,744.20119 C663.269213,741.125143 657.933005,737.693659 665.949612,739.438706 C667.994434,739.884893 665.940154,742.274643 669.027248,742.361612 C670.192475,742.393753 673.050685,739.527565 673.858399,738.854503 C674.598015,738.238159 677.919667,733.76305 678.453099,733.473784 C677.560263,733.954003 682.485993,732.046362 680.948121,733.284721 C683.881995,730.923331 686.115977,727.039987 687.434423,722.319096 C690.669062,710.746581 690.207511,696.91855 683.501783,686.977643 C680.690863,682.810706 678.447424,677.724925 674.212128,674.92869 C668.467334,671.136096 658.971494,668.880581 652.555182,666.471925 L654.63216,661.422065 C637.017567,669.379706 624.869701,687.955096 623.386686,706.827315 C622.853254,713.61655 620.918146,722.2378 625.055078,728.255659 C629.371713,734.538206 640.25788,741.142159 646.26939,734.163862 C645.355746,738.052878 648.036146,742.703815 652.148487,743.702065 C653.703384,744.08019 655.171267,742.951487 655.85981,743.05169 C656.735621,743.176471 658.583716,744.325971 659.206053,744.20119 L659.206053,744.20119 Z M497.511951,350.176034 C485.6762,348.767518 487.511054,370.135362 489.731794,376.552143 C491.521249,381.728675 497.93567,388.931956 501.329203,393.441096 C505.373447,398.812362 510.768295,402.822378 516.505523,406.250081 C518.472788,407.424159 519.912297,407.800393 521.609064,408.45644 C522.212484,407.857112 522.933185,407.545159 523.774947,407.51869 C524.514564,408.751378 525.562511,409.674003 526.916898,410.284675 C531.220291,411.623237 538.342171,411.41905 542.619082,411.23944 C549.512078,410.948284 557.560843,406.983643 564.417899,405.662096 C567.622272,405.043862 569.406052,404.7943 572.239671,403.13055 C573.66783,402.293003 576.463617,395.836518 576.862745,402.177675 C578.629501,401.090565 578.071479,399.302034 579.363442,398.506081 C580.596767,397.74605 584.540756,397.014378 586.01053,395.341175 C588.061026,393.008143 590.786824,387.686034 592.213092,384.49844 C593.130519,382.452784 595.075085,377.181721 594.921865,375.052878 C594.59651,370.543737 593.141868,371.58169 589.286784,369.713753 C586.710423,368.46594 585.227407,367.420425 582.652938,366.730346 C582.354065,366.65094 581.639039,368.188018 581.133982,368.055675 C580.250604,367.826909 579.894983,366.809753 579.276429,366.611237 C574.573907,365.087393 569.023948,360.57069 563.209165,361.007425 C560.69901,361.196487 558.347749,365.019331 557.057677,364.824596 C555.075278,364.523987 556.064586,360.455362 554.681825,358.980675 C551.153988,355.225893 539.384443,355.832784 534.814334,355.182409 C522.392187,353.412784 509.956798,351.762268 497.511951,350.176034 L497.511951,350.176034 Z M912.11129,674.960831 C913.244359,666.09569 914.640361,657.29105 904.913746,652.927487 C901.262955,651.290206 898.225043,651.881971 894.481564,651.437675 C889.618256,650.859143 890.325715,648.766221 886.716539,653.982456 C884.7209,651.420659 886.046912,650.588784 882.780116,650.284393 C881.431404,650.159612 875.546632,653.986237 874.016326,654.612034 C867.632171,657.222987 859.502067,656.980987 854.68605,662.246378 C850.006228,667.3643 846.221133,672.283706 844.248192,679.265784 C843.25321,682.782346 842.598716,686.425581 841.369175,689.877862 C840.039379,693.611846 837.048757,696.82969 836.025401,700.563675 C831.858202,715.7643 849.573051,729.637706 862.016006,733.670409 C863.618192,733.34144 865.190113,733.445425 866.731769,733.978581 C867.817548,734.695128 868.789831,735.540237 869.652401,736.513909 C873.568017,737.740925 874.498685,737.336331 878.482398,735.540237 C885.050038,732.581409 892.722374,731.573706 897.693503,738.497175 C899.227592,730.439331 904.824841,735.233956 907.51659,730.04419 C909.003389,727.181784 905.755509,719.252503 907.637652,717.189831 C910.832567,713.686503 920.797525,719.916112 920.540267,711.733487 C920.445687,708.751971 917.055937,707.765065 915.881252,705.409346 C913.772116,701.180018 914.943018,696.703018 917.875,692.98605 C918.149282,693.626971 919.210471,697.841175 920.615931,696.725706 C924.342386,693.763096 918.215488,689.097034 916.878126,687.48055 C914.67441,684.816659 912.669313,682.782346 913.161129,679.063487 C913.465677,676.756925 917.167541,674.357721 917.035129,672.11544 C916.932983,670.408206 912.35909,674.762315 912.11129,674.960831 L912.11129,674.960831 Z M739.031639,770.673721 C739.283222,776.888206 735.310859,777.699284 732.694774,781.973987 C731.983531,783.138612 731.936241,785.927284 730.941259,787.634518 C729.083706,790.835346 727.791742,791.033862 727.195888,794.151503 C727.262094,793.803628 728.19087,797.240784 728.213569,797.632143 C728.468936,802.018393 725.417782,805.525503 726.257653,810.348487 C727.436121,817.13394 732.594519,824.690768 736.232068,830.334284 C744.45486,843.092221 755.950123,852.982081 771.697706,853.883909 C782.215011,854.487018 806.959051,850.284159 809.21384,839.293956 C808.619877,838.019675 808.116711,836.707581 807.706234,835.357675 C807.464109,833.404659 808.188592,832.071768 809.879684,831.359003 C811.177322,831.0168 812.193112,830.296471 812.925162,829.194237 C812.569541,828.076878 811.983145,827.093753 811.169756,826.246753 C811.461063,824.775846 813.940952,824.704003 813.901701,823.754909 C813.827456,821.989065 812.27256,817.563112 811.856407,815.549596 C811.133816,812.070846 810.738471,808.758471 810.104784,805.257034 C809.590269,802.424878 807.851887,801.025815 807.405469,798.428096 C807.099029,796.656581 808.899834,795.04955 808.746614,793.170268 C807.562472,792.109628 806.599647,790.873159 805.861922,789.460862 C805.778692,787.993737 806.139987,786.632487 806.94581,785.379003 C805.179054,773.019987 787.681739,762.638565 775.235001,762.354971 C768.54819,762.201831 757.130483,761.721612 751.117081,765.213596 C747.097428,767.546628 744.401896,775.821893 739.031639,770.673721 L739.031639,770.673721 Z M470.596353,1206.30208 C461.80608,1202.34122 453.933234,1198.12135 444.518734,1196.19858 C437.724101,1194.80897 431.890401,1190.99369 425.06172,1189.74966 C409.934582,1186.99313 393.596819,1184.45024 379.088235,1179.14892 C363.531704,1173.46192 346.590521,1171.42572 330.646211,1166.69916 C322.796065,1164.3718 315.944684,1162.84607 307.82593,1162.3961 C299.915252,1161.95936 291.783257,1157.55042 283.876362,1158.29533 C277.267107,1158.91924 272.553235,1163.99367 267.381597,1167.61044 C260.675869,1172.30108 253.362938,1176.34513 246.155936,1180.21902 C238.508191,1184.33113 229.988417,1186.39191 222.440927,1190.40192 C216.174051,1193.72942 210.018779,1196.97752 203.557068,1200.02899 C169.226392,1216.24299 136.076074,1231.38878 105.116232,1253.94772 C115.100105,1256.98407 126.45728,1253.95717 136.378731,1252.88708 C150.48062,1251.36324 164.531437,1250.21941 178.493348,1247.60846 C186.663175,1246.08272 202.609376,1240.25771 210.410341,1244.73471 C217.265505,1248.66721 216.73964,1258.76314 217.723273,1265.51646 C224.194442,1263.02083 230.637236,1260.46092 237.165153,1258.11655 C242.29896,1256.27319 250.629573,1251.20442 255.861743,1251.02671 C270.436533,1250.53325 268.843805,1270.97658 267.425104,1280.35786 C275.941094,1277.4671 284.03904,1275.4498 292.293989,1271.86896 C298.910812,1268.9971 306.218068,1268.36374 312.645731,1264.93982 C328.616523,1256.432 346.337046,1251.10044 363.437124,1245.06178 C382.729568,1238.24608 401.980398,1231.30371 421.108273,1224.03236 C428.969769,1221.04328 436.723443,1217.09755 444.766533,1214.67377 C453.426285,1212.06282 462.292222,1210.10035 470.596353,1206.30208 L470.596353,1206.30208 Z M660.950109,426.797393 C659.728135,438.296175 660.987942,449.891378 661.339779,461.403393 C661.752149,474.88355 661.769173,488.220018 663.515121,501.620768 C666.666529,525.79619 671.102335,549.977284 679.762087,572.851956 C687.646282,593.686643 700.951808,608.418393 723.484566,612.921862 C743.728485,616.965909 763.45789,610.029206 776.341588,593.862471 C789.705753,577.0983 793.810528,555.92519 801.636084,536.495237 C805.462794,526.994846 808.296413,517.441518 811.487545,507.719925 C813.401846,501.8968 822.890119,485.179893 820.175671,479.197956 C817.525537,473.357815 801.887667,471.361315 796.473903,468.115112 C787.872791,462.955596 779.918607,452.611987 773.354749,445.053268 C768.956776,439.988284 766.387981,436.242956 763.421949,444.278112 C759.85628,453.933534 762.440208,465.088221 759.112881,474.454378 C755.838519,483.663612 748.692048,474.579159 747.958107,468.576425 C746.550755,457.051175 748.243738,443.958596 748.78852,432.374737 C749.80431,410.787581 751.221119,385.819987 770.697049,372.509987 C789.155297,359.895737 809.189249,355.9708 819.437946,334.19269 C823.546505,325.461784 828.375764,316.31494 825.80886,306.546081 C822.842829,295.272284 818.452422,283.482346 814.133896,272.647175 C805.837331,251.838956 792.84392,233.721096 781.484853,214.616331 C779.950764,212.039409 779.629192,208.736487 776.277274,208.008596 C772.486504,207.184284 763.637592,213.629425 759.96221,214.669268 C749.953746,217.497643 741.010254,211.629143 732.180258,218.270909 C725.094318,223.602471 719.086592,231.274628 709.526438,231.832362 C705.410313,232.072471 699.824413,228.398987 696.27766,229.276237 C691.758624,230.393596 690.451527,237.133675 688.709362,240.920596 C684.708625,249.609909 680.244445,260.498018 673.646539,267.601096 C671.406883,270.011643 667.449652,270.75655 665.537243,273.000721 C663.310828,275.607893 664.547936,280.901643 661.358695,281.37619 C659.510601,281.650331 658.035151,279.145253 656.480255,278.547815 C653.837688,277.530659 651.246193,277.335925 648.418249,277.419112 C643.186079,277.572253 637.757183,278.83519 633.158699,281.338378 C622.465476,287.157721 618.51392,296.007737 631.365461,301.329846 C636.516292,303.464362 642.109758,305.052487 647.682416,305.547831 C653.797964,306.09044 659.985393,304.1828 666.032843,304.927706 C677.694567,306.36269 681.281043,316.110753 684.300039,326.127284 C688.450213,339.906159 691.804023,353.857081 696.464929,367.492268 C700.272723,378.631831 707.19031,389.954784 709.187841,401.591581 C710.41549,408.740034 708.807629,408.206878 704.033227,412.627159 C700.395677,415.992471 698.208985,420.410862 694.268779,423.787518 C683.282358,433.20094 673.708962,430.692081 660.950109,426.797393 L660.950109,426.797393 Z M1370.06614,1096.0465 C1369.73132,1093.59058 1317.65742,1098.28689 1311.74049,1097.67811 C1301.63178,1096.63827 1290.87045,1099.40425 1280.41936,1099.05071 C1271.18077,1098.73686 1257.85444,1095.15035 1250.2275,1099.63302 C1247.39956,1101.29488 1247.32957,1103.25735 1242.86539,1102.41035 C1238.71711,1101.62385 1234.34751,1098.69338 1231.2415,1095.97655 C1222.59877,1088.41783 1217.31742,1076.5258 1211.66531,1066.72291 C1200.35164,1047.10578 1190.66286,1026.77967 1181.27295,1006.14917 C1161.93133,963.657378 1143.32175,920.923581 1124.00093,878.422331 C1114.44456,857.400471 1105.23057,836.3408 1094.92323,815.708409 C1090.52526,806.901878 1085.696,797.242675 1082.31003,788.018315 C1078.61952,777.9583 1073.76756,768.514628 1070.45915,758.201268 C1063.44698,736.358878 1055.06719,714.841675 1049.69882,692.379159 C1048.33876,686.692159 1047.8337,680.73669 1046.19558,675.130987 C1044.44774,669.143378 1040.87828,664.023565 1038.64052,658.226909 C1036.35925,652.320596 1036.35357,647.049534 1035.21861,641.012768 C1034.08554,634.9968 1031.32002,629.132081 1029.32816,623.369456 C1019.07379,629.549909 1007.39694,635.174518 997.959735,642.519596 C988.677647,649.747456 975.133779,655.801237 979.019129,668.867346 C982.552641,680.751815 988.810059,691.679628 992.532731,703.548971 C996.709387,716.864643 1001.83941,729.881596 1005.87041,743.227518 C1014.52071,771.87994 1022.09279,800.868893 1029.8389,829.77844 C1033.47834,843.36069 1038.02575,856.969409 1040.69291,870.784206 C1042.08134,877.970471 1041.85435,884.396706 1044.46854,891.357987 C1047.02221,898.162346 1049.44346,904.819237 1051.54124,911.78619 C1055.27526,924.1868 1058.83904,936.613878 1062.9703,948.885925 C1065.20617,955.52769 1066.99373,962.24319 1068.58268,969.066456 C1069.5455,973.189909 1072.81987,981.121081 1071.89866,985.390112 C1069.2542,997.682956 1052.98642,985.157565 1049.09351,980.139846 C1040.06111,968.501159 1033.58238,954.262862 1026.81801,941.230784 C999.658394,888.902065 986.303687,832.461237 972.30016,775.496706 C968.619104,760.521065 965.064784,745.679659 960.927852,730.85905 C956.592301,715.329456 955.330603,699.092768 950.21382,683.650143 C944.926794,667.695159 939.533838,652.318706 935.65038,635.902409 C933.85525,628.302096 931.956082,620.705565 930.361462,613.061768 C929.510241,608.979909 929.474301,601.472237 924.035946,600.659268 C927.537301,626.273456 928.831156,656.281456 939.043913,680.303737 C948.301411,702.0913 955.659741,731.942378 946.300097,755.074175 C941.799977,766.198612 934.679988,775.699003 929.326756,786.295956 C923.339837,798.144503 919.439355,811.74755 915.427268,824.373143 C907.119354,850.516706 904.667838,878.012065 899.108421,904.754956 C896.193463,918.77205 896.136715,928.359409 898.665786,942.151518 C899.479175,946.592596 898.043449,950.122393 901.785037,952.969675 C905.549324,955.833971 914.254475,956.412503 918.905923,958.055456 C933.026729,963.044815 945.167027,966.705065 960.120138,968.340456 C974.244727,969.886987 987.508637,972.690784 1000.96171,977.315253 C1025.20447,985.647237 1050.41385,991.874956 1074.23479,1000.22774 C1087.26414,1004.79738 1099.83005,1012.93841 1112.35623,1018.77666 C1125.38558,1024.85124 1139.20752,1028.81966 1151.48968,1036.40107 C1164.72144,1044.56478 1177.80565,1054.04627 1190.34318,1063.19878 C1201.95761,1071.67635 1207.5246,1082.21469 1212.35953,1095.40747 C1221.55082,1120.4885 1244.72483,1153.0375 1223.31947,1178.34541 C1230.82345,1181.60485 1239.41133,1182.89992 1246.6013,1186.38435 C1249.08308,1187.58867 1249.8227,1188.76275 1252.64497,1189.45472 C1256.33548,1190.36033 1261.0853,1189.63622 1264.86472,1189.882 C1270.33144,1190.23744 1281.8513,1194.16805 1287.18183,1192.57992 C1292.16431,1191.09389 1292.38184,1183.86982 1295.96075,1180.3041 C1301.26859,1175.01791 1306.36267,1178.42671 1312.85654,1177.83872 C1322.47533,1176.96714 1332.05819,1175.7061 1341.68266,1174.86666 C1361.10184,1173.17455 1380.46616,1172.77563 1399.94966,1172.821 C1389.80689,1161.56989 1352.5064,1182.04725 1351.59086,1161.66632 C1350.52968,1138.08266 1379.32931,1145.15738 1393.32905,1138.35491 C1380.60425,1138.72925 1367.87945,1138.85214 1355.17923,1139.85985 C1347.47285,1140.47241 1332.65593,1144.15913 1328.29768,1135.6948 C1323.61408,1126.59333 1331.15022,1116.06633 1338.20778,1111.3133 C1347.97412,1104.73771 1359.26131,1100.5443 1370.06614,1096.0465 L1370.06614,1096.0465 Z M308.733899,781.5883 C306.399662,786.239237 310.014513,788.112846 311.65264,791.861956 C313.914995,797.042268 311.681014,796.011878 311.227029,800.885909 C310.922482,804.1548 311.815317,805.69755 311.629941,808.758471 C311.552385,810.061112 309.698615,811.791034 309.481081,813.273284 C309.08952,815.933393 310.529028,817.158518 310.372026,819.090737 C310.29447,820.049284 311.53536,820.21944 311.281886,821.60905 C311.06246,822.82094 308.270456,823.673612 308.105887,824.435534 C307.160086,828.853925 309.81022,826.641893 310.215023,828.736706 C310.892216,832.232471 308.92495,832.8318 307.805122,836.047753 C305.873797,841.592956 307.740808,844.17744 308.934408,849.376659 C309.944524,853.761018 308.444484,853.791268 307.875111,857.979003 C307.528948,860.518112 308.26289,860.828175 308.25154,863.189565 C308.217491,871.345721 306.392096,879.827065 306.316432,888.469112 C306.13673,908.921893 304.404023,929.077846 304.144873,949.481471 C303.889507,969.529659 302.429191,989.827409 301.551487,1010.12705 C301.123985,1020.02447 300.119545,1029.88786 299.686368,1039.78717 C299.181311,1051.28217 300.306814,1062.72235 299.338314,1074.17197 C298.458719,1084.57986 298.986476,1095.02178 298.555191,1105.45803 C298.352789,1110.40958 295.80291,1125.39278 299.056465,1128.72217 C303.282303,1133.04414 320.40508,1128.44236 325.94369,1128.74675 C336.355065,1129.31583 347.332028,1131.41064 357.533436,1133.55839 C381.709995,1138.64796 405.941411,1145.12902 430.127429,1149.69488 C450.293793,1153.50071 469.213592,1163.1826 487.983954,1171.37657 C486.264488,1154.14163 483.228468,1137.3283 482.666662,1119.95724 C482.163496,1104.34446 483.635162,1088.81297 483.288999,1073.2191 C482.549383,1039.94788 480.663456,1007.04533 481.406856,973.779784 C482.165388,939.952721 484.893077,905.412893 489.605057,871.907237 C491.770941,856.511878 493.460141,840.110706 498.970376,825.48294 C501.46729,818.8563 505.532342,813.997393 503.845033,806.707143 C502.015855,798.811893 498.402896,790.557425 495.731954,782.900393 C493.768472,795.370956 486.848993,878.469596 458.422005,853.488768 C447.322087,843.735034 442.182606,822.603518 439.700824,808.756581 C436.348906,790.037503 437.551965,770.363659 437.638979,751.421487 C437.813006,712.828159 442.059651,673.455893 445.954459,635.074315 C446.731907,627.407831 450.605907,620.552425 440.765796,620.919206 C431.540455,621.26519 422.059748,623.448862 412.885481,624.524628 C404.944537,625.454815 396.971437,623.189846 389.40503,624.203221 C385.935833,624.668315 382.867655,626.721534 379.364409,627.241456 C374.943736,627.897503 370.324445,626.937065 365.873507,626.942737 C358.373307,626.95219 349.677614,626.912487 343.452354,631.576659 C336.913087,636.475268 331.30638,644.582268 329.110231,652.4208 C326.915973,660.261221 327.502369,669.084768 326.113934,676.915737 C324.943032,683.515909 324.693341,691.660721 323.598104,699.15705 C318.852075,693.212925 319.156623,701.792581 319.10555,704.327909 C319.04691,707.390721 315.749849,713.58819 316.599178,715.384284 C317.147742,716.543237 320.832582,715.930675 321.144696,716.838175 C321.785949,718.709893 319.567101,719.500175 319.527377,720.899237 C319.370374,726.3518 319.682488,731.987753 319.669247,737.48569 C318.382958,736.502565 317.092886,735.51944 315.804705,734.534425 C315.127512,736.005331 314.913761,737.922425 314.268725,739.410346 C313.977418,740.08719 311.257295,739.900018 311.128666,741.231018 C310.960314,742.968503 314.766216,746.314909 315.500157,748.213096 C316.81482,751.604878 317.6528,750.266315 315.424493,753.922784 C312.859482,758.133206 308.660126,758.367643 309.331645,764.487596 C310.689815,763.447753 311.873957,762.237753 312.887856,760.859487 C313.523434,764.512175 311.934488,767.731909 311.741545,771.369471 C311.614808,773.747878 314.51085,783.240706 312.327942,784.828831 C311.410515,785.498112 308.957108,781.845425 308.733899,781.5883 L308.733899,781.5883 Z M500.530947,482.098175 C500.547972,474.085706 488.844633,461.762612 484.819305,455.056565 C478.399209,444.357518 471.494863,434.671846 463.332603,425.216831 C455.13251,415.718331 446.378178,406.664128 438.425885,396.957659 C435.134498,392.943862 432.692441,388.255112 429.336739,384.324503 C425.143059,379.41644 424.257789,380.925159 419.063451,381.055612 C415.113787,381.155815 412.537426,380.484643 408.886635,381.656831 C406.947743,382.278846 405.69172,383.203362 403.609067,383.776221 C402.305753,384.137331 400.586287,382.872503 398.836556,383.483175 C394.508571,384.990003 393.036905,388.846878 387.814193,388.767471 C387.188073,388.758018 385.182976,387.273878 384.893561,387.357065 C384.539831,387.459159 382.916837,388.697518 382.973585,388.684284 C382.62553,388.76369 382.725785,391.219612 381.798901,391.645003 C380.213738,392.374784 379.090127,389.928315 377.646835,390.087128 C373.999827,390.48794 371.287271,394.250284 367.252484,395.161565 C362.069496,396.331862 357.586401,394.624628 352.636079,397.035175 C348.68074,398.959831 346.681317,403.338518 343.391822,398.812362 C340.41255,405.134612 334.928797,403.219409 329.450719,405.8833 C321.812432,409.598378 313.532892,411.48144 305.399005,414.287128 C288.664006,420.059206 271.811728,425.973081 255.498556,432.921128 C221.659695,447.335253 188.88959,463.318596 155.80737,478.814159 C123.453417,493.969409 93.5282804,514.064862 64.4108575,534.29455 C50.1349405,544.210878 35.942254,554.628221 24.8063956,568.208581 C21.4317784,572.322581 15.7966974,578.712893 18.0704025,584.501987 C20.4765196,590.623831 30.6457696,594.423987 36.3962384,595.598065 C43.9361622,597.140815 52.2251603,597.656956 59.9012794,598.169315 C68.1883859,598.725159 77.0902628,598.9993 85.2922472,598.887753 C101.457874,598.664659 117.313278,597.089768 133.554569,596.73244 C152.029842,596.324065 170.141927,592.429378 188.579367,592.198721 C208.847878,591.945378 228.885613,589.406268 249.18439,590.19844 C288.310276,591.729846 327.402114,592.85855 366.643389,593.047612 C371.525612,593.0703 376.313256,592.482315 381.108466,593.333096 C384.99949,594.021284 387.81041,595.382534 391.983283,595.083815 C395.870525,594.805893 399.474026,593.106221 403.435039,592.900143 C408.636943,592.629784 413.965585,593.486237 419.193972,593.378471 C436.846398,593.017362 457.782644,591.414112 474.799491,596.993346 C481.558184,599.21105 490.055258,605.667534 485.93535,614.03544 C481.86084,622.308815 471.453248,615.564956 465.010453,619.325409 C459.008401,622.828737 462.33762,632.387737 462.761339,638.103096 C463.561486,648.932596 463.70714,659.705378 463.421508,670.557565 C462.791605,694.523128 461.331288,718.460331 461.051331,742.433456 C460.917027,754.077815 461.083488,765.718393 461.698259,777.347628 C462.241149,787.611831 461.879853,798.783534 465.390665,808.578862 C470.280455,796.348409 470.87631,782.845565 472.815201,769.957175 C474.914879,756.013815 476.967267,742.070456 478.962906,728.110081 C480.148941,719.8178 481.380373,670.014956 497.615989,676.520596 C514.874962,683.434612 508.874802,721.748128 509.657925,735.523221 C510.397541,748.52505 511.727337,761.477721 514.674452,774.180831 C516.045863,780.085253 519.813934,805.158721 527.387906,806.778987 C532.94354,780.539003 538.816963,754.340612 542.900931,727.818925 C544.703627,716.112175 546.294464,704.316565 547.013273,692.488815 C547.38781,686.33294 546.931934,671.535018 555.835702,670.818471 C582.007901,668.710425 564.450056,778.92819 584.007324,792.794034 C591.240809,778.41205 594.068753,763.413721 596.032235,747.470081 C596.925071,740.211971 598.835589,732.04069 597.706303,724.761784 C596.225179,715.238706 594.617317,709.400456 596.607282,699.559753 C598.23406,691.5038 599.404961,683.232315 601.285213,675.246315 C602.641491,669.491253 606.180678,666.681784 608.047689,661.492018 C613.308233,646.879378 612.969636,628.381503 615.067422,613.042862 C617.191691,597.507596 619.431347,582.235128 616.677175,566.563737 C613.951377,551.043596 602.59231,546.109065 589.678346,539.701737 C576.666019,533.247143 564.111459,526.153518 549.822301,523.306237 C533.777736,520.111081 519.05351,517.010456 502.630625,516.161565 C473.647506,514.666081 445.243217,516.401675 416.390618,517.774268 C384.309056,519.301893 352.195336,517.398034 320.130798,516.957518 C304.544001,516.743878 288.664006,516.443268 273.103692,516.696612 C265.30651,516.825175 257.741995,518.176971 249.89374,517.980346 C243.206929,517.813971 230.135962,519.874753 224.283347,516.320378 C219.690538,513.531706 219.696213,507.353143 223.573996,503.948128 C227.415839,500.573362 234.950088,500.395643 239.74719,499.353909 C255.07862,496.0283 270.360869,494.118768 285.802013,491.449206 C294.694432,489.912128 302.154908,489.401659 311.066243,489.834612 C319.72032,490.258112 328.546533,487.785175 337.297082,487.365456 C355.840452,486.480643 374.491644,485.603393 393.044472,485.314128 C429.000034,484.754503 464.541336,482.011206 500.530947,482.098175 L500.530947,482.098175 Z M519.293743,833.612628 C516.401484,834.728096 517.137317,848.539112 516.874385,851.297534 C516.093153,859.557675 515.236258,867.808362 514.500425,876.072284 C512.801767,895.150581 511.523044,914.270471 510.47888,933.394143 C509.436608,952.519706 508.1995,971.705768 508.261923,990.865362 C508.290297,999.021518 508.655376,1007.17011 508.490807,1015.32627 C508.367853,1021.42353 505.68367,1032.83157 510.889358,1037.16299 C514.381254,1040.06888 521.221285,1038.76057 525.30147,1038.4921 C533.363476,1037.96461 541.446289,1037.42578 549.529103,1037.36528 C558.866048,1037.29344 568.138679,1038.29736 577.481299,1038.05347 C581.065884,1037.96083 585.068513,1037.36339 588.617157,1038.03835 C591.187844,1038.5318 593.993089,1040.74761 596.404881,1040.84403 C598.179203,1040.91588 600.473716,1039.15571 602.435307,1038.80972 C605.488352,1038.27089 609.071045,1038.8948 612.177055,1038.85699 C614.386445,1038.83052 619.713195,1037.83227 621.744776,1039.1368 C623.725282,1040.4073 622.962967,1043.30185 624.77323,1043.94277 C625.461773,1044.18666 629.392521,1039.5206 630.065931,1039.22566 C633.075469,1037.91357 637.463984,1038.9345 640.6362,1038.97042 C649.768853,1039.07252 658.90718,1038.49588 668.043615,1038.58285 C676.949276,1038.66603 685.539038,1039.7021 694.087186,1040.73627 C699.739291,1041.42067 706.229376,1039.70588 712.229536,1039.20297 C721.821848,1038.39946 731.455775,1038.54882 741.072677,1038.74166 C745.900044,1038.83808 750.731194,1038.91371 755.558562,1039.03282 C756.701089,1039.06117 758.963444,1038.61688 760.066248,1038.94585 C764.496379,1040.27496 761.685459,1040.35247 764.81606,1042.37355 C760.709393,1039.721 774.00546,1037.99297 774.771559,1037.9873 C780.805768,1037.94192 786.334919,1040.90453 791.357121,1040.32411 C796.797367,1039.69642 802.351109,1036.33678 808.336137,1037.37852 C811.133816,1037.8663 813.456702,1040.99339 815.535572,1041.35261 C818.895057,1041.93303 820.043259,1039.50736 823.124678,1038.29358 C829.272383,1035.8698 836.405612,1037.98163 842.823817,1037.56191 C851.833515,1036.97392 860.5084,1036.95313 869.552147,1036.83213 C886.052587,1036.61471 902.551136,1036.34246 919.053468,1036.50316 C934.248703,1036.65063 946.4571,1042.74033 961.569105,1042.40947 C969.494915,1042.23742 977.555029,1041.54546 985.46949,1041.73641 C992.266015,1041.89711 995.737104,1046.96021 990.599514,1052.90811 C987.126533,1056.92947 980.748053,1057.35486 975.850696,1058.09032 C968.581272,1059.18499 961.442367,1060.75799 954.197533,1061.97177 C936.970718,1064.85686 918.939972,1064.768 901.514538,1065.29171 C830.448959,1067.43 759.368247,1073.74469 688.259161,1074.41208 C657.036386,1074.70513 625.478797,1077.3331 594.354385,1076.10797 C576.991374,1075.42357 560.018033,1079.15377 542.520719,1076.47286 C535.143473,1075.34227 527.891072,1074.65597 520.453295,1074.12471 C519.484795,1074.05664 513.804316,1072.95819 512.731777,1073.44597 C509.563345,1074.88852 511.331992,1073.57075 510.002196,1077.23289 C507.82118,1083.24886 508.73104,1092.84378 508.74239,1099.24922 C508.765089,1109.45671 509.26258,1119.68499 509.60496,1129.8868 C509.93599,1139.66133 510.47888,1149.4283 511.061493,1159.19338 C511.301727,1163.23364 509.71089,1178.42482 512.828249,1181.43658 C515.240041,1183.76961 526.523444,1182.66549 529.576489,1182.01322 C533.23863,1181.2305 533.58101,1181.03766 537.545807,1181.50275 C540.470223,1181.84685 541.510604,1181.76177 544.438803,1181.44603 C552.824273,1180.54042 562.427934,1180.37972 570.847452,1181.89411 C577.381044,1183.06819 584.243775,1179.96946 586.744472,1186.8381 C590.972201,1181.66535 590.87573,1184.64497 595.521503,1185.68482 C600.307255,1186.75302 598.841264,1183.66374 602.896858,1183.23835 C605.755067,1182.93963 608.304946,1185.19703 611.395823,1185.21783 C616.501256,1185.24997 621.094065,1183.90196 626.553227,1184.58258 C650.656014,1187.58867 675.099289,1190.29038 699.404478,1190.51347 C709.488606,1190.608 719.453563,1190.76303 729.482834,1191.06932 C734.599616,1191.22435 739.438333,1191.7575 744.469993,1192.36061 C749.212238,1192.93158 752.938693,1191.79153 757.868207,1191.54197 C768.769507,1190.98613 780.20613,1192.6461 791.109321,1193.24164 C796.235562,1193.52146 802.655657,1192.64042 807.57193,1193.31349 C812.512793,1193.98844 812.885439,1197.73944 816.814295,1199.91366 C817.43474,1187.74371 842.897589,1195.53875 849.525761,1195.55388 C852.128605,1195.56144 855.308387,1194.45353 858.450337,1194.65394 C863.65035,1194.98858 868.886303,1195.07366 874.093882,1195.25705 C882.398013,1195.54821 890.424078,1196.05111 898.312057,1195.0453 C908.617502,1193.73321 919.810109,1195.13227 930.219592,1195.06799 C941.554068,1194.99614 952.890437,1194.843 964.219238,1194.47244 C975.697477,1194.09621 987.154907,1193.39478 998.631254,1193.02611 C1008.59999,1192.70471 1019.17594,1193.50822 1029.00281,1192.77844 C1031.5508,1192.58938 1033.98718,1190.72333 1036.26467,1190.62691 C1039.42175,1190.49267 1042.95715,1191.84825 1046.60038,1191.5363 C1058.08429,1190.55696 1068.78508,1190.39625 1080.39195,1190.43596 C1100.30295,1190.50402 1120.9895,1186.82864 1140.07954,1181.55758 C1148.87927,1179.12813 1158.02517,1178.99578 1166.76248,1176.3905 C1176.8485,1173.38063 1186.08519,1168.13414 1195.36727,1163.27902 C1202.6367,1159.47508 1212.85702,1157.70546 1209.89667,1148.08785 C1206.73769,1137.81986 1201.69279,1127.86383 1197.93229,1117.77735 C1194.6636,1109.00863 1192.57905,1100.46489 1185.49311,1093.8685 C1178.49041,1087.34963 1169.54502,1082.97283 1162.08455,1076.96253 C1145.82434,1063.86428 1128.851,1056.03142 1109.59638,1048.27419 C1090.18855,1040.45457 1072.48316,1028.92364 1052.09548,1023.72442 C1033.16433,1018.89577 1014.92551,1012.42227 996.376465,1007.4745 C976.081472,1002.06164 955.152792,1000.09917 934.683772,995.287534 C915.065972,990.674409 895.805685,983.890846 875.928735,980.378065 C854.423117,976.5798 832.718881,974.624893 811.29271,969.989081 C793.12766,966.060362 775.796807,958.363628 757.537177,955.293253 C752.20286,954.395206 746.435367,953.846925 741.273187,952.171831 C736.445819,950.604503 732.991755,947.432034 728.111423,946.146409 C716.845044,943.180018 707.054114,939.135971 696.387373,934.314878 C691.902386,932.286237 689.416821,929.794393 685.52958,927.279862 C680.893265,924.283221 674.955527,923.2188 669.751732,921.566393 C659.728135,918.384471 649.744262,915.255487 640.751588,909.66869 C631.429776,903.879596 622.866495,897.334253 614.286191,890.569596 C610.652424,887.7053 606.767074,884.829659 603.042511,882.150643 C598.453485,878.851503 593.745289,878.254065 588.602025,876.098753 C566.294367,866.74394 556.526137,844.78244 544.374488,825.673893 C543.233853,841.148659 528.420721,848.329253 519.293743,833.612628 L519.293743,833.612628 Z M836.33184,562.544268 C837.869712,555.613237 840.062078,545.666659 831.419351,545.278768 C830.86322,545.254503 825.137342,546.683815 824.547162,547.063831 C821.601939,548.956346 820.487785,555.269143 819.364174,558.333846 C818.374866,561.03744 817.688215,564.63719 815.490174,566.679065 C813.322399,568.696362 811.058151,568.745518 809.034138,571.161737 C802.876975,578.514378 798.289841,591.143753 794.565277,600.020237 C799.617745,598.798893 795.946147,602.186893 798.095006,604.117221 C801.452599,607.130878 800.406543,606.586378 805.179054,607.053362 C813.494534,607.866331 817.289087,605.652409 823.790522,600.475878 C829.30454,596.085846 831.075079,593.210206 834.249187,586.872831 C838.787139,577.820518 836.573965,572.052221 836.322382,562.538596 C838.597979,564.631518 840.873575,566.72444 843.149172,568.819253 C842.443605,566.075956 841.736146,563.332659 841.030578,560.591253 L836.33184,562.544268 Z M597.135039,15.2574871 C601.55382,0.140049598 609.80877,-0.977309777 620.906796,9.88433085 C622.665985,5.99909647 624.748639,-0.0338879016 629.865421,5.68434189e-13 C633.491621,0.0247214734 634.132874,2.95519022 636.565474,4.93278397 C639.501239,7.3244246 641.790077,8.1638621 645.516532,8.80100272 C653.648527,10.1906121 661.205476,9.7141746 668.858896,13.3479558 C675.831339,16.6565496 679.147317,21.4889871 684.515682,26.4443152 C689.537884,31.0801277 693.201916,28.0778152 698.93536,30.4240808 C705.310058,33.0331433 708.160701,40.7544558 709.395917,47.010534 C710.903524,54.663784 709.333494,57.1026902 714.656461,62.6592371 C719.676772,67.9019402 722.340147,74.5777371 722.945459,81.7810183 C723.514831,88.5929402 722.011008,96.6772527 718.076477,102.420971 C713.648237,108.89069 709.059212,107.102159 714.824814,114.78755 C717.72653,118.657659 718.053777,126.895112 721.543782,129.375612 C727.649872,133.710815 735.534067,126.717393 740.927024,124.957221 C748.255088,122.565581 746.620744,126.566143 749.834575,131.391018 C754.584387,138.518675 757.408548,131.164143 763.887283,132.587784 C766.26881,133.111487 766.966811,135.680846 767.80479,135.989018 C770.763255,137.085581 767.621305,136.679096 771.001597,135.459643 C773.248819,134.650456 771.709056,130.294456 776.235658,132.780628 C779.381392,134.51055 777.013107,137.586596 778.443157,139.813753 C781.252186,144.19244 785.423167,141.640096 787.500146,147.291175 C789.565775,152.919565 792.363453,160.383753 793.511655,166.537737 C794.911441,174.013268 791.625729,180.518909 792.106195,187.591737 C792.609361,194.978409 799.931751,199.956425 804.486728,205.134846 C826.824651,230.514596 836.282658,263.895471 843.569108,296.160878 C850.342933,326.148081 838.42206,360.096143 815.015382,380.420362 C803.149365,390.724268 788.324884,395.142659 776.929876,406.482628 C771.871734,411.515471 771.93794,413.109268 777.964582,417.234612 C782.901662,420.613159 787.430156,424.918112 792.662326,427.587675 C806.113505,434.450643 819.220412,439.353034 834.239729,442.234346 C841.813701,443.688237 849.699788,443.105925 857.362666,442.833675 C865.33955,442.550081 874.343573,443.680675 882.140755,442.707003 C889.028076,441.846768 894.475889,436.290221 901.686674,436.880096 C904.512727,437.110753 906.245434,438.1903 909.12256,437.935065 C912.900088,437.602315 916.077979,435.603925 920.09574,435.706018 C926.203722,435.86105 932.247389,435.963143 938.152969,436.186237 C944.860588,436.4358 952.744783,434.600003 959.420245,435.758956 C965.755219,436.857409 973.289468,442.551971 978.799703,445.871909 C985.592444,449.965112 993.747139,454.699237 999.828638,459.69994 C1005.57343,464.426503 1009.62524,471.947409 1014.10645,477.815909 C1018.84491,484.024721 1024.32866,489.571815 1029.09361,495.752268 C1047.85451,520.082721 1067.61607,550.051018 1073.48193,580.682925 C1074.96684,588.434487 1074.8855,596.089628 1073.76756,603.875221 C1072.7669,610.82894 1066.23899,613.472034 1066.04037,620.947565 C1065.63746,636.076346 1072.88986,653.615675 1077.10056,667.954175 C1081.53637,683.050815 1087.092,697.714503 1093.97176,711.911206 C1096.63513,717.409143 1100.01164,721.954206 1101.6876,727.648768 C1103.73431,734.604378 1106.85167,741.202659 1109.13105,748.218768 C1128.85289,808.90594 1159.42495,865.399706 1181.70991,925.166143 C1193.68564,957.28219 1206.34991,989.122206 1219.40764,1020.82799 C1225.83341,1036.43699 1232.7945,1051.56766 1239.78019,1066.93844 C1240.69951,1068.95763 1241.35211,1072.85042 1242.9524,1074.24003 C1245.6555,1076.58819 1243.27208,1075.25152 1247.05718,1074.8526 C1250.32208,1074.5085 1253.71183,1073.02058 1257.007,1072.46852 C1264.9593,1071.13374 1273.10453,1070.90497 1281.12492,1070.11469 C1290.34081,1069.20341 1298.45388,1068.72886 1307.67544,1069.17505 C1316.25764,1069.59099 1324.70553,1067.04242 1333.248,1066.47713 C1351.5606,1065.26524 1369.61972,1065.90427 1387.91907,1066.24647 C1402.17796,1066.51305 1420.4357,1064.81905 1433.62962,1071.43624 C1446.84814,1078.06477 1442.28748,1093.32967 1431.07785,1099.14335 C1417.64559,1106.1103 1401.83559,1107.10477 1388.48655,1114.20407 C1398.50447,1117.28578 1409.32822,1116.49172 1419.53341,1118.8966 C1426.11051,1120.44691 1436.27787,1121.59263 1441.23575,1126.39103 C1446.03664,1131.04008 1445.5505,1139.04688 1442.38206,1144.49944 C1438.43618,1151.28678 1430.84708,1152.45897 1424.0165,1154.8128 C1427.09414,1158.88899 1431.878,1158.57136 1434.64731,1163.94263 C1438.32647,1171.0873 1436.02628,1178.71975 1431.52049,1184.89642 C1421.7428,1198.30663 1402.38037,1199.43911 1387.26458,1201.35053 C1372.41172,1203.22982 1356.81358,1203.67978 1341.86047,1202.66263 C1333.34069,1202.08221 1324.93442,1201.65682 1316.52057,1200.45816 C1306.84125,1199.078 1307.77191,1205.85589 1304.32352,1212.7926 C1300.98674,1219.5081 1296.17072,1222.38563 1288.71781,1221.97158 C1280.67094,1221.52161 1271.74825,1220.97522 1263.77705,1219.62721 C1256.14443,1218.3378 1249.53518,1214.39963 1242.21468,1212.75857 C1235.62245,1211.27821 1230.38839,1208.88846 1224.12529,1205.68385 C1216.93721,1202.00658 1213.11428,1195.8526 1206.82281,1191.62705 C1200.36489,1187.28996 1193.60809,1194.10377 1187.25798,1197.49555 C1171.8244,1205.73678 1154.887,1209.38191 1138.00635,1213.43352 C1120.79277,1217.56642 1104.0294,1222.8545 1086.52263,1225.71502 C1078.3755,1227.04413 1070.63696,1226.86641 1062.52766,1227.73042 C1053.18315,1228.72678 1045.08331,1232.29439 1035.54018,1232.3133 C1001.83941,1232.38325 967.921103,1238.4635 934.205196,1239.58842 C900.827887,1240.702 866.909579,1237.94169 833.56821,1240.17641 C816.521097,1241.32024 800.022548,1239.02691 783.070015,1239.90794 C765.582158,1240.81922 747.475748,1239.89849 730.023832,1238.56371 C693.807229,1235.79394 658.716128,1236.51427 622.879736,1234.72007 C604.238003,1233.7861 585.231191,1232.0316 566.824016,1229.07277 C548.776245,1226.17255 528.352623,1229.51328 515.588096,1213.8211 C514.184527,1219.97319 513.800532,1226.35216 509.302304,1231.2035 C504.571408,1236.30441 496.950146,1238.3633 490.617064,1240.68688 C474.445762,1246.61777 458.098541,1252.25183 441.815635,1257.88022 C426.382058,1263.21746 410.848226,1268.9971 395.291694,1273.88814 C378.940691,1279.02875 363.386051,1285.26025 347.311221,1291.29513 C332.745889,1296.76282 317.654692,1301.08289 303.619008,1307.6755 C297.828816,1310.39422 291.764341,1310.61921 286.229515,1313.15832 C279.393267,1316.29297 273.04316,1319.30096 265.718879,1321.56214 C259.43687,1323.50192 253.690185,1324.89721 247.610577,1327.4193 C241.591501,1329.91682 233.064161,1334.25391 226.765128,1330.93208 C222.336889,1328.59905 220.598507,1323.23724 219.236554,1318.76024 C217.530329,1313.1621 218.984971,1303.44807 212.353016,1303.69952 C205.800508,1303.94719 196.550576,1310.25053 190.126697,1312.38883 C182.44112,1314.94874 174.573949,1319.22911 166.657597,1320.67922 C158.731786,1322.12933 152.493284,1321.69449 148.335544,1314.32861 C143.655722,1306.04011 144.435062,1297.25627 145.834847,1288.23988 C132.343944,1288.20774 119.848025,1289.47446 106.239843,1289.93577 C98.7434259,1290.191 91.4531935,1290.52375 83.9775841,1289.69755 C77.2302413,1288.95453 67.1990782,1291.06825 61.346463,1287.98275 C49.4501808,1281.70588 51.2207198,1263.95291 57.22088,1254.24455 C60.5538819,1248.85438 65.7765939,1245.2206 71.0844278,1241.94982 C77.7409737,1237.85094 82.6213058,1233.20189 88.4512218,1227.97999 C84.6491027,1225.36147 79.7044562,1226.63386 75.9761095,1223.51433 C73.0800675,1221.09433 71.2773712,1217.05596 69.9551417,1213.61124 C67.4903849,1207.18878 70.6663839,1192.45514 65.1050753,1188.81569 C62.1352609,1186.87402 56.8747169,1187.69644 53.4811837,1186.13857 C48.8448683,1184.01161 45.589422,1180.08857 43.5918907,1175.42061 C39.0936622,1164.89739 42.9487462,1153.94311 47.3372618,1144.11186 C30.7100841,1141.27782 6.33490636,1140.151 1.57942003,1120.90633 C0.0585723774,1114.75991 -0.149503794,1107.6436 1.94260753,1101.59927 C5.0486173,1092.63014 12.2821017,1092.14614 20.3024923,1089.51628 C53.8349132,1078.51663 85.2411739,1060.654 121.368872,1058.00524 C140.719956,1056.58727 160.211019,1055.84047 179.539403,1053.83452 C198.95291,1051.81911 217.668416,1048.26285 237.210552,1050.67717 C245.524141,1051.70378 255.148609,1050.78872 263.100902,1052.29177 C270.790263,1053.74188 271.764438,1062.80742 265.887232,1068.04067 C260.174595,1073.12457 251.88938,1069.87269 245.087181,1070.44366 C235.447579,1071.25096 227.326934,1075.80925 218.326693,1078.67922 C196.242245,1085.72369 172.042986,1090.7225 149.012737,1093.25216 C136.64923,1094.60963 124.972373,1094.79113 112.869906,1098.08649 C101.875918,1101.08124 90.9954259,1104.48247 79.9636056,1107.34866 C92.0168907,1110.57028 115.364929,1110.21107 119.377016,1124.88799 C121.262942,1131.79444 119.170831,1141.35155 113.095007,1145.62247 C109.56717,1148.10297 101.860785,1146.97049 99.640045,1150.67611 C109.13021,1151.84074 119.953954,1144.54292 125.163425,1154.97917 C131.108729,1166.88822 125.292054,1176.28841 117.685924,1185.13086 C124.406784,1184.01728 131.316805,1185.28589 138.103871,1184.42566 C143.341716,1183.76016 148.233398,1182.18527 153.210201,1183.82444 C155.707115,1184.64686 155.377977,1186.87024 158.531276,1186.88347 C160.823898,1186.89292 164.257154,1184.40108 166.247119,1183.44064 C173.809742,1179.79174 181.48397,1176.82346 189.300067,1173.77766 C198.81104,1170.07203 207.849112,1167.22286 217.341169,1164.89739 C230.448076,1161.68333 243.604165,1153.43453 256.391392,1148.77036 C261.808939,1146.79466 268.773816,1144.7698 271.465565,1139.13196 C274.242436,1133.31639 272.114384,1124.80102 271.94414,1118.65082 C271.461781,1101.34782 271.667966,1084.02024 271.773896,1066.71346 C271.862801,1052.15753 272.212747,1037.87575 273.508494,1023.37655 C275.057716,1006.02628 273.671172,988.738409 274.335124,971.361675 C274.946111,955.4048 273.514169,939.485737 273.949237,923.534534 C274.435379,905.76455 275.324432,888.058846 275.507917,870.268065 C275.835164,838.310831 276.911485,806.391409 277.530039,774.441737 C278.165617,741.622378 281.646164,708.789784 288.664006,676.698315 C291.807848,662.323893 295.912623,647.682893 301.385026,634.025018 C303.117734,629.699268 304.933671,629.453487 300.768364,626.98055 C298.297933,625.515315 295.246779,627.152596 292.823638,627.477784 C287.727663,628.158409 283.178361,628.459018 277.99159,628.154628 C248.259397,626.413362 217.475473,627.821878 187.851101,630.493331 C172.444006,631.88294 156.953681,633.206378 141.484163,633.75844 C126.056261,634.306721 110.628359,636.698362 95.1985646,635.567768 C69.346046,633.675253 39.8597609,636.63219 17.7034318,619.989018 C-5.93969618,602.232268 -3.71328114,570.770378 11.5538351,548.039393 C28.4023302,522.95269 56.5436866,508.659565 80.0430528,491.080534 C103.13005,473.809675 130.266966,461.142487 155.446074,447.233159 C209.347261,417.453925 267.268101,389.890503 325.302437,369.31105 C384.346888,348.376159 443.589957,324.308503 507.896844,328.399815 C540.475898,330.47194 576.925168,331.68194 605.664271,348.98305 C621.016509,358.228206 635.878822,367.866612 649.06896,380.078159 C655.282871,385.831331 660.759058,392.921175 667.37588,398.177112 C673.525477,403.064378 679.557794,399.717971 686.585094,397.921878 C681.606399,381.8648 676.627703,365.805831 671.649008,349.748753 C664.774928,355.080315 655.315028,357.107065 646.375319,355.222112 C635.523201,352.932565 636.402796,348.298643 637.373188,339.017565 C637.827172,334.712612 639.001857,335.448065 635.264052,332.729346 C632.199657,330.498409 626.598625,329.768628 623.070788,327.836409 C614.269166,323.017206 606.640337,315.940596 603.39624,306.224675 C600.17106,296.563581 602.456114,287.602018 604.567142,278.012768 C607.103779,266.481846 600.831229,271.30294 593.658276,265.941128 C590.503084,263.581628 589.371906,261.53219 589.914796,257.635612 C590.357431,254.472596 596.612957,249.918081 596.333,246.804221 C595.994403,243.051331 593.904184,243.47105 590.934369,241.207971 C587.658115,238.710456 585.299288,235.647643 583.854105,231.717034 C580.793493,223.392612 587.031995,218.250112 589.646189,210.574175 C590.913562,206.853425 592.160127,203.671503 594.649475,200.540628 C599.06069,194.993534 600.772589,195.114534 606.925969,195.16369 C612.107066,195.203393 612.050317,194.779893 615.931884,190.096815 C617.437599,188.279925 618.93953,186.474378 620.240952,184.502456 C622.476825,181.116346 623.097271,181.575768 620.706286,178.930784 C613.419837,170.869159 610.096293,183.45505 603.625124,182.695018 C596.140057,181.815878 594.79702,169.952206 590.103956,165.989456 C586.820136,163.215909 583.072873,164.272768 579.482613,162.399159 C575.090315,160.109612 574.208828,155.744159 571.358185,152.0858 C566.731327,146.149237 560.01425,145.101831 556.927156,137.569581 C555.175533,133.294878 554.9353,128.893503 554.579679,124.361675 C554.070838,117.908971 552.381638,112.808065 550.503277,106.665425 C548.588977,100.399893 549.059985,95.8718465 552.173562,90.1073308 C555.381718,84.1669871 555.760038,82.1685965 554.952324,75.4682215 C554.337554,70.3673152 554.148394,65.8392683 556.811769,61.288534 C559.68322,56.3842527 560.280966,53.8243465 561.217309,48.2375496 C562.032589,43.3389402 563.589377,39.811034 568.327839,37.7786121 C571.556803,36.392784 575.052483,37.935534 577.333754,34.7800808 C579.609351,31.6302996 579.002147,26.5842215 581.340166,23.1035808 C585.153635,17.426034 590.888971,16.5374402 597.135039,15.2574871 L597.135039,15.2574871 Z" id="ink"></path>
                <path d="M785.927279,267.55402 C783.710322,262.349129 776.293352,238.341973 788.492291,238.218736 C798.171616,238.12077 795.112896,258.953567 795.232067,264.067707 C795.453384,273.639942 805.473198,274.999301 809.220461,283.682942 C813.593843,293.807239 810.576739,305.895895 803.761298,314.148473 C798.557503,320.446145 788.543364,327.662661 781.395002,319.952692 C773.446492,311.373036 781.084779,306.557614 786.649871,301.214707 C794.709985,293.472598 779.287757,291.222754 775.283237,284.942098 C768.479146,274.267629 775.949081,268.714864 785.927279,267.55402" id="ink"></path>
                <path d="M750.978805,272.969337 C749.866543,277.911431 750.20514,289.196571 744.832992,291.860462 C735.823293,296.328009 733.742532,274.782446 733.812521,270.025634 C733.888185,264.966321 735.639808,253.0119 743.104068,254.560321 C751.48008,256.297806 746.728376,271.79904 750.978805,272.969337" id="ink"></path>
                <path d="M784.680335,335.548268 C798.000993,335.962315 797.251919,351.839784 784.477934,352.393737 C772.59111,352.909878 772.884308,335.183378 784.680335,335.548268" id="ink"></path>
                <path d="M813.010095,572.205929 C811.765421,577.495898 808.863705,582.483367 804.514913,585.816539 C805.540161,583.725507 809.991099,571.264398 813.010095,572.205929" id="ink"></path>
            </g>
        </g>
        <circle id="Oval" fill-opacity="0.5" fill="#FFFFFF" style="mix-blend-mode: overlay;" cx="2665" cy="945" r="472"></circle>
        <g id="shapes" transform="translate(1113.500000, 771.000000) rotate(-10.000000) translate(-1113.500000, -771.000000) translate(197.000000, 307.000000)">
            <polygon id="You-are-beautiful-☺️" fill="#FF5B5B" style="mix-blend-mode: hard-light;" transform="translate(1222.500000, 622.000000) rotate(-20.000000) translate(-1222.500000, -622.000000) " points="610 520 1802.85701 584.921708 1835 724 610 724"></polygon>
            <polygon id="You-are-beautiful-☺️" fill="#FF6B6B" style="mix-blend-mode: hard-light;" transform="translate(670.500000, 455.500000) rotate(-30.000000) translate(-670.500000, -455.500000) " points="18.809629 389.799064 1376 338 1376 573 -35 573"></polygon>
            <circle id="Oval" fill="#FF5B5B" style="mix-blend-mode: hard-light;" cx="386" cy="205" r="107"></circle>
        </g>
    </g>
</svg>